# Blender 5.1.2
# www.blender.org
mtllib Wall_Door_IntInt.mtl
o Wall_Door_IntInt
v -7.000094 -0.000462 3.074984
v -5.000094 -0.000462 3.074984
v -7.000094 2.700000 3.074984
v -5.000094 2.700000 3.074984
v -6.557872 -0.004164 3.074984
v -5.442317 -0.000203 3.074984
v -5.456000 2.134653 3.074984
v -6.544188 2.134653 3.074984
v -6.516635 2.094029 3.074984
v -5.483554 2.094029 3.074984
v -5.456000 2.134653 3.100837
v -6.544188 2.134653 3.100837
v -5.442317 -0.000203 3.100837
v -6.557872 -0.004164 3.100837
v -5.483554 2.094029 3.100837
v -6.516635 2.094029 3.100837
v -5.470384 -0.000203 3.100837
v -6.529805 -0.004164 3.100837
v -6.000094 2.094029 3.074984
v -6.523220 1.052496 3.074984
v -5.476969 1.052496 3.074984
v -6.529805 -0.004164 3.074984
v -5.470384 -0.000203 3.074984
v -7.000094 -0.000462 2.925016
v -5.000094 -0.000462 2.925016
v -7.000094 2.700000 2.925016
v -5.000094 2.700000 2.925016
v -6.557872 -0.004164 2.925016
v -5.442317 -0.000203 2.925016
v -5.456000 2.134653 2.925016
v -6.544188 2.134653 2.925016
v -6.516635 2.094029 2.925016
v -5.483554 2.094029 2.925016
v -5.456000 2.134653 2.899163
v -6.544188 2.134653 2.899163
v -5.442317 -0.000203 2.899163
v -6.557872 -0.004164 2.899163
v -5.483554 2.094029 2.899163
v -6.516635 2.094029 2.899163
v -5.470384 -0.000203 2.899163
v -6.529805 -0.004164 2.899163
v -6.000094 2.094029 2.925016
v -6.523220 1.052496 2.925016
v -5.476969 1.052496 2.925016
v -6.529805 -0.004164 2.925016
v -5.470384 -0.000203 2.925016
v -7.000000 0.071646 3.074984
v -7.000000 0.000000 3.074984
v -5.000000 0.000000 3.074984
v -5.000000 0.071646 3.074984
v -7.000000 -0.000000 3.089984
v -5.000000 -0.000000 3.089984
v -7.000000 0.054099 3.089984
v -7.000000 0.066506 3.085590
v -5.000000 0.054099 3.089984
v -5.000000 0.066506 3.085590
v -5.459551 0.000000 3.074984
v -5.459551 0.071646 3.074984
v -5.459551 -0.000000 3.089984
v -5.459551 0.054099 3.089984
v -5.459551 0.066506 3.085590
v -6.549453 0.066506 3.085590
v -6.549453 0.071646 3.074984
v -6.549453 0.000000 3.074984
v -6.549453 -0.000000 3.089984
v -6.549453 0.054099 3.089984
v -5.000000 0.071646 2.925016
v -5.000000 0.000000 2.925016
v -7.000000 0.000000 2.925017
v -7.000000 0.071646 2.925017
v -5.000000 -0.000000 2.910016
v -7.000000 -0.000000 2.910017
v -5.000000 0.054099 2.910016
v -5.000000 0.066506 2.914410
v -7.000000 0.054099 2.910017
v -7.000000 0.066506 2.914410
v -6.532470 0.000000 2.925017
v -6.532470 0.071646 2.925017
v -6.532470 -0.000000 2.910017
v -6.532470 0.054099 2.910017
v -6.532470 0.066506 2.914410
v -5.459905 0.066506 2.914410
v -5.459905 0.000000 2.925016
v -5.459905 0.071646 2.925016
v -5.459905 -0.000000 2.910016
v -5.459905 0.054099 2.910016
vn -0.0000 -0.0000 1.0000
vn -0.0000 -1.0000 -0.0000
vn -0.0000 1.0000 -0.0000
vn 1.0000 -0.0063 -0.0009
vn 1.0000 0.0064 -0.0000
vn -1.0000 0.0064 -0.0000
vn -1.0000 -0.0063 -0.0007
vn -0.0000 -0.0000 -1.0000
vn 1.0000 -0.0063 0.0009
vn -1.0000 -0.0063 0.0007
vn -1.0000 -0.0000 -0.0000
vn 1.0000 -0.0000 -0.0000
vn 1.0000 -0.0063 -0.0000
vn -1.0000 -0.0063 -0.0000
vn -0.0000 0.8474 -0.5310
vn -0.0000 0.1693 0.9856
vn -0.0000 0.6668 0.7452
vn -0.0000 0.8474 0.5310
vn -0.0000 0.1693 -0.9856
vn -0.0000 0.6668 -0.7452
vt 0.307668 0.055748
vt 0.225655 0.055748
vt 0.191294 0.013520
vt 0.342029 0.013520
vt 0.342029 0.216413
vt 0.308700 0.216691
vt 0.193243 0.984169
vt 0.191294 0.984169
vt 0.191294 0.982054
vt 0.193243 0.982054
vt 0.724852 0.741915
vt 0.724852 0.780845
vt 0.724852 0.819775
vt 0.722904 0.819775
vt 0.722904 0.741915
vt 0.091247 0.800089
vt 0.091247 0.882103
vt 0.089299 0.882103
vt 0.089299 0.800089
vt 0.666062 0.402187
vt 0.666062 0.322549
vt 0.666062 0.244051
vt 0.668011 0.244051
vt 0.668011 0.402187
vt 0.797018 0.352192
vt 0.797018 0.191294
vt 0.798966 0.191294
vt 0.798966 0.352192
vt 0.450037 0.471499
vt 0.372177 0.471499
vt 0.370100 0.468442
vt 0.452114 0.468442
vt 0.451030 0.629385
vt 0.453145 0.629385
vt 0.371184 0.629087
vt 0.369069 0.629087
vt 0.258099 0.584325
vt 0.258099 0.745521
vt 0.256150 0.745521
vt 0.256150 0.584325
vt 0.693102 0.013520
vt 0.693102 0.092018
vt 0.693102 0.171357
vt 0.691154 0.171357
vt 0.691154 0.013520
vt 0.220283 0.984169
vt 0.220283 0.982054
vt 0.222231 0.982054
vt 0.222231 0.984169
vt 0.225655 0.285959
vt 0.191294 0.243731
vt 0.342029 0.243731
vt 0.307668 0.285959
vt 0.224623 0.446902
vt 0.191294 0.446624
vt 0.342029 0.446624
vt 0.308700 0.446604
vt 0.886308 0.984365
vt 0.886308 0.986480
vt 0.884360 0.986480
vt 0.884360 0.984365
vt 0.736155 0.741915
vt 0.738103 0.741915
vt 0.738103 0.819775
vt 0.736155 0.819775
vt 0.736155 0.780845
vt 0.118287 0.800089
vt 0.120235 0.800089
vt 0.120235 0.882103
vt 0.118287 0.882103
vt 0.654759 0.402187
vt 0.652811 0.402187
vt 0.652811 0.244051
vt 0.654759 0.244051
vt 0.654759 0.322549
vt 0.550486 0.817322
vt 0.548538 0.817322
vt 0.548538 0.656425
vt 0.550486 0.656425
vt 0.483293 0.471499
vt 0.481216 0.468442
vt 0.563230 0.468442
vt 0.561153 0.471499
vt 0.482300 0.629385
vt 0.480185 0.629385
vt 0.564261 0.629087
vt 0.562146 0.629087
vt 0.793316 0.468442
vt 0.795264 0.468442
vt 0.795264 0.629638
vt 0.793316 0.629638
vt 0.704405 0.013520
vt 0.706353 0.013520
vt 0.706353 0.171357
vt 0.704405 0.171357
vt 0.704405 0.092018
vt 0.913348 0.984365
vt 0.915297 0.984365
vt 0.915297 0.986480
vt 0.913348 0.986480
vt 0.695051 0.394786
vt 0.695051 0.244051
vt 0.706353 0.244051
vt 0.706353 0.394786
vt 0.684561 0.671654
vt 0.684561 0.468442
vt 0.695864 0.468442
vt 0.695864 0.671654
vt 0.337706 0.473942
vt 0.337706 0.677155
vt 0.326403 0.677155
vt 0.326403 0.473942
vt 0.224623 0.216393
vt 0.191294 0.216413
vt 0.365640 0.880036
vt 0.371031 0.880036
vt 0.371031 0.913992
vt 0.365640 0.913992
vt 0.943378 0.191294
vt 0.943378 0.225929
vt 0.942248 0.225929
vt 0.942248 0.191294
vt 0.853727 0.915993
vt 0.853727 0.881358
vt 0.854679 0.881358
vt 0.854679 0.915993
vt 0.821486 0.964785
vt 0.821486 0.930150
vt 0.822285 0.930150
vt 0.822285 0.964785
vt 0.399202 0.972076
vt 0.399202 0.977476
vt 0.398071 0.977476
vt 0.398071 0.973398
vt 0.398403 0.972463
vt 0.912530 0.612786
vt 0.912530 0.578830
vt 0.916601 0.578830
vt 0.916601 0.612786
vt 0.426242 0.977476
vt 0.426242 0.972076
vt 0.427041 0.972463
vt 0.427372 0.973398
vt 0.427372 0.977476
vt 0.849656 0.915993
vt 0.849656 0.881358
vt 0.884538 0.613465
vt 0.879146 0.613465
vt 0.879146 0.578830
vt 0.884538 0.578830
vt 0.794446 0.930150
vt 0.794446 0.964107
vt 0.793316 0.964107
vt 0.793316 0.930150
vt 0.911578 0.612786
vt 0.911578 0.578830
vt 0.969372 0.818547
vt 0.969372 0.784590
vt 0.970171 0.784590
vt 0.970171 0.818547
vt 0.858426 0.164254
vt 0.853034 0.164254
vt 0.853034 0.129593
vt 0.858426 0.129593
vt 0.853844 0.330536
vt 0.853844 0.295300
vt 0.854975 0.295300
vt 0.854975 0.330536
vt 0.888918 0.334143
vt 0.888918 0.298907
vt 0.889870 0.298907
vt 0.889870 0.334143
vt 0.942572 0.048756
vt 0.942572 0.013520
vt 0.943372 0.013520
vt 0.943372 0.048756
vt 0.455543 0.972076
vt 0.455543 0.977476
vt 0.454412 0.977476
vt 0.454412 0.973398
vt 0.454744 0.972463
vt 0.889536 0.129593
vt 0.889536 0.164254
vt 0.885466 0.164254
vt 0.885466 0.129593
vt 0.078171 0.984340
vt 0.078171 0.978940
vt 0.078971 0.979328
vt 0.079302 0.980263
vt 0.079302 0.984340
vt 0.884847 0.334143
vt 0.884847 0.298907
vt 0.606779 0.417871
vt 0.601388 0.417871
vt 0.601388 0.382635
vt 0.606779 0.382635
vt 0.941202 0.819252
vt 0.941202 0.784590
vt 0.942332 0.784590
vt 0.942332 0.819252
vt 0.890489 0.129593
vt 0.890489 0.164254
vt 0.969444 0.818279
vt 0.969444 0.785102
vt 0.970119 0.785102
vt 0.970119 0.818279
s 0
usemtl Textures1024px
f 8/1/1 7/2/1 4/3/1 3/4/1
f 8/1/1 3/4/1 1/5/1 5/6/1
f 14/7/2 5/8/2 22/9/2 18/10/2
f 9/11/2 19/12/2 10/13/2 15/14/2 16/15/2
f 7/16/3 8/17/3 12/18/3 11/19/3
f 22/20/4 20/21/4 9/22/4 16/23/4 18/24/4
f 6/25/5 7/26/5 11/27/5 13/28/5
f 16/29/1 15/30/1 11/31/1 12/32/1
f 18/33/1 16/29/1 12/32/1 14/34/1
f 15/30/1 17/35/1 13/36/1 11/31/1
f 8/37/6 5/38/6 14/39/6 12/40/6
f 10/41/7 21/42/7 23/43/7 17/44/7 15/45/7
f 23/46/2 6/47/2 13/48/2 17/49/2
f 31/50/8 26/51/8 27/52/8 30/53/8
f 28/54/8 24/55/8 26/51/8 31/50/8
f 30/53/8 27/52/8 25/56/8 29/57/8
f 37/58/2 41/59/2 45/60/2 28/61/2
f 32/62/2 39/63/2 38/64/2 33/65/2 42/66/2
f 30/67/3 34/68/3 35/69/3 31/70/3
f 45/71/9 41/72/9 39/73/9 32/74/9 43/75/9
f 29/76/5 36/77/5 34/78/5 30/79/5
f 39/80/8 35/81/8 34/82/8 38/83/8
f 41/84/8 37/85/8 35/81/8 39/80/8
f 38/83/8 34/82/8 36/86/8 40/87/8
f 31/88/6 35/89/6 37/90/6 28/91/6
f 33/92/10 38/93/10 40/94/10 46/95/10 44/96/10
f 46/97/2 40/98/2 36/99/2 29/100/2
f 3/101/3 4/102/3 27/103/3 26/104/3
f 1/105/11 3/106/11 26/107/11 24/108/11
f 4/109/12 2/110/12 25/111/12 27/112/12
f 9/22/13 20/21/13 22/20/13 45/71/13 43/75/13 32/74/13
f 9/11/2 32/62/2 42/66/2 33/65/2 10/13/2 19/12/2
f 10/41/14 33/92/14 44/96/14 46/95/14 23/43/14 21/42/14
f 7/2/1 6/113/1 2/114/1 4/3/1
s 1
f 63/115/15 64/116/8 48/117/8 47/118/15
f 57/119/2 49/120/2 52/121/2 59/122/2
f 60/123/16 55/124/16 56/125/17 61/126/17
f 61/127/17 56/128/17 50/129/15 58/130/15
f 47/131/11 48/132/11 51/133/11 53/134/11 54/135/11
f 66/136/16 53/137/16 51/138/1 65/139/1
f 49/140/12 50/141/12 56/142/12 55/143/12 52/144/12
f 55/124/16 60/123/16 59/145/1 52/146/1
f 50/147/15 49/148/8 57/149/8 58/150/15
f 48/151/2 64/152/2 65/153/2 51/154/2
f 53/137/16 66/136/16 62/155/17 54/156/17
f 54/157/17 62/158/17 63/159/15 47/160/15
f 84/161/18 83/162/1 68/163/1 67/164/18
f 77/165/2 69/166/2 72/167/2 79/168/2
f 80/169/19 75/170/19 76/171/20 81/172/20
f 81/173/20 76/174/20 70/175/18 78/176/18
f 67/177/12 68/178/12 71/179/12 73/180/12 74/181/12
f 86/182/19 73/183/19 71/184/8 85/185/8
f 69/186/11 70/187/11 76/188/11 75/189/11 72/190/11
f 75/170/19 80/169/19 79/191/8 72/192/8
f 70/193/18 69/194/1 77/195/1 78/196/18
f 68/197/2 83/198/2 85/199/2 71/200/2
f 73/183/19 86/182/19 82/201/20 74/202/20
f 74/203/20 82/204/20 84/205/18 67/206/18
