# Blender 5.1.2
# www.blender.org
mtllib Wall_Corner02_IntExt.mtl
o Wall_Corner02_IntExt
v 7.074984 0.000000 2.000000
v 7.074984 0.000000 -0.074984
v 7.074984 2.700000 2.000000
v 7.074984 2.700000 -0.074984
v 6.925016 0.000000 2.000000
v 6.925016 0.000000 0.074984
v 6.925016 2.700000 2.000000
v 6.925016 2.700000 0.074984
v 7.074984 0.000000 -0.074984
v 5.000000 0.000000 -0.074984
v 7.074984 2.700000 -0.074984
v 5.000000 2.700000 -0.074984
v 6.925016 0.000000 0.074984
v 5.000000 0.000000 0.074984
v 6.925016 2.700000 0.074984
v 5.000000 2.700000 0.074984
v 5.000000 0.071744 0.074984
v 5.000000 0.000000 0.074984
v 7.074984 0.000000 0.074984
v 7.074984 0.071744 0.074984
v 5.000000 -0.000000 0.089984
v 7.074984 -0.000000 0.089984
v 5.000000 0.054173 0.089984
v 5.000000 0.066598 0.085590
v 7.074984 0.054173 0.089984
v 7.074984 0.066598 0.085590
v 6.925016 0.071744 -0.074984
v 6.925016 0.000000 -0.074984
v 6.925016 0.000000 2.000000
v 6.925016 0.071744 2.000000
v 6.910016 -0.000000 -0.074984
v 6.910016 -0.000000 2.000000
v 6.910016 0.054173 -0.074984
v 6.914410 0.066598 -0.074984
v 6.910016 0.054173 2.000000
v 6.914410 0.066598 2.000000
vn 1.0000 -0.0000 -0.0000
vn -1.0000 -0.0000 -0.0000
vn -0.0000 -0.0000 1.0000
vn -0.0000 1.0000 -0.0000
vn -0.0000 -0.0000 -1.0000
vn -0.0000 0.1691 0.9856
vn -0.0000 0.6665 0.7455
vn -0.0000 0.8997 0.4365
vn -0.9856 0.1691 -0.0000
vn -0.7455 0.6665 -0.0000
vn -0.4365 0.8997 -0.0000
vt 0.159983 0.439869
vt 0.017766 0.439869
vt 0.017766 0.254813
vt 0.159983 0.254813
vt 0.375793 0.211092
vt 0.375793 0.018509
vt 0.513411 0.018509
vt 0.513411 0.211092
vt 0.030149 0.170634
vt 0.030149 0.060402
vt 0.036285 0.060402
vt 0.036285 0.170634
vt 0.029605 0.156738
vt 0.029605 0.072378
vt 0.035702 0.078396
vt 0.035702 0.156658
vt 0.017766 0.439869
vt 0.017766 0.254813
vt 0.375793 0.211092
vt 0.513411 0.211092
vt 0.035780 0.072378
vt 0.035780 0.156738
vt 0.029684 0.156658
vt 0.029684 0.078396
vt 0.035562 0.059795
vt 0.035562 0.170027
vt 0.029426 0.170027
vt 0.029426 0.059795
vt 0.765319 0.617762
vt 0.765319 0.469877
vt 0.766292 0.469877
vt 0.766292 0.617762
vt 0.822373 0.617609
vt 0.822373 0.470028
vt 0.823037 0.469996
vt 0.823037 0.617578
vt 0.820953 0.121463
vt 0.820953 0.125522
vt 0.820103 0.125522
vt 0.820103 0.122457
vt 0.820352 0.121754
vt 0.761176 0.617762
vt 0.761176 0.469877
vt 0.820471 0.125175
vt 0.820471 0.121107
vt 0.821072 0.121399
vt 0.821321 0.122103
vt 0.821321 0.125175
vt 0.823037 0.470053
vt 0.823037 0.617634
vt 0.822373 0.617603
vt 0.822373 0.470021
vt 0.821321 0.138412
vt 0.821321 0.142480
vt 0.820471 0.142480
vt 0.820471 0.139408
vt 0.820720 0.138704
vt 0.820103 0.142817
vt 0.820103 0.138759
vt 0.820704 0.139050
vt 0.820953 0.139753
vt 0.820953 0.142817
s 0
usemtl Textures1024px
f 1/1/1 2/2/1 4/3/1 3/4/1
f 5/5/2 7/6/2 8/7/2 6/8/2
f 1/9/3 3/10/3 7/11/3 5/12/3
f 3/13/4 4/14/4 8/15/4 7/16/4
f 9/1/5 10/17/5 12/18/5 11/4/5
f 13/19/3 15/6/3 16/7/3 14/20/3
f 11/21/4 12/22/4 16/23/4 15/24/4
f 12/25/2 10/26/2 14/27/2 16/28/2
s 1
f 23/29/6 25/30/6 26/31/7 24/32/7
f 24/33/7 26/34/7 20/35/8 17/36/8
f 17/37/2 18/38/2 21/39/2 23/40/2 24/41/2
f 25/30/6 23/29/6 21/42/3 22/43/3
f 19/44/1 20/45/1 26/46/1 25/47/1 22/48/1
f 33/29/9 35/30/9 36/31/10 34/32/10
f 34/49/10 36/50/10 30/51/11 27/52/11
f 27/53/5 28/54/5 31/55/5 33/56/5 34/57/5
f 35/30/9 33/29/9 31/42/2 32/43/2
f 29/58/3 30/59/3 36/60/3 35/61/3 32/62/3
