# Blender 5.1.2
# www.blender.org
mtllib Wall_Basic_IntExt.mtl
o Wall_Basic_IntExt
v -1.000000 0.000000 0.074984
v 1.000000 0.000000 0.074984
v -1.000000 2.700000 0.074984
v 1.000000 2.700000 0.074984
v -1.000000 0.000000 -0.074984
v 1.000000 0.000000 -0.074984
v -1.000000 2.700000 -0.074984
v 1.000000 2.700000 -0.074984
v -1.000000 0.071744 0.074984
v -1.000000 0.000000 0.074984
v 1.000000 0.000000 0.074984
v 1.000000 0.071744 0.074984
v -1.000000 -0.000000 0.089984
v 1.000000 -0.000000 0.089984
v -1.000000 0.054173 0.089984
v -1.000000 0.066598 0.085590
v 1.000000 0.054173 0.089984
v 1.000000 0.066598 0.085590
vn -0.0000 -0.0000 -1.0000
vn -1.0000 -0.0000 -0.0000
vn -0.0000 1.0000 -0.0000
vn 1.0000 -0.0000 -0.0000
vn -0.0000 -0.0000 1.0000
vn -0.0000 0.1691 0.9856
vn -0.0000 0.6665 0.7455
vn -0.0000 0.8997 0.4365
vt 0.013755 0.441397
vt 0.013755 0.249467
vt 0.163998 0.249467
vt 0.163998 0.441397
vt 0.028174 0.196069
vt 0.028174 0.042988
vt 0.036677 0.042988
vt 0.036677 0.196069
vt 0.038974 0.062828
vt 0.038974 0.176221
vt 0.030688 0.176221
vt 0.030688 0.062828
vt 0.036677 0.041746
vt 0.036677 0.194826
vt 0.028174 0.194826
vt 0.028174 0.041746
vt 0.369429 0.014052
vt 0.519735 0.014052
vt 0.519735 0.215676
vt 0.369429 0.215676
vt 0.765324 0.468556
vt 0.765324 0.619108
vt 0.766342 0.619108
vt 0.766342 0.468556
vt 0.823093 0.468553
vt 0.823093 0.619065
vt 0.822313 0.619065
vt 0.822313 0.468553
vt 0.032936 0.094766
vt 0.032936 0.098834
vt 0.032086 0.098834
vt 0.032086 0.095762
vt 0.032335 0.095058
vt 0.761055 0.468556
vt 0.761055 0.619108
vt 0.032086 0.116138
vt 0.032086 0.112071
vt 0.032687 0.112363
vt 0.032936 0.113067
vt 0.032936 0.116138
s 0
usemtl Textures1024px
f 5/1/1 7/2/1 8/3/1 6/4/1
f 1/5/2 3/6/2 7/7/2 5/8/2
f 3/9/3 4/10/3 8/11/3 7/12/3
f 4/13/4 2/14/4 6/15/4 8/16/4
f 4/17/5 3/18/5 1/19/5 2/20/5
s 1
f 15/21/6 17/22/6 18/23/7 16/24/7
f 16/25/7 18/26/7 12/27/8 9/28/8
f 9/29/2 10/30/2 13/31/2 15/32/2 16/33/2
f 17/22/6 15/21/6 13/34/5 14/35/5
f 11/36/4 12/37/4 18/38/4 17/39/4 14/40/4
