# Blender 5.1.2
# www.blender.org
mtllib Wall_Corner_IntInt.mtl
o Wall_Corner_IntInt
v 2.000000 0.000000 3.074984
v 4.074984 0.000000 3.074984
v 2.000000 2.700000 3.074984
v 4.074984 2.700000 3.074984
v 2.000000 0.000000 2.925016
v 3.925016 0.000000 2.925016
v 2.000000 2.700000 2.925016
v 3.925016 2.700000 2.925016
v 4.074984 0.000000 3.074984
v 4.074984 0.000000 1.000000
v 4.074984 2.700000 3.074984
v 4.074984 2.700000 1.000000
v 3.925016 0.000000 2.925016
v 3.925016 0.000000 1.000000
v 3.925016 2.700000 2.925016
v 3.925016 2.700000 1.000000
v 2.000000 0.071744 3.074984
v 2.000000 0.000000 3.074984
v 4.074984 0.000000 3.074984
v 4.074984 0.071744 3.074984
v 2.000000 -0.000000 3.089984
v 4.074984 -0.000000 3.089984
v 2.000000 0.054173 3.089984
v 2.000000 0.066598 3.085590
v 4.074984 0.054173 3.089984
v 4.074984 0.066598 3.085590
v 4.074984 0.071744 3.074984
v 4.074984 0.000000 3.074984
v 4.074984 0.000000 1.000000
v 4.074984 0.071744 1.000000
v 4.089984 -0.000000 3.074984
v 4.089984 -0.000000 1.000000
v 4.089984 0.054173 3.074984
v 4.085590 0.066598 3.074984
v 4.089984 0.054173 1.000000
v 4.085590 0.066598 1.000000
v 4.000000 0.071744 2.925016
v 4.000000 0.000000 2.925016
v 2.000000 0.000000 2.925017
v 2.000000 0.071744 2.925017
v 4.000000 -0.000000 2.910016
v 2.000000 -0.000000 2.910017
v 4.000000 0.054173 2.910016
v 4.000000 0.066598 2.914410
v 2.000000 0.054173 2.910017
v 2.000000 0.066598 2.914410
v 3.925016 0.071744 1.000000
v 3.925016 0.000000 1.000000
v 3.925016 0.000000 3.074984
v 3.925016 0.071744 3.074984
v 3.910016 -0.000000 1.000000
v 3.910016 -0.000000 3.074984
v 3.910016 0.054173 1.000000
v 3.914410 0.066598 1.000000
v 3.910016 0.054173 3.074984
v 3.914409 0.066598 3.074984
vn -0.0000 -0.0000 1.0000
vn -0.0000 -0.0000 -1.0000
vn -1.0000 -0.0000 -0.0000
vn 1.0000 -0.0000 -0.0000
vn -0.0000 -1.0000 -0.0000
vn -0.0000 0.1691 0.9856
vn -0.0000 0.6665 0.7455
vn -0.0000 0.8997 0.4365
vn 0.9856 0.1691 -0.0000
vn 0.7455 0.6665 -0.0000
vn 0.4365 0.8997 -0.0000
vn -0.0000 0.1691 -0.9856
vn -0.0000 0.6665 -0.7455
vn -0.0000 0.8997 -0.4365
vn -0.9856 0.1691 -0.0000
vn -0.7455 0.6665 -0.0000
vn -0.4365 0.8997 -0.0000
vn -0.0000 1.0000 -0.0000
vt 0.518993 0.211480
vt 0.370223 0.211480
vt 0.370223 0.018202
vt 0.518993 0.018202
vt 0.375583 0.211519
vt 0.375583 0.018161
vt 0.513600 0.018161
vt 0.513601 0.211519
vt 0.030536 0.153546
vt 0.030536 0.072091
vt 0.035066 0.072091
vt 0.035066 0.153546
vt 0.375583 0.211519
vt 0.513601 0.018161
vt 0.513601 0.211519
vt 0.823030 0.484997
vt 0.823030 0.602641
vt 0.822409 0.602641
vt 0.822409 0.484997
vt 0.765082 0.602646
vt 0.765082 0.485002
vt 0.765800 0.485002
vt 0.765800 0.602646
vt 0.822375 0.602641
vt 0.822375 0.484997
vt 0.822815 0.484997
vt 0.822815 0.602641
vt 0.819394 0.083355
vt 0.819394 0.087418
vt 0.818543 0.087418
vt 0.818543 0.084350
vt 0.818793 0.083646
vt 0.762016 0.602646
vt 0.762016 0.485002
vt 0.819139 0.121766
vt 0.819139 0.117705
vt 0.819741 0.117996
vt 0.819990 0.118700
vt 0.819990 0.121766
vt 0.822815 0.484997
vt 0.822815 0.602641
vt 0.822375 0.602641
vt 0.822375 0.484997
vt 0.819990 0.083108
vt 0.819990 0.087169
vt 0.819139 0.087169
vt 0.819139 0.084103
vt 0.819388 0.083399
vt 0.818543 0.104718
vt 0.818543 0.100655
vt 0.819145 0.100946
vt 0.819394 0.101650
vt 0.819394 0.104718
vt 0.765093 0.487127
vt 0.765093 0.600520
vt 0.765808 0.600520
vt 0.765808 0.487127
vt 0.822501 0.600539
vt 0.822501 0.487146
vt 0.822940 0.487146
vt 0.822940 0.600539
vt 0.819990 0.100407
vt 0.819990 0.104468
vt 0.819139 0.104468
vt 0.819139 0.101401
vt 0.819388 0.100698
vt 0.762025 0.487127
vt 0.762025 0.600520
vt 0.818543 0.122018
vt 0.818543 0.117955
vt 0.819145 0.118247
vt 0.819394 0.118950
vt 0.819394 0.122018
vt 0.765084 0.602647
vt 0.765084 0.485002
vt 0.765799 0.485002
vt 0.765799 0.602647
vt 0.819394 0.135255
vt 0.819394 0.139318
vt 0.818543 0.139318
vt 0.818543 0.136250
vt 0.818793 0.135547
vt 0.762016 0.602647
vt 0.819139 0.139065
vt 0.819139 0.135004
vt 0.819741 0.135295
vt 0.819990 0.135998
vt 0.819990 0.139065
vt 0.028007 0.143843
vt 0.028007 0.081059
vt 0.032544 0.085597
vt 0.032544 0.143843
vt 0.037150 0.081059
vt 0.037150 0.143843
vt 0.032612 0.143843
vt 0.032612 0.085597
s 0
usemtl Textures1024px
f 1/1/1 2/2/1 4/3/1 3/4/1
f 5/5/2 7/6/2 8/7/2 6/8/2
f 1/9/3 3/10/3 7/11/3 5/12/3
f 9/1/4 10/2/4 12/3/4 11/4/4
f 13/13/3 15/6/3 16/14/3 14/15/3
f 12/11/2 10/12/2 14/9/2 16/10/2
s 1
f 18/16/5 19/17/5 22/18/5 21/19/5
f 23/20/6 25/21/6 26/22/7 24/23/7
f 24/24/7 26/25/7 20/26/8 17/27/8
f 17/28/3 18/29/3 21/30/3 23/31/3 24/32/3
f 25/21/6 23/20/6 21/33/1 22/34/1
f 19/35/4 20/36/4 26/37/4 25/38/4 22/39/4
f 33/20/9 35/21/9 36/22/10 34/23/10
f 34/40/10 36/41/10 30/42/11 27/43/11
f 27/44/1 28/45/1 31/46/1 33/47/1 34/48/1
f 35/21/9 33/20/9 31/33/4 32/34/4
f 29/49/2 30/50/2 36/51/2 35/52/2 32/53/2
f 43/54/12 45/55/12 46/56/13 44/57/13
f 44/58/13 46/59/13 40/60/14 37/61/14
f 37/62/4 38/63/4 41/64/4 43/65/4 44/66/4
f 45/55/12 43/54/12 41/67/2 42/68/2
f 39/69/3 40/70/3 46/71/3 45/72/3 42/73/3
f 53/74/15 55/75/15 56/76/16 54/77/16
f 54/24/16 56/25/16 50/26/17 47/27/17
f 47/78/2 48/79/2 51/80/2 53/81/2 54/82/2
f 55/75/15 53/74/15 51/83/3 52/34/3
f 49/84/1 50/85/1 56/86/1 55/87/1 52/88/1
s 0
f 3/89/18 4/90/18 8/91/18 7/92/18
f 11/93/18 12/94/18 16/95/18 15/96/18
