# Blender 5.1.2
# www.blender.org
mtllib Wall_Door_IntExt.mtl
o Wall_Door_IntExt
v -7.000094 -0.000462 0.074984
v -5.000094 -0.000462 0.074984
v -7.000094 2.695836 0.074984
v -5.000094 2.695836 0.074984
v -6.557872 -0.004164 0.074984
v -5.442317 -0.000203 0.074984
v -5.456000 2.134653 0.074984
v -6.544188 2.134653 0.074984
v -6.516635 2.094029 0.074984
v -5.483554 2.094029 0.074984
v -5.456000 2.134653 0.100837
v -6.544188 2.134653 0.100837
v -5.442317 -0.000203 0.100837
v -6.557872 -0.004164 0.100837
v -5.483554 2.094029 0.100837
v -6.516635 2.094029 0.100837
v -5.470384 -0.000203 0.100837
v -6.529805 -0.004164 0.100837
v -6.000094 2.094029 0.074984
v -6.523220 1.052496 0.074984
v -5.476969 1.052496 0.074984
v -6.529805 -0.004164 0.074984
v -5.470384 -0.000203 0.074984
v -7.000094 -0.000462 -0.074984
v -5.000094 -0.000462 -0.074984
v -7.000094 2.695836 -0.074984
v -5.000094 2.695836 -0.074984
v -6.557872 -0.004164 -0.074984
v -5.442317 -0.000203 -0.074984
v -5.456000 2.134653 -0.074984
v -6.544188 2.134653 -0.074984
v -6.516635 2.094029 -0.074984
v -5.483554 2.094029 -0.074984
v -5.456000 2.134653 -0.100837
v -6.544188 2.134653 -0.100837
v -5.442317 -0.000203 -0.100837
v -6.557872 -0.004164 -0.100837
v -5.483554 2.094029 -0.100837
v -6.516635 2.094029 -0.100837
v -5.470384 -0.000203 -0.100837
v -6.529805 -0.004164 -0.100837
v -6.000094 2.094029 -0.074984
v -6.523220 1.052496 -0.074984
v -5.476969 1.052496 -0.074984
v -6.529805 -0.004164 -0.074984
v -5.470384 -0.000203 -0.074984
v -7.000000 0.071646 0.074984
v -7.000000 0.000000 0.074984
v -5.000000 0.000000 0.074984
v -5.000000 0.071646 0.074984
v -7.000000 -0.000000 0.089984
v -5.000000 -0.000000 0.089984
v -7.000000 0.054099 0.089984
v -7.000000 0.066506 0.085590
v -5.000000 0.054099 0.089984
v -5.000000 0.066506 0.085590
v -5.459551 0.071646 0.074984
v -5.459551 -0.000000 0.089984
v -5.459551 0.054099 0.089984
v -5.459551 0.066506 0.085590
v -6.549453 0.066506 0.085590
v -6.549453 0.071646 0.074984
v -6.549453 0.000000 0.074984
v -6.549453 -0.000000 0.089984
v -6.549453 0.054099 0.089984
vn -0.0000 -0.0000 1.0000
vn -0.0000 -1.0000 -0.0000
vn -0.0000 1.0000 -0.0000
vn 1.0000 -0.0063 -0.0009
vn 1.0000 0.0064 -0.0000
vn -1.0000 0.0064 -0.0000
vn -1.0000 -0.0063 -0.0007
vn -0.0000 -0.0000 -1.0000
vn 1.0000 -0.0063 0.0009
vn -1.0000 -0.0063 0.0007
vn -1.0000 -0.0000 -0.0000
vn 1.0000 -0.0000 -0.0000
vn 1.0000 -0.0063 -0.0000
vn -1.0000 -0.0063 -0.0000
vn -0.0000 0.8474 -0.5310
vn -0.0000 0.1693 0.9856
vn -0.0000 0.6668 0.7452
vn -0.0000 0.8999 0.4361
vt 0.307215 0.055845
vt 0.225035 0.055845
vt 0.190605 0.013560
vt 0.341645 0.013560
vt 0.341645 0.216723
vt 0.308249 0.217002
vt 0.221983 0.982488
vt 0.221983 0.984053
vt 0.220284 0.984053
vt 0.220284 0.982488
vt 0.724868 0.742037
vt 0.724868 0.780764
vt 0.724868 0.819491
vt 0.722930 0.819491
vt 0.722930 0.742037
vt 0.089534 0.881004
vt 0.089534 0.799906
vt 0.091248 0.799906
vt 0.091248 0.881004
vt 0.704326 0.170974
vt 0.704326 0.091786
vt 0.704326 0.013732
vt 0.706262 0.013732
vt 0.706262 0.170974
vt 0.548537 0.817419
vt 0.548537 0.656425
vt 0.550486 0.656425
vt 0.550486 0.817419
vt 0.450175 0.471646
vt 0.372361 0.471646
vt 0.370286 0.468593
vt 0.452250 0.468593
vt 0.451167 0.629327
vt 0.453281 0.629327
vt 0.371369 0.629029
vt 0.369255 0.629029
vt 0.258034 0.584325
vt 0.258034 0.744883
vt 0.256222 0.744883
vt 0.256222 0.584325
vt 0.654933 0.244051
vt 0.654933 0.321520
vt 0.654933 0.399819
vt 0.653010 0.399819
vt 0.653010 0.244051
vt 0.193419 0.983990
vt 0.191719 0.983990
vt 0.191719 0.982425
vt 0.193419 0.982425
vt 0.048464 0.287239
vt 0.014579 0.246144
vt 0.163226 0.246144
vt 0.129342 0.287239
vt 0.047447 0.443859
vt 0.014579 0.443588
vt 0.163226 0.443588
vt 0.130359 0.443569
vt 0.510689 0.242463
vt 0.510689 0.246106
vt 0.507333 0.246106
vt 0.507333 0.242463
vt 0.736112 0.742037
vt 0.738050 0.742037
vt 0.738050 0.819491
vt 0.736112 0.819491
vt 0.736112 0.780764
vt 0.120267 0.881933
vt 0.118354 0.881933
vt 0.118354 0.800122
vt 0.120267 0.800122
vt 0.693096 0.170974
vt 0.691160 0.170974
vt 0.691160 0.013732
vt 0.693096 0.013732
vt 0.693096 0.091786
vt 0.795242 0.629101
vt 0.793306 0.629101
vt 0.793306 0.469252
vt 0.795242 0.469252
vt 0.483414 0.471609
vt 0.481343 0.468555
vt 0.563138 0.468555
vt 0.561066 0.471609
vt 0.482424 0.629321
vt 0.480314 0.629321
vt 0.564166 0.629023
vt 0.562056 0.629023
vt 0.793306 0.468847
vt 0.795242 0.468847
vt 0.795242 0.628992
vt 0.793306 0.628992
vt 0.666088 0.244051
vt 0.668011 0.244051
vt 0.668011 0.399819
vt 0.666088 0.399819
vt 0.666088 0.321520
vt 0.507333 0.279998
vt 0.510689 0.279998
vt 0.510689 0.283641
vt 0.507333 0.283641
vt 0.497726 0.034493
vt 0.497724 0.137276
vt 0.490014 0.137276
vt 0.490017 0.034493
vt 0.489799 0.199613
vt 0.489799 0.061046
vt 0.497635 0.061046
vt 0.497635 0.199613
vt 0.497635 0.061046
vt 0.497635 0.199613
vt 0.489799 0.199613
vt 0.489799 0.061046
vt 0.224002 0.216703
vt 0.190605 0.216723
vt 0.958513 0.929945
vt 0.963584 0.929945
vt 0.963584 0.961839
vt 0.958512 0.961839
vt 0.853493 0.884190
vt 0.853493 0.913249
vt 0.854528 0.914549
vt 0.854528 0.882890
vt 0.822300 0.931173
vt 0.822300 0.963043
vt 0.821446 0.963043
vt 0.821446 0.931173
vt 0.400357 0.242463
vt 0.400357 0.251763
vt 0.398410 0.251763
vt 0.398410 0.244741
vt 0.398980 0.243130
vt 0.912709 0.612182
vt 0.912709 0.580442
vt 0.916356 0.580442
vt 0.916356 0.612182
vt 0.434248 0.251763
vt 0.434248 0.242463
vt 0.435625 0.243130
vt 0.436195 0.244741
vt 0.436195 0.251763
vt 0.849870 0.884190
vt 0.849870 0.913249
vt 0.960904 0.932185
vt 0.960904 0.970606
vt 0.959625 0.970606
vt 0.959625 0.932185
vt 0.911853 0.612182
vt 0.911853 0.580442
vt 0.969989 0.785307
vt 0.969989 0.818106
vt 0.969559 0.818106
vt 0.969559 0.785307
s 0
usemtl Textures1024px
f 8/1/1 7/2/1 4/3/1 3/4/1
f 8/1/1 3/4/1 1/5/1 5/6/1
f 14/7/2 5/8/2 22/9/2 18/10/2
f 9/11/2 19/12/2 10/13/2 15/14/2 16/15/2
f 7/16/3 8/17/3 12/18/3 11/19/3
f 22/20/4 20/21/4 9/22/4 16/23/4 18/24/4
f 6/25/5 7/26/5 11/27/5 13/28/5
f 16/29/1 15/30/1 11/31/1 12/32/1
f 18/33/1 16/29/1 12/32/1 14/34/1
f 15/30/1 17/35/1 13/36/1 11/31/1
f 8/37/6 5/38/6 14/39/6 12/40/6
f 10/41/7 21/42/7 23/43/7 17/44/7 15/45/7
f 23/46/2 6/47/2 13/48/2 17/49/2
f 31/50/8 26/51/8 27/52/8 30/53/8
f 28/54/8 24/55/8 26/51/8 31/50/8
f 30/53/8 27/52/8 25/56/8 29/57/8
f 37/58/2 41/59/2 45/60/2 28/61/2
f 32/62/2 39/63/2 38/64/2 33/65/2 42/66/2
f 30/67/3 34/68/3 35/69/3 31/70/3
f 45/71/9 41/72/9 39/73/9 32/74/9 43/75/9
f 29/76/5 36/77/5 34/78/5 30/79/5
f 39/80/8 35/81/8 34/82/8 38/83/8
f 41/84/8 37/85/8 35/81/8 39/80/8
f 38/83/8 34/82/8 36/86/8 40/87/8
f 31/88/6 35/89/6 37/90/6 28/91/6
f 33/92/10 38/93/10 40/94/10 46/95/10 44/96/10
f 46/97/2 40/98/2 36/99/2 29/100/2
f 3/101/3 4/102/3 27/103/3 26/104/3
f 1/105/11 3/106/11 26/107/11 24/108/11
f 4/109/12 2/110/12 25/111/12 27/112/12
f 9/22/13 20/21/13 22/20/13 45/71/13 43/75/13 32/74/13
f 9/11/2 32/62/2 42/66/2 33/65/2 10/13/2 19/12/2
f 10/41/14 33/92/14 44/96/14 46/95/14 23/43/14 21/42/14
f 7/2/1 6/113/1 2/114/1 4/3/1
s 1
f 62/115/15 63/116/8 48/117/8 47/118/15
f 59/119/16 55/120/16 56/121/17 60/122/17
f 60/123/17 56/124/17 50/125/18 57/126/18
f 47/127/11 48/128/11 51/129/11 53/130/11 54/131/11
f 65/132/16 53/133/16 51/134/1 64/135/1
f 49/136/12 50/137/12 56/138/12 55/139/12 52/140/12
f 55/120/16 59/119/16 58/141/1 52/142/1
f 48/143/2 63/144/2 64/145/2 51/146/2
f 53/133/16 65/132/16 61/147/17 54/148/17
f 54/149/17 61/150/17 62/151/15 47/152/15
