# Blender 5.1.2
# www.blender.org
mtllib Wall_Corner03_IntExt.mtl
o Wall_Corner03_IntExt
v 10.000000 0.000000 -0.074985
v 7.925016 0.000000 -0.074984
v 10.000000 2.700000 -0.074985
v 7.925016 2.700000 -0.074984
v 10.000000 0.000000 0.074983
v 8.074984 0.000000 0.074984
v 10.000000 2.700000 0.074983
v 8.074984 2.700000 0.074984
v 7.925016 0.000000 -0.074984
v 7.925017 0.000000 2.000000
v 7.925016 2.700000 -0.074984
v 7.925017 2.700000 2.000000
v 8.074984 0.000000 0.074984
v 8.074985 0.000000 2.000000
v 8.074984 2.700000 0.074984
v 8.074985 2.700000 2.000000
v 7.925016 0.071744 0.074984
v 7.925016 0.000000 0.074984
v 10.000000 0.000000 0.074984
v 10.000000 0.071744 0.074984
v 7.925016 -0.000000 0.089984
v 10.000000 -0.000000 0.089984
v 7.925016 0.054173 0.089984
v 7.925016 0.066598 0.085590
v 10.000000 0.054173 0.089984
v 10.000000 0.066598 0.085590
v 8.074984 0.071744 2.000000
v 8.074984 0.000000 2.000000
v 8.074984 0.000000 -0.074984
v 8.074984 0.071744 -0.074984
v 8.089984 -0.000000 2.000000
v 8.089984 -0.000000 -0.074984
v 8.089984 0.054173 2.000000
v 8.085590 0.066598 2.000000
v 8.089984 0.054173 -0.074984
v 8.085590 0.066598 -0.074984
vn -0.0000 -0.0000 -1.0000
vn -0.0000 -0.0000 1.0000
vn 1.0000 -0.0000 -0.0000
vn -0.0000 1.0000 -0.0000
vn -1.0000 -0.0000 -0.0000
vn -0.0000 0.1691 0.9856
vn -0.0000 0.6665 0.7455
vn -0.0000 0.8997 0.4365
vn 0.9856 0.1691 -0.0000
vn 0.7455 0.6665 -0.0000
vn 0.4365 0.8997 -0.0000
vt 0.159695 0.439507
vt 0.018042 0.439507
vt 0.018042 0.255185
vt 0.159695 0.255185
vt 0.376207 0.210483
vt 0.376207 0.019087
vt 0.512977 0.019087
vt 0.512977 0.210483
vt 0.031153 0.161479
vt 0.031153 0.080478
vt 0.035662 0.080478
vt 0.035662 0.161479
vt 0.030814 0.151078
vt 0.030814 0.089089
vt 0.035294 0.093510
vt 0.035294 0.151019
vt 0.159695 0.439507
vt 0.018042 0.439507
vt 0.018042 0.255185
vt 0.159695 0.255185
vt 0.035330 0.088706
vt 0.035330 0.150695
vt 0.030851 0.150637
vt 0.030851 0.093128
vt 0.035220 0.080478
vt 0.035220 0.161479
vt 0.030711 0.161479
vt 0.030711 0.080478
vt 0.765302 0.617233
vt 0.765302 0.470439
vt 0.766252 0.470439
vt 0.766252 0.617233
vt 0.822959 0.470617
vt 0.822959 0.617233
vt 0.822328 0.617201
vt 0.822328 0.470585
vt 0.821321 0.121023
vt 0.821321 0.125091
vt 0.820471 0.125091
vt 0.820471 0.122020
vt 0.820720 0.121315
vt 0.761253 0.617233
vt 0.761253 0.470439
vt 0.820791 0.088155
vt 0.820791 0.084096
vt 0.821392 0.084387
vt 0.821641 0.085090
vt 0.821641 0.088155
vt 0.765302 0.470439
vt 0.766252 0.470439
vt 0.822328 0.617208
vt 0.822328 0.470592
vt 0.822959 0.470560
vt 0.822959 0.617176
vt 0.821641 0.101392
vt 0.821641 0.105450
vt 0.820790 0.105450
vt 0.820790 0.102386
vt 0.821039 0.101683
vt 0.761253 0.470439
vt 0.820471 0.142396
vt 0.820471 0.138328
vt 0.821072 0.138620
vt 0.821321 0.139324
vt 0.821321 0.142396
s 0
usemtl Textures1024px
f 1/1/1 2/2/1 4/3/1 3/4/1
f 5/5/2 7/6/2 8/7/2 6/8/2
f 1/9/3 3/10/3 7/11/3 5/12/3
f 3/13/4 4/14/4 8/15/4 7/16/4
f 9/17/5 10/18/5 12/19/5 11/20/5
f 13/5/3 15/6/3 16/7/3 14/8/3
f 11/21/4 12/22/4 16/23/4 15/24/4
f 12/25/2 10/26/2 14/27/2 16/28/2
s 1
f 23/29/6 25/30/6 26/31/7 24/32/7
f 24/33/7 26/34/7 20/35/8 17/36/8
f 17/37/5 18/38/5 21/39/5 23/40/5 24/41/5
f 25/30/6 23/29/6 21/42/2 22/43/2
f 19/44/3 20/45/3 26/46/3 25/47/3 22/48/3
f 33/29/9 35/49/9 36/50/10 34/32/10
f 34/51/10 36/52/10 30/53/11 27/54/11
f 27/55/2 28/56/2 31/57/2 33/58/2 34/59/2
f 35/49/9 33/29/9 31/42/3 32/60/3
f 29/61/1 30/62/1 36/63/1 35/64/1 32/65/1
