# Blender 5.1.2
# www.blender.org
mtllib Door02.mtl
o Door02
v -6.508808 2.092370 0.000000
v -5.487601 2.092370 0.000000
v -5.998205 2.092370 0.000000
v -6.515317 1.049833 0.000000
v -5.481092 1.049833 0.000000
v -5.866105 1.204098 0.007721
v -5.614159 1.204098 0.007721
v -5.618742 1.938105 0.007721
v -5.866105 1.938105 0.007721
v -6.382250 1.204098 0.007721
v -6.130305 1.204098 0.007721
v -6.130305 1.938105 0.007721
v -6.377667 1.938105 0.007721
v -6.388760 0.161562 0.007721
v -6.130305 0.161562 0.007721
v -6.130305 0.895569 0.007721
v -6.384177 0.895569 0.007721
v -5.866105 0.161562 0.007721
v -5.607650 0.161562 0.007721
v -5.612233 0.895569 0.007721
v -5.866105 0.895569 0.007721
v -5.998205 2.092370 0.030000
v -6.508808 2.092370 0.030000
v -5.998205 0.000084 0.030000
v -6.521826 0.000000 0.030000
v -6.515317 1.049833 0.030000
v -5.481092 1.049833 0.030000
v -5.487601 2.092370 0.030000
v -5.474583 0.000084 0.030000
v -5.998205 1.049833 0.030000
v -5.525619 1.115092 0.030000
v -5.954087 1.115092 0.030000
v -5.954087 2.027111 0.030000
v -5.531313 2.027111 0.030000
v -6.042323 1.115092 0.030000
v -6.470790 1.115092 0.030000
v -6.465096 2.027111 0.030000
v -6.042323 2.027111 0.030000
v -6.042323 0.072556 0.030000
v -6.477300 0.072556 0.030000
v -6.471605 0.984574 0.030000
v -6.042323 0.984574 0.030000
v -5.519110 0.072556 0.030000
v -5.954087 0.072556 0.030000
v -5.954087 0.984574 0.030000
v -5.524805 0.984574 0.030000
v -6.521826 0.000000 0.000000
v -5.474583 0.000084 0.000000
v -5.998205 0.000084 0.000000
v -5.998205 2.092370 -0.030000
v -6.508808 2.092370 -0.030000
v -5.998205 0.000084 -0.030000
v -6.521826 0.000000 -0.030000
v -6.515317 1.049833 -0.030000
v -5.481092 1.049833 -0.030000
v -5.487601 2.092370 -0.030000
v -5.474583 0.000084 -0.030000
v -5.998205 1.049833 -0.030000
v -5.525619 1.115092 -0.030000
v -5.954087 1.115092 -0.030000
v -5.954087 2.027111 -0.030000
v -5.531313 2.027111 -0.030000
v -6.042323 1.115092 -0.030000
v -6.470790 1.115092 -0.030000
v -6.465096 2.027111 -0.030000
v -6.042323 2.027111 -0.030000
v -6.042323 0.072556 -0.030000
v -6.477300 0.072556 -0.030000
v -6.471605 0.984574 -0.030000
v -6.042323 0.984574 -0.030000
v -5.519110 0.072556 -0.030000
v -5.954087 0.072556 -0.030000
v -5.954087 0.984574 -0.030000
v -5.524805 0.984574 -0.030000
v -5.614159 1.204098 -0.013564
v -5.866105 1.204098 -0.013564
v -5.866105 1.938105 -0.013564
v -5.618742 1.938105 -0.013564
v -6.130305 1.204098 -0.013564
v -6.382250 1.204098 -0.013564
v -6.377667 1.938105 -0.013564
v -6.130305 1.938105 -0.013564
v -6.130305 0.161562 -0.013564
v -6.388760 0.161562 -0.013564
v -6.384177 0.895569 -0.013564
v -6.130305 0.895569 -0.013564
v -5.607650 0.161562 -0.013564
v -5.866105 0.161562 -0.013564
v -5.866105 0.895569 -0.013564
v -5.612233 0.895569 -0.013564
v -5.525619 1.115092 0.000000
v -5.954087 1.115092 0.000000
v -5.954087 2.027111 0.000000
v -5.531313 2.027111 0.000000
v -6.042323 1.115092 0.000000
v -6.470790 1.115092 0.000000
v -6.465096 2.027111 0.000000
v -6.042323 2.027111 0.000000
v -6.042323 0.072556 0.000000
v -6.477300 0.072556 0.000000
v -6.471605 0.984574 0.000000
v -6.042323 0.984574 0.000000
v -5.519110 0.072556 0.000000
v -5.954087 0.072556 0.000000
v -5.954087 0.984574 0.000000
v -5.524805 0.984574 0.000000
v -5.525619 1.115092 -0.006626
v -5.954087 1.115092 -0.006626
v -5.954087 2.027111 -0.006626
v -5.531313 2.027111 -0.006626
v -6.042323 1.115092 -0.006626
v -6.470790 1.115092 -0.006626
v -6.465096 2.027111 -0.006626
v -6.042323 2.027111 -0.006626
v -6.042323 0.072556 -0.006626
v -6.477300 0.072556 -0.006626
v -6.471605 0.984574 -0.006626
v -6.042323 0.984574 -0.006626
v -5.519110 0.072556 -0.006626
v -5.954087 0.072556 -0.006626
v -5.954087 0.984574 -0.006626
v -5.524805 0.984574 -0.006626
v -5.602023 1.191898 0.000000
v -5.878164 1.191898 0.000000
v -5.878164 1.950305 0.000000
v -5.606759 1.950305 0.000000
v -6.118246 1.191898 0.000000
v -6.394386 1.191898 0.000000
v -6.389651 1.950305 0.000000
v -6.118246 1.950305 0.000000
v -6.118246 0.149362 0.000000
v -6.400896 0.149362 0.000000
v -6.396160 0.907768 0.000000
v -6.118246 0.907768 0.000000
v -5.595514 0.149362 0.000000
v -5.878164 0.149362 0.000000
v -5.878164 0.907768 0.000000
v -5.600249 0.907768 0.000000
v -5.602023 1.191898 -0.006626
v -5.878164 1.191898 -0.006626
v -5.878164 1.950305 -0.006626
v -5.606759 1.950305 -0.006626
v -6.118246 1.191898 -0.006626
v -6.394386 1.191898 -0.006626
v -6.389651 1.950305 -0.006626
v -6.118246 1.950305 -0.006626
v -6.118246 0.149362 -0.006626
v -6.400896 0.149362 -0.006626
v -6.396160 0.907768 -0.006626
v -6.118246 0.907768 -0.006626
v -5.595514 0.149362 -0.006626
v -5.878164 0.149362 -0.006626
v -5.878164 0.907768 -0.006626
v -5.600249 0.907768 -0.006626
v -5.545522 1.079074 0.034788
v -5.545522 1.090071 0.099739
v -5.530459 1.072835 0.034788
v -5.522683 1.080611 0.099739
v -5.524220 1.057773 0.034788
v -5.513223 1.057773 0.099739
v -5.530459 1.042711 0.034788
v -5.522683 1.034934 0.099739
v -5.545522 1.036471 0.034788
v -5.545522 1.025474 0.099739
v -5.560584 1.042711 0.034788
v -5.568360 1.034934 0.099739
v -5.566823 1.057773 0.034788
v -5.577820 1.057773 0.099739
v -5.560584 1.072835 0.034788
v -5.568360 1.080611 0.099739
v -5.545522 1.063361 0.043564
v -5.541571 1.061724 0.043564
v -5.539934 1.057773 0.043564
v -5.541571 1.053822 0.043564
v -5.545522 1.052185 0.043564
v -5.549473 1.053822 0.043564
v -5.551110 1.057773 0.043564
v -5.549473 1.061724 0.043564
v -5.545522 1.085398 0.088770
v -5.545522 1.065965 0.078556
v -5.539729 1.063566 0.078556
v -5.525988 1.077307 0.088770
v -5.537329 1.057773 0.078556
v -5.517896 1.057773 0.088770
v -5.539729 1.051980 0.078556
v -5.525988 1.038239 0.088770
v -5.545522 1.049580 0.078556
v -5.545522 1.030147 0.088770
v -5.551314 1.051980 0.078556
v -5.565056 1.038239 0.088770
v -5.553714 1.057773 0.078556
v -5.573147 1.057773 0.088770
v -5.551314 1.063566 0.078556
v -5.565056 1.077307 0.088770
v -5.545522 1.079074 0.030000
v -5.530459 1.072835 0.030000
v -5.524220 1.057773 0.030000
v -5.530459 1.042711 0.030000
v -5.545522 1.036471 0.030000
v -5.560584 1.042711 0.030000
v -5.566823 1.057773 0.030000
v -5.560584 1.072835 0.030000
v -5.545522 1.079074 -0.034788
v -5.545522 1.090071 -0.099739
v -5.530459 1.072835 -0.034788
v -5.522683 1.080611 -0.099739
v -5.524220 1.057773 -0.034788
v -5.513223 1.057773 -0.099739
v -5.530459 1.042711 -0.034788
v -5.522683 1.034934 -0.099739
v -5.545522 1.036471 -0.034788
v -5.545522 1.025474 -0.099739
v -5.560584 1.042711 -0.034788
v -5.568360 1.034934 -0.099739
v -5.566823 1.057773 -0.034788
v -5.577820 1.057773 -0.099739
v -5.560584 1.072835 -0.034788
v -5.568360 1.080611 -0.099739
v -5.545522 1.063361 -0.043564
v -5.541571 1.061724 -0.043564
v -5.539934 1.057773 -0.043564
v -5.541571 1.053822 -0.043564
v -5.545522 1.052185 -0.043564
v -5.549473 1.053822 -0.043564
v -5.551110 1.057773 -0.043564
v -5.549473 1.061724 -0.043564
v -5.545522 1.085398 -0.088770
v -5.545522 1.065965 -0.078556
v -5.539729 1.063566 -0.078556
v -5.525988 1.077307 -0.088770
v -5.537329 1.057773 -0.078556
v -5.517896 1.057773 -0.088770
v -5.539729 1.051980 -0.078556
v -5.525988 1.038239 -0.088770
v -5.545522 1.049580 -0.078556
v -5.545522 1.030147 -0.088770
v -5.551314 1.051980 -0.078556
v -5.565056 1.038239 -0.088770
v -5.553714 1.057773 -0.078556
v -5.573147 1.057773 -0.088770
v -5.551314 1.063566 -0.078556
v -5.565056 1.077307 -0.088770
v -5.545522 1.079074 -0.030000
v -5.530459 1.072835 -0.030000
v -5.524220 1.057773 -0.030000
v -5.530459 1.042711 -0.030000
v -5.545522 1.036471 -0.030000
v -5.560584 1.042711 -0.030000
v -5.566823 1.057773 -0.030000
v -5.560584 1.072835 -0.030000
vn -0.0000 1.0000 -0.0000
vn -1.0000 -0.0000 -0.0000
vn -0.0000 -1.0000 -0.0000
vn 1.0000 -0.0000 -0.0000
vn 1.0000 0.0062 -0.0000
vn 1.0000 -0.0062 -0.0000
vn -1.0000 -0.0062 -0.0000
vn -1.0000 0.0062 -0.0000
vn -0.0000 -0.0000 1.0000
vn 0.0002 -1.0000 -0.0000
vn -0.0000 -0.0000 -1.0000
vn -0.0000 -0.5348 0.8450
vn -0.5392 -0.0000 0.8422
vn 0.5392 0.0034 0.8422
vn -0.0000 0.5348 0.8450
vn -0.5392 0.0034 0.8422
vn 0.5392 -0.0000 0.8422
vn -0.0000 -0.4944 -0.8692
vn -0.4987 -0.0000 -0.8668
vn 0.4987 0.0031 -0.8668
vn -0.0000 0.4944 -0.8692
vn -0.4987 0.0031 -0.8668
vn 0.4987 -0.0000 -0.8668
vn 0.3827 -0.9239 -0.0000
vn -0.1980 0.4779 0.8558
vn -0.4780 0.1980 0.8558
vn -0.4780 -0.1980 0.8558
vn -0.1980 -0.4780 0.8558
vn 0.1980 -0.4780 0.8558
vn 0.4780 -0.1980 0.8558
vn 0.4780 0.1980 0.8558
vn 0.1980 0.4780 0.8558
vn -0.1892 0.4568 -0.8692
vn -0.4568 0.1892 -0.8692
vn -0.4568 -0.1892 -0.8692
vn -0.1892 -0.4568 -0.8692
vn 0.1892 -0.4568 -0.8692
vn 0.4568 -0.1892 -0.8692
vn 0.4568 0.1892 -0.8692
vn 0.1892 0.4568 -0.8692
vn -0.3561 0.8597 -0.3662
vn 0.3818 0.9217 -0.0686
vn 0.3561 0.8597 -0.3662
vn -0.3818 0.9217 -0.0686
vn 0.8597 0.3561 -0.3662
vn 0.9217 0.3818 -0.0686
vn 0.8597 -0.3561 -0.3662
vn 0.9217 -0.3818 -0.0686
vn 0.3561 -0.8597 -0.3662
vn 0.3818 -0.9217 -0.0686
vn -0.3561 -0.8597 -0.3662
vn -0.3818 -0.9217 -0.0686
vn -0.8597 -0.3561 -0.3662
vn -0.9217 -0.3818 -0.0686
vn -0.8597 0.3561 -0.3662
vn -0.9217 0.3818 -0.0686
vn -0.9239 0.3827 -0.0000
vn 0.9239 0.3827 -0.0000
vn -0.3827 -0.9239 -0.0000
vn -0.3827 0.9239 -0.0000
vn 0.9239 -0.3827 -0.0000
vn -0.9239 -0.3827 -0.0000
vn 0.3827 0.9239 -0.0000
vn -0.1980 0.4779 -0.8558
vn -0.4780 0.1980 -0.8558
vn -0.4780 -0.1980 -0.8558
vn -0.1980 -0.4780 -0.8558
vn 0.1980 -0.4780 -0.8558
vn 0.4780 -0.1980 -0.8558
vn 0.4780 0.1980 -0.8558
vn 0.1980 0.4780 -0.8558
vn -0.1892 0.4568 0.8692
vn -0.4568 0.1892 0.8692
vn -0.4568 -0.1892 0.8692
vn -0.1892 -0.4568 0.8692
vn 0.1892 -0.4568 0.8692
vn 0.4568 -0.1892 0.8692
vn 0.4568 0.1892 0.8692
vn 0.1892 0.4568 0.8692
vn -0.3561 0.8597 0.3662
vn 0.3818 0.9217 0.0686
vn 0.3561 0.8597 0.3662
vn -0.3818 0.9217 0.0686
vn 0.8597 0.3561 0.3662
vn 0.9217 0.3818 0.0686
vn 0.8597 -0.3561 0.3662
vn 0.9217 -0.3818 0.0686
vn 0.3561 -0.8597 0.3662
vn 0.3818 -0.9217 0.0686
vn -0.3561 -0.8597 0.3662
vn -0.3818 -0.9217 0.0686
vn -0.8597 -0.3561 0.3662
vn -0.9217 -0.3818 0.0686
vn -0.8597 0.3561 0.3662
vn -0.9217 0.3818 0.0686
vt 0.919797 0.162282
vt 0.919797 0.130015
vt 0.920274 0.130015
vt 0.920274 0.162282
vt 0.919797 0.161618
vt 0.919797 0.129834
vt 0.920274 0.129834
vt 0.920274 0.161618
vt 0.919797 0.162282
vt 0.919797 0.130015
vt 0.920274 0.130015
vt 0.920274 0.162282
vt 0.920274 0.129834
vt 0.920274 0.161618
vt 0.193572 0.824592
vt 0.193572 0.892639
vt 0.191392 0.892639
vt 0.191392 0.824592
vt 0.919797 0.129676
vt 0.919797 0.161038
vt 0.917637 0.161038
vt 0.917637 0.129676
vt 0.193446 0.892639
vt 0.193446 0.824592
vt 0.195626 0.824592
vt 0.195626 0.892639
vt 0.735653 0.170457
vt 0.735653 0.091954
vt 0.737897 0.091954
vt 0.737897 0.170457
vt 0.193446 0.892639
vt 0.193446 0.824592
vt 0.195626 0.824592
vt 0.195626 0.892639
vt 0.432015 0.817061
vt 0.432015 0.882436
vt 0.429980 0.882436
vt 0.429980 0.817061
vt 0.917637 0.162282
vt 0.917637 0.130015
vt 0.795598 0.902688
vt 0.795598 0.834898
vt 0.797828 0.834898
vt 0.797828 0.902688
vt 0.735653 0.091955
vt 0.735653 0.170464
vt 0.733410 0.170464
vt 0.733410 0.091955
vt 0.431879 0.880355
vt 0.431879 0.814980
vt 0.433914 0.814980
vt 0.433914 0.880355
vt 0.917637 0.161618
vt 0.917637 0.129834
vt 0.735653 0.013990
vt 0.737897 0.013990
vt 0.586329 0.091963
vt 0.547417 0.091966
vt 0.550767 0.087055
vt 0.583009 0.087052
vt 0.547900 0.013515
vt 0.551190 0.018425
vt 0.586323 0.013511
vt 0.583004 0.018422
vt 0.625243 0.091960
vt 0.589649 0.087052
vt 0.621891 0.087049
vt 0.589643 0.018422
vt 0.624746 0.013508
vt 0.621457 0.018419
vt 0.625739 0.170960
vt 0.586336 0.170957
vt 0.589655 0.165503
vt 0.622388 0.165500
vt 0.589650 0.096873
vt 0.621954 0.096871
vt 0.546933 0.170960
vt 0.550283 0.165506
vt 0.583016 0.165504
vt 0.550706 0.096876
vt 0.583010 0.096874
vt 0.917637 0.161038
vt 0.917637 0.129676
vt 0.193572 0.824592
vt 0.193572 0.892639
vt 0.191392 0.892639
vt 0.191392 0.824592
vt 0.919797 0.129857
vt 0.919797 0.161702
vt 0.917637 0.161702
vt 0.917637 0.129857
vt 0.855226 0.051821
vt 0.855226 0.089432
vt 0.853051 0.089432
vt 0.853051 0.051821
vt 0.855226 0.014210
vt 0.853051 0.014210
vt 0.735653 0.013991
vt 0.733410 0.013991
vt 0.855226 0.053511
vt 0.855226 0.092080
vt 0.853051 0.092080
vt 0.853051 0.053511
vt 0.855226 0.014941
vt 0.853051 0.014941
vt 0.195752 0.824592
vt 0.195752 0.892639
vt 0.921957 0.129676
vt 0.921957 0.161038
vt 0.191266 0.892639
vt 0.191266 0.824592
vt 0.733410 0.170457
vt 0.733410 0.091954
vt 0.191266 0.892639
vt 0.191266 0.824592
vt 0.434051 0.817061
vt 0.434051 0.882436
vt 0.921957 0.130015
vt 0.921957 0.162282
vt 0.793368 0.902688
vt 0.793368 0.834898
vt 0.737897 0.091955
vt 0.737897 0.170464
vt 0.429843 0.880355
vt 0.429843 0.814980
vt 0.921957 0.129834
vt 0.921957 0.161618
vt 0.733410 0.013990
vt 0.586408 0.276625
vt 0.589691 0.271743
vt 0.621570 0.271746
vt 0.624883 0.276628
vt 0.621152 0.203523
vt 0.624405 0.198642
vt 0.589696 0.203521
vt 0.586414 0.198639
vt 0.547933 0.276622
vt 0.551246 0.271740
vt 0.583126 0.271743
vt 0.583131 0.203520
vt 0.551676 0.203518
vt 0.548424 0.198636
vt 0.547442 0.355153
vt 0.550756 0.349726
vt 0.583120 0.349729
vt 0.586402 0.355150
vt 0.583125 0.281506
vt 0.551185 0.281503
vt 0.589684 0.349729
vt 0.622048 0.349732
vt 0.625361 0.355153
vt 0.621630 0.281509
vt 0.589690 0.281507
vt 0.921957 0.161038
vt 0.195752 0.824592
vt 0.195752 0.892639
vt 0.921957 0.129857
vt 0.921957 0.161702
vt 0.857401 0.051821
vt 0.857401 0.089432
vt 0.857401 0.014210
vt 0.737897 0.013991
vt 0.857401 0.053511
vt 0.857401 0.092080
vt 0.857401 0.014941
vt 0.096036 0.766068
vt 0.096378 0.711361
vt 0.114814 0.711361
vt 0.114814 0.766068
vt 0.295008 0.711582
vt 0.313350 0.711582
vt 0.313690 0.766008
vt 0.295008 0.766008
vt 0.431429 0.880355
vt 0.431429 0.814980
vt 0.192964 0.892639
vt 0.192964 0.824592
vt 0.795106 0.902688
vt 0.795106 0.834898
vt 0.192964 0.892639
vt 0.192964 0.824592
vt 0.432465 0.817061
vt 0.432465 0.882436
vt 0.194053 0.824592
vt 0.194053 0.892639
vt 0.194053 0.824592
vt 0.194053 0.892639
vt 0.920274 0.129676
vt 0.920274 0.161038
vt 0.920274 0.129857
vt 0.920274 0.161702
vt 0.295128 0.711482
vt 0.313227 0.711482
vt 0.313227 0.766226
vt 0.294793 0.766226
vt 0.670246 0.760495
vt 0.670246 0.705475
vt 0.688787 0.705475
vt 0.689131 0.760495
vt 0.375814 0.718229
vt 0.376157 0.663295
vt 0.395157 0.663295
vt 0.395157 0.718229
vt 0.435485 0.718509
vt 0.435485 0.662990
vt 0.454687 0.662990
vt 0.455034 0.718509
vt 0.495365 0.663108
vt 0.514467 0.663108
vt 0.514812 0.718339
vt 0.495365 0.718339
vt 0.598416 0.689862
vt 0.617386 0.689862
vt 0.617386 0.744708
vt 0.598074 0.744708
vt 0.293905 0.767136
vt 0.314109 0.767136
vt 0.319664 0.772864
vt 0.288315 0.772864
vt 0.314109 0.710572
vt 0.319664 0.704843
vt 0.294252 0.710572
vt 0.288732 0.704843
vt 0.294114 0.766913
vt 0.314590 0.766913
vt 0.320255 0.772608
vt 0.288485 0.772608
vt 0.314239 0.710678
vt 0.319833 0.704982
vt 0.294114 0.710678
vt 0.288485 0.704982
vt 0.494457 0.719257
vt 0.515725 0.719257
vt 0.521475 0.725036
vt 0.488745 0.725036
vt 0.515369 0.662190
vt 0.521046 0.656411
vt 0.494457 0.662190
vt 0.488745 0.656411
vt 0.597167 0.745619
vt 0.618287 0.745619
vt 0.623960 0.751358
vt 0.591458 0.751358
vt 0.618287 0.688951
vt 0.623960 0.683212
vt 0.597521 0.688951
vt 0.591883 0.683212
vt 0.669342 0.761409
vt 0.690041 0.761409
vt 0.695768 0.767166
vt 0.663651 0.767166
vt 0.669342 0.704560
vt 0.663651 0.698803
vt 0.689686 0.704560
vt 0.695341 0.698803
vt 0.095132 0.766978
vt 0.115713 0.766978
vt 0.121372 0.772702
vt 0.089437 0.772702
vt 0.095485 0.710452
vt 0.089862 0.704727
vt 0.115713 0.710452
vt 0.121372 0.704727
vt 0.374905 0.719142
vt 0.396059 0.719142
vt 0.401742 0.724890
vt 0.369187 0.724890
vt 0.375260 0.662381
vt 0.369613 0.656633
vt 0.396059 0.662381
vt 0.401742 0.656633
vt 0.434573 0.719431
vt 0.455952 0.719431
vt 0.461731 0.725241
vt 0.428830 0.725241
vt 0.434573 0.662067
vt 0.428830 0.656258
vt 0.455593 0.662067
vt 0.461300 0.656258
vt 0.495261 0.665767
vt 0.500278 0.665767
vt 0.503825 0.673310
vt 0.503825 0.683977
vt 0.500278 0.691520
vt 0.495261 0.691520
vt 0.491713 0.683977
vt 0.491713 0.673310
vt 0.491713 0.696808
vt 0.491713 0.703843
vt 0.499701 0.703843
vt 0.496755 0.701248
vt 0.496755 0.699403
vt 0.499701 0.696808
vt 0.497362 0.708818
vt 0.496141 0.702553
vt 0.494053 0.708818
vt 0.495273 0.702553
vt 0.494660 0.701248
vt 0.494660 0.699403
vt 0.494053 0.691833
vt 0.495273 0.698098
vt 0.497362 0.691833
vt 0.496141 0.698098
vt 0.503973 0.672219
vt 0.507007 0.665767
vt 0.508516 0.673514
vt 0.507616 0.675428
vt 0.503973 0.681342
vt 0.507616 0.678133
vt 0.507007 0.687794
vt 0.508516 0.680046
vt 0.511298 0.687794
vt 0.509789 0.680046
vt 0.514332 0.681342
vt 0.510688 0.678133
vt 0.514332 0.672218
vt 0.510688 0.675428
vt 0.511298 0.665767
vt 0.509789 0.673514
vt 0.517420 0.696082
vt 0.515032 0.695770
vt 0.515488 0.688107
vt 0.517809 0.689528
vt 0.504666 0.720486
vt 0.503973 0.705594
vt 0.505242 0.705405
vt 0.505532 0.720357
vt 0.512108 0.689332
vt 0.514430 0.688107
vt 0.514885 0.698730
vt 0.512497 0.698418
vt 0.507860 0.720357
vt 0.507570 0.705405
vt 0.508482 0.705691
vt 0.508482 0.720552
vt 0.514430 0.706393
vt 0.512108 0.704972
vt 0.506153 0.705691
vt 0.506153 0.720552
vt 0.501048 0.693058
vt 0.503370 0.691833
vt 0.503825 0.702456
vt 0.501438 0.702144
vt 0.510117 0.705472
vt 0.510810 0.720363
vt 0.509541 0.720552
vt 0.509251 0.705601
vt 0.503370 0.710119
vt 0.501048 0.708698
vt 0.508629 0.720266
vt 0.508629 0.705405
vt 0.517256 0.686569
vt 0.514935 0.687794
vt 0.514479 0.677171
vt 0.516867 0.677483
vt 0.513596 0.706773
vt 0.514289 0.721664
vt 0.513019 0.721853
vt 0.512730 0.706902
vt 0.514935 0.669508
vt 0.517256 0.670929
vt 0.512108 0.721567
vt 0.512108 0.706706
vt 0.517809 0.705168
vt 0.515488 0.706393
vt 0.506994 0.720486
vt 0.506301 0.705594
vt 0.509621 0.688107
vt 0.511960 0.693082
vt 0.511960 0.700117
vt 0.509621 0.705092
vt 0.506312 0.705092
vt 0.503973 0.700117
vt 0.503973 0.693082
vt 0.506312 0.688107
s 0
usemtl Textures1024px
f 104/1/1 103/2/1 119/3/1 120/4/1
f 96/5/1 95/6/1 111/7/1 112/8/1
f 100/9/1 99/10/1 115/11/1 116/12/1
f 92/5/1 91/6/1 107/13/1 108/14/1
f 102/15/2 99/16/2 39/17/2 42/18/2
f 93/19/3 94/20/3 34/21/3 33/22/3
f 104/23/4 105/24/4 45/25/4 44/26/4
f 98/15/2 95/16/2 35/17/2 38/18/2
f 48/27/5 5/28/5 27/29/5 29/30/5
f 100/31/6 101/32/6 41/33/6 40/34/6
f 94/35/7 91/36/7 31/37/7 34/38/7
f 103/2/1 104/1/1 44/39/1 43/40/1
f 96/41/6 97/42/6 37/43/6 36/44/6
f 4/45/8 47/46/8 25/47/8 26/48/8
f 99/10/1 100/9/1 40/39/1 39/40/1
f 92/49/4 93/50/4 33/51/4 32/52/4
f 95/6/1 96/5/1 36/53/1 35/54/1
f 5/28/5 2/55/5 28/56/5 27/29/5
f 91/6/1 92/5/1 32/53/1 31/54/1
f 30/57/9 27/58/9 31/59/9 32/60/9
f 27/58/9 28/61/9 34/62/9 31/59/9
f 28/61/9 22/63/9 33/64/9 34/62/9
f 22/63/9 30/57/9 32/60/9 33/64/9
f 26/65/9 30/57/9 35/66/9 36/67/9
f 30/57/9 22/63/9 38/68/9 35/66/9
f 22/63/9 23/69/9 37/70/9 38/68/9
f 23/69/9 26/65/9 36/67/9 37/70/9
f 25/71/9 24/72/9 39/73/9 40/74/9
f 24/72/9 30/57/9 42/75/9 39/73/9
f 30/57/9 26/65/9 41/76/9 42/75/9
f 26/65/9 25/71/9 40/74/9 41/76/9
f 24/72/9 29/77/9 43/78/9 44/79/9
f 29/77/9 27/58/9 46/80/9 43/78/9
f 27/58/9 30/57/9 45/81/9 46/80/9
f 30/57/9 24/72/9 44/79/9 45/81/9
f 97/19/3 98/20/3 38/82/3 37/83/3
f 106/84/7 103/85/7 43/86/7 46/87/7
f 101/88/3 102/89/3 42/90/3 41/91/3
f 105/88/3 106/89/3 46/90/3 45/91/3
f 3/92/1 1/93/1 23/94/1 22/95/1
f 2/96/1 3/92/1 22/95/1 28/97/1
f 1/98/8 4/45/8 26/48/8 23/99/8
f 49/100/3 48/101/3 29/102/3 24/103/3
f 47/104/10 49/100/10 24/103/10 25/105/10
f 102/15/2 70/106/2 67/107/2 99/16/2
f 93/19/3 61/108/3 62/109/3 94/20/3
f 104/23/4 72/110/4 73/111/4 105/24/4
f 98/15/2 66/106/2 63/107/2 95/16/2
f 48/27/5 57/112/5 55/113/5 5/28/5
f 100/31/6 68/114/6 69/115/6 101/32/6
f 94/35/7 62/116/7 59/117/7 91/36/7
f 103/2/1 71/118/1 72/119/1 104/1/1
f 96/41/6 64/120/6 65/121/6 97/42/6
f 4/45/8 54/122/8 53/123/8 47/46/8
f 99/10/1 67/118/1 68/119/1 100/9/1
f 92/49/4 60/124/4 61/125/4 93/50/4
f 95/6/1 63/126/1 64/127/1 96/5/1
f 5/28/5 55/113/5 56/128/5 2/55/5
f 91/6/1 59/126/1 60/127/1 92/5/1
f 58/129/11 60/130/11 59/131/11 55/132/11
f 55/132/11 59/131/11 62/133/11 56/134/11
f 56/134/11 62/133/11 61/135/11 50/136/11
f 50/136/11 61/135/11 60/130/11 58/129/11
f 54/137/11 64/138/11 63/139/11 58/129/11
f 58/129/11 63/139/11 66/140/11 50/136/11
f 50/136/11 66/140/11 65/141/11 51/142/11
f 51/142/11 65/141/11 64/138/11 54/137/11
f 53/143/11 68/144/11 67/145/11 52/146/11
f 52/146/11 67/145/11 70/147/11 58/129/11
f 58/129/11 70/147/11 69/148/11 54/137/11
f 54/137/11 69/148/11 68/144/11 53/143/11
f 52/146/11 72/149/11 71/150/11 57/151/11
f 57/151/11 71/150/11 74/152/11 55/132/11
f 55/132/11 74/152/11 73/153/11 58/129/11
f 58/129/11 73/153/11 72/149/11 52/146/11
f 97/19/3 65/108/3 66/154/3 98/20/3
f 106/84/7 74/155/7 71/156/7 103/85/7
f 101/88/3 69/157/3 70/158/3 102/89/3
f 105/88/3 73/157/3 74/158/3 106/89/3
f 3/92/1 50/159/1 51/160/1 1/93/1
f 2/96/1 56/161/1 50/159/1 3/92/1
f 1/98/8 51/162/8 54/122/8 4/45/8
f 49/100/3 52/163/3 57/164/3 48/101/3
f 47/104/10 53/165/10 52/163/10 49/100/10
f 80/166/11 81/167/11 82/168/11 79/169/11
f 12/170/9 13/171/9 10/172/9 11/173/9
f 93/50/4 92/49/4 108/174/4 109/175/4
f 101/32/6 100/31/6 116/176/6 117/177/6
f 97/42/6 96/41/6 112/178/6 113/179/6
f 105/24/4 104/23/4 120/180/4 121/181/4
f 91/36/7 94/35/7 110/182/7 107/183/7
f 99/16/2 102/15/2 118/184/2 115/185/2
f 95/16/2 98/15/2 114/184/2 111/185/2
f 103/85/7 106/84/7 122/186/7 119/187/7
f 94/20/3 93/19/3 109/188/3 110/189/3
f 102/89/3 101/88/3 117/190/3 118/191/3
f 98/20/3 97/19/3 113/188/3 114/189/3
f 106/89/3 105/88/3 121/190/3 122/191/3
f 8/192/9 9/193/9 6/194/9 7/195/9
f 76/196/11 77/197/11 78/198/11 75/199/11
f 84/200/11 85/201/11 86/202/11 83/203/11
f 88/204/11 89/205/11 90/206/11 87/207/11
f 16/208/9 17/209/9 14/210/9 15/211/9
f 20/212/9 21/213/9 18/214/9 19/215/9
f 123/216/9 124/217/9 92/218/9 91/219/9
f 124/217/9 125/220/9 93/221/9 92/218/9
f 126/222/9 123/216/9 91/219/9 94/223/9
f 125/220/9 126/222/9 94/223/9 93/221/9
f 127/224/9 128/225/9 96/226/9 95/227/9
f 128/225/9 129/228/9 97/229/9 96/226/9
f 130/230/9 127/224/9 95/227/9 98/231/9
f 129/228/9 130/230/9 98/231/9 97/229/9
f 131/232/9 132/233/9 100/234/9 99/235/9
f 132/233/9 133/236/9 101/237/9 100/234/9
f 134/238/9 131/232/9 99/235/9 102/239/9
f 133/236/9 134/238/9 102/239/9 101/237/9
f 135/240/9 136/241/9 104/242/9 103/243/9
f 136/241/9 137/244/9 105/245/9 104/242/9
f 138/246/9 135/240/9 103/243/9 106/247/9
f 137/244/9 138/246/9 106/247/9 105/245/9
f 140/248/11 139/249/11 107/250/11 108/251/11
f 141/252/11 140/248/11 108/251/11 109/253/11
f 139/249/11 142/254/11 110/255/11 107/250/11
f 142/254/11 141/252/11 109/253/11 110/255/11
f 144/256/11 143/257/11 111/258/11 112/259/11
f 145/260/11 144/256/11 112/259/11 113/261/11
f 143/257/11 146/262/11 114/263/11 111/258/11
f 146/262/11 145/260/11 113/261/11 114/263/11
f 148/264/11 147/265/11 115/266/11 116/267/11
f 149/268/11 148/264/11 116/267/11 117/269/11
f 147/265/11 150/270/11 118/271/11 115/266/11
f 150/270/11 149/268/11 117/269/11 118/271/11
f 152/272/11 151/273/11 119/274/11 120/275/11
f 153/276/11 152/272/11 120/275/11 121/277/11
f 151/273/11 154/278/11 122/279/11 119/274/11
f 154/278/11 153/276/11 121/277/11 122/279/11
f 7/195/12 6/194/12 124/217/12 123/216/12
f 6/194/13 9/193/13 125/220/13 124/217/13
f 8/192/14 7/195/14 123/216/14 126/222/14
f 9/193/15 8/192/15 126/222/15 125/220/15
f 11/173/12 10/172/12 128/225/12 127/224/12
f 10/172/16 13/171/16 129/228/16 128/225/16
f 12/170/17 11/173/17 127/224/17 130/230/17
f 13/171/15 12/170/15 130/230/15 129/228/15
f 15/211/12 14/210/12 132/233/12 131/232/12
f 14/210/16 17/209/16 133/236/16 132/233/16
f 16/208/17 15/211/17 131/232/17 134/238/17
f 17/209/15 16/208/15 134/238/15 133/236/15
f 19/215/12 18/214/12 136/241/12 135/240/12
f 18/214/13 21/213/13 137/244/13 136/241/13
f 20/212/14 19/215/14 135/240/14 138/246/14
f 21/213/15 20/212/15 138/246/15 137/244/15
f 76/196/18 75/199/18 139/249/18 140/248/18
f 77/197/19 76/196/19 140/248/19 141/252/19
f 75/199/20 78/198/20 142/254/20 139/249/20
f 78/198/21 77/197/21 141/252/21 142/254/21
f 80/166/18 79/169/18 143/257/18 144/256/18
f 81/167/22 80/166/22 144/256/22 145/260/22
f 79/169/23 82/168/23 146/262/23 143/257/23
f 82/168/21 81/167/21 145/260/21 146/262/21
f 84/200/18 83/203/18 147/265/18 148/264/18
f 85/201/22 84/200/22 148/264/22 149/268/22
f 83/203/23 86/202/23 150/270/23 147/265/23
f 86/202/21 85/201/21 149/268/21 150/270/21
f 88/204/18 87/207/18 151/273/18 152/272/18
f 89/205/19 88/204/19 152/272/19 153/276/19
f 87/207/20 90/206/20 154/278/20 151/273/20
f 90/206/21 89/205/21 153/276/21 154/278/21
f 158/280/9 156/281/9 170/282/9 168/283/9 166/284/9 164/285/9 162/286/9 160/287/9
f 161/288/24 163/289/24 199/289/24 198/288/24
f 169/290/25 178/291/25 171/292/25 155/293/25
f 167/294/26 177/295/26 178/291/26 169/290/26
f 165/296/27 176/297/27 177/295/27 167/294/27
f 163/289/28 175/298/28 176/297/28 165/296/28
f 161/288/29 174/299/29 175/298/29 163/289/29
f 159/300/30 173/301/30 174/299/30 161/288/30
f 157/302/31 172/303/31 173/301/31 159/300/31
f 155/293/32 171/292/32 172/303/32 157/302/32
f 194/304/33 179/305/33 180/306/33 193/307/33
f 192/308/34 194/304/34 193/307/34 191/309/34
f 190/310/35 192/308/35 191/309/35 189/311/35
f 188/312/36 190/310/36 189/311/36 187/313/36
f 186/314/37 188/312/37 187/313/37 185/315/37
f 184/316/38 186/314/38 185/315/38 183/317/38
f 182/318/39 184/316/39 183/317/39 181/319/39
f 179/305/40 182/318/40 181/319/40 180/306/40
f 194/320/41 170/321/41 156/322/41 179/323/41
f 171/324/42 180/325/42 181/326/42 172/327/42
f 179/328/43 156/329/43 158/330/43 182/331/43
f 178/332/44 193/333/44 180/334/44 171/335/44
f 182/331/45 158/330/45 160/336/45 184/337/45
f 172/327/46 181/326/46 183/338/46 173/339/46
f 184/340/47 160/341/47 162/342/47 186/343/47
f 173/344/48 183/345/48 185/346/48 174/347/48
f 186/343/49 162/342/49 164/348/49 188/349/49
f 174/347/50 185/346/50 187/350/50 175/351/50
f 188/352/51 164/353/51 166/354/51 190/355/51
f 175/356/52 187/357/52 189/358/52 176/359/52
f 190/355/53 166/354/53 168/360/53 192/361/53
f 176/359/54 189/358/54 191/362/54 177/363/54
f 192/364/55 168/365/55 170/321/55 194/320/55
f 177/366/56 191/367/56 193/333/56 178/332/56
f 195/368/11 196/369/11 197/370/11 198/371/11 199/372/11 200/373/11 201/374/11 202/375/11
f 167/294/57 169/290/57 202/290/57 201/294/57
f 157/302/58 159/300/58 197/300/58 196/302/58
f 163/289/59 165/296/59 200/296/59 199/289/59
f 169/290/60 155/293/60 195/293/60 202/290/60
f 159/300/61 161/288/61 198/288/61 197/300/61
f 165/296/62 167/294/62 201/294/62 200/296/62
f 155/293/63 157/302/63 196/302/63 195/293/63
f 206/280/11 208/287/11 210/286/11 212/285/11 214/284/11 216/283/11 218/282/11 204/281/11
f 209/288/24 246/288/24 247/289/24 211/289/24
f 217/290/64 203/293/64 219/292/64 226/291/64
f 215/294/65 217/290/65 226/291/65 225/295/65
f 213/296/66 215/294/66 225/295/66 224/297/66
f 211/289/67 213/296/67 224/297/67 223/298/67
f 209/288/68 211/289/68 223/298/68 222/299/68
f 207/300/69 209/288/69 222/299/69 221/301/69
f 205/302/70 207/300/70 221/301/70 220/303/70
f 203/293/71 205/302/71 220/303/71 219/292/71
f 242/304/72 241/307/72 228/306/72 227/305/72
f 240/308/73 239/309/73 241/307/73 242/304/73
f 238/310/74 237/311/74 239/309/74 240/308/74
f 236/312/75 235/313/75 237/311/75 238/310/75
f 234/314/76 233/315/76 235/313/76 236/312/76
f 232/316/77 231/317/77 233/315/77 234/314/77
f 230/318/78 229/319/78 231/317/78 232/316/78
f 227/305/79 228/306/79 229/319/79 230/318/79
f 242/320/80 227/323/80 204/322/80 218/321/80
f 219/324/81 220/327/81 229/326/81 228/325/81
f 227/328/82 230/331/82 206/330/82 204/329/82
f 226/332/83 219/335/83 228/334/83 241/333/83
f 230/331/84 232/337/84 208/336/84 206/330/84
f 220/327/85 221/339/85 231/338/85 229/326/85
f 232/340/86 234/343/86 210/342/86 208/341/86
f 221/344/87 222/347/87 233/346/87 231/345/87
f 234/343/88 236/349/88 212/348/88 210/342/88
f 222/347/89 223/351/89 235/350/89 233/346/89
f 236/352/90 238/355/90 214/354/90 212/353/90
f 223/356/91 224/359/91 237/358/91 235/357/91
f 238/355/92 240/361/92 216/360/92 214/354/92
f 224/359/93 225/363/93 239/362/93 237/358/93
f 240/364/94 242/320/94 218/321/94 216/365/94
f 225/366/95 226/332/95 241/333/95 239/367/95
f 243/368/9 250/375/9 249/374/9 248/373/9 247/372/9 246/371/9 245/370/9 244/369/9
f 215/294/57 249/294/57 250/290/57 217/290/57
f 205/302/58 244/302/58 245/300/58 207/300/58
f 211/289/59 247/289/59 248/296/59 213/296/59
f 217/290/60 250/290/60 243/293/60 203/293/60
f 207/300/61 245/300/61 246/288/61 209/288/61
f 213/296/62 248/296/62 249/294/62 215/294/62
f 203/293/63 243/293/63 244/302/63 205/302/63
