# Blender 5.1.2
# www.blender.org
mtllib Door.mtl
o Door
v -6.508808 2.090000 3.000000
v -5.487601 2.090000 3.000000
v -5.998205 2.090000 3.000000
v -6.515317 1.048644 3.000000
v -5.481092 1.048644 3.000000
v -5.866105 1.202835 3.007721
v -5.614160 1.202835 3.007721
v -5.618742 1.935809 3.007721
v -5.866105 1.935809 3.007721
v -6.382250 1.202835 3.007721
v -6.130305 1.202835 3.007721
v -6.130305 1.935809 3.007721
v -6.377668 1.935809 3.007721
v -6.388759 0.161480 3.007721
v -6.130305 0.161480 3.007721
v -6.130305 0.894453 3.007721
v -6.384177 0.894453 3.007721
v -5.866105 0.161480 3.007721
v -5.607651 0.161480 3.007721
v -5.612232 0.894453 3.007721
v -5.866105 0.894453 3.007721
v -5.998205 2.090000 3.030000
v -6.508808 2.090000 3.030000
v -5.998205 0.000084 3.030000
v -6.521826 0.000000 3.030000
v -6.515317 1.048644 3.030000
v -5.481092 1.048644 3.030000
v -5.487601 2.090000 3.030000
v -5.474583 0.000084 3.030000
v -5.998205 1.048644 3.030000
v -5.525619 1.113829 3.030000
v -5.954087 1.113829 3.030000
v -5.954087 2.024815 3.030000
v -5.531313 2.024815 3.030000
v -6.042323 1.113829 3.030000
v -6.470790 1.113829 3.030000
v -6.465096 2.024815 3.030000
v -6.042323 2.024815 3.030000
v -6.042323 0.072474 3.030000
v -6.477300 0.072474 3.030000
v -6.471605 0.983459 3.030000
v -6.042323 0.983459 3.030000
v -5.519110 0.072474 3.030000
v -5.954087 0.072474 3.030000
v -5.954087 0.983459 3.030000
v -5.524805 0.983459 3.030000
v -6.521826 0.000000 3.000000
v -5.474583 0.000084 3.000000
v -5.998205 0.000084 3.000000
v -5.998205 2.090000 2.970000
v -6.508808 2.090000 2.970000
v -5.998205 0.000084 2.970000
v -6.521826 0.000000 2.970000
v -6.515317 1.048644 2.970000
v -5.481092 1.048644 2.970000
v -5.487601 2.090000 2.970000
v -5.474583 0.000084 2.970000
v -5.998205 1.048644 2.970000
v -5.525619 1.113829 2.970000
v -5.954087 1.113829 2.970000
v -5.954087 2.024815 2.970000
v -5.531313 2.024815 2.970000
v -6.042323 1.113829 2.970000
v -6.470790 1.113829 2.970000
v -6.465096 2.024815 2.970000
v -6.042323 2.024815 2.970000
v -6.042323 0.072474 2.970000
v -6.477300 0.072474 2.970000
v -6.471605 0.983459 2.970000
v -6.042323 0.983459 2.970000
v -5.519110 0.072474 2.970000
v -5.954087 0.072474 2.970000
v -5.954087 0.983459 2.970000
v -5.524805 0.983459 2.970000
v -5.614160 1.202835 2.986436
v -5.866105 1.202835 2.986436
v -5.866105 1.935809 2.986436
v -5.618742 1.935809 2.986436
v -6.130305 1.202835 2.986436
v -6.382250 1.202835 2.986436
v -6.377668 1.935809 2.986436
v -6.130305 1.935809 2.986436
v -6.130305 0.161480 2.986436
v -6.388759 0.161480 2.986436
v -6.384177 0.894453 2.986436
v -6.130305 0.894453 2.986436
v -5.607651 0.161480 2.986436
v -5.866105 0.161480 2.986436
v -5.866105 0.894453 2.986436
v -5.612232 0.894453 2.986436
v -5.525619 1.113829 3.000000
v -5.954087 1.113829 3.000000
v -5.954087 2.024815 3.000000
v -5.531313 2.024815 3.000000
v -6.042323 1.113829 3.000000
v -6.470790 1.113829 3.000000
v -6.465096 2.024815 3.000000
v -6.042323 2.024815 3.000000
v -6.042323 0.072474 3.000000
v -6.477300 0.072474 3.000000
v -6.471605 0.983459 3.000000
v -6.042323 0.983459 3.000000
v -5.519110 0.072474 3.000000
v -5.954087 0.072474 3.000000
v -5.954087 0.983459 3.000000
v -5.524805 0.983459 3.000000
v -5.525619 1.113829 2.993374
v -5.954087 1.113829 2.993374
v -5.954087 2.024815 2.993374
v -5.531313 2.024815 2.993374
v -6.042323 1.113829 2.993374
v -6.470790 1.113829 2.993374
v -6.465096 2.024815 2.993374
v -6.042323 2.024815 2.993374
v -6.042323 0.072474 2.993374
v -6.477300 0.072474 2.993374
v -6.471605 0.983459 2.993374
v -6.042323 0.983459 2.993374
v -5.519110 0.072474 2.993374
v -5.954087 0.072474 2.993374
v -5.954087 0.983459 2.993374
v -5.524805 0.983459 2.993374
v -5.602024 1.190635 3.000000
v -5.878164 1.190635 3.000000
v -5.878164 1.948009 3.000000
v -5.606758 1.948009 3.000000
v -6.118246 1.190635 3.000000
v -6.394386 1.190635 3.000000
v -6.389651 1.948009 3.000000
v -6.118246 1.948009 3.000000
v -6.118246 0.149280 3.000000
v -6.400895 0.149280 3.000000
v -6.396161 0.906653 3.000000
v -6.118246 0.906653 3.000000
v -5.595515 0.149280 3.000000
v -5.878164 0.149280 3.000000
v -5.878164 0.906653 3.000000
v -5.600249 0.906653 3.000000
v -5.602024 1.190635 2.993374
v -5.878164 1.190635 2.993374
v -5.878164 1.948009 2.993374
v -5.606758 1.948009 2.993374
v -6.118246 1.190635 2.993374
v -6.394386 1.190635 2.993374
v -6.389651 1.948009 2.993374
v -6.118246 1.948009 2.993374
v -6.118246 0.149280 2.993374
v -6.400895 0.149280 2.993374
v -6.396161 0.906653 2.993374
v -6.118246 0.906653 2.993374
v -5.595515 0.149280 2.993374
v -5.878164 0.149280 2.993374
v -5.878164 0.906653 2.993374
v -5.600249 0.906653 2.993374
v -5.553624 1.073531 3.034788
v -5.553624 1.084528 3.099739
v -5.538561 1.067292 3.034788
v -5.530785 1.075068 3.099739
v -5.532322 1.052229 3.034788
v -5.521325 1.052229 3.099739
v -5.538561 1.037167 3.034788
v -5.530785 1.029391 3.099739
v -5.553624 1.030928 3.034788
v -5.553624 1.019931 3.099739
v -5.568686 1.037167 3.034788
v -5.576462 1.029391 3.099739
v -5.574925 1.052229 3.034788
v -5.585922 1.052229 3.099739
v -5.568686 1.067292 3.034788
v -5.576462 1.075068 3.099739
v -5.553624 1.057817 3.043564
v -5.549672 1.056181 3.043564
v -5.548036 1.052229 3.043564
v -5.549672 1.048278 3.043564
v -5.553624 1.046641 3.043564
v -5.557575 1.048278 3.043564
v -5.559212 1.052229 3.043564
v -5.557575 1.056181 3.043564
v -5.553624 1.079855 3.088770
v -5.553624 1.060422 3.078556
v -5.547831 1.058022 3.078556
v -5.534090 1.071763 3.088770
v -5.545431 1.052229 3.078556
v -5.525998 1.052229 3.088770
v -5.547831 1.046436 3.078556
v -5.534090 1.032695 3.088770
v -5.553624 1.044037 3.078556
v -5.553624 1.024604 3.088770
v -5.559416 1.046436 3.078556
v -5.573158 1.032695 3.088770
v -5.561816 1.052229 3.078556
v -5.581249 1.052229 3.088770
v -5.559416 1.058022 3.078556
v -5.573158 1.071763 3.088770
v -5.553624 1.073531 3.030000
v -5.538561 1.067292 3.030000
v -5.532322 1.052229 3.030000
v -5.538561 1.037167 3.030000
v -5.553624 1.030928 3.030000
v -5.568686 1.037167 3.030000
v -5.574925 1.052229 3.030000
v -5.568686 1.067292 3.030000
v -5.553624 1.073531 2.965212
v -5.553624 1.084528 2.900261
v -5.538561 1.067292 2.965212
v -5.530785 1.075068 2.900261
v -5.532322 1.052229 2.965212
v -5.521325 1.052229 2.900261
v -5.538561 1.037167 2.965212
v -5.530785 1.029391 2.900261
v -5.553624 1.030928 2.965212
v -5.553624 1.019931 2.900261
v -5.568686 1.037167 2.965212
v -5.576462 1.029391 2.900261
v -5.574925 1.052229 2.965212
v -5.585922 1.052229 2.900261
v -5.568686 1.067292 2.965212
v -5.576462 1.075068 2.900261
v -5.553624 1.057817 2.956436
v -5.549672 1.056181 2.956436
v -5.548036 1.052229 2.956436
v -5.549672 1.048278 2.956436
v -5.553624 1.046641 2.956436
v -5.557575 1.048278 2.956436
v -5.559212 1.052229 2.956436
v -5.557575 1.056181 2.956436
v -5.553624 1.079855 2.911230
v -5.553624 1.060422 2.921444
v -5.547831 1.058022 2.921444
v -5.534090 1.071763 2.911230
v -5.545431 1.052229 2.921444
v -5.525998 1.052229 2.911230
v -5.547831 1.046436 2.921444
v -5.534090 1.032695 2.911230
v -5.553624 1.044037 2.921444
v -5.553624 1.024604 2.911230
v -5.559416 1.046436 2.921444
v -5.573158 1.032695 2.911230
v -5.561816 1.052229 2.921444
v -5.581249 1.052229 2.911230
v -5.559416 1.058022 2.921444
v -5.573158 1.071763 2.911230
v -5.553624 1.073531 2.970000
v -5.538561 1.067292 2.970000
v -5.532322 1.052229 2.970000
v -5.538561 1.037167 2.970000
v -5.553624 1.030928 2.970000
v -5.568686 1.037167 2.970000
v -5.574925 1.052229 2.970000
v -5.568686 1.067292 2.970000
vn -0.0000 1.0000 -0.0000
vn -1.0000 -0.0000 -0.0000
vn -0.0000 -1.0000 -0.0000
vn 1.0000 -0.0000 -0.0000
vn 1.0000 0.0062 -0.0000
vn 1.0000 -0.0063 -0.0000
vn -1.0000 -0.0063 -0.0000
vn -1.0000 0.0062 -0.0000
vn 1.0000 0.0063 -0.0000
vn -0.0000 -0.0000 1.0000
vn -1.0000 0.0063 -0.0000
vn 0.0002 -1.0000 -0.0000
vn -0.0000 -0.0000 -1.0000
vn -0.0000 -0.5348 0.8450
vn -0.5392 -0.0000 0.8422
vn 0.5392 0.0034 0.8422
vn -0.0000 0.5348 0.8450
vn -0.5392 0.0034 0.8422
vn 0.5392 -0.0000 0.8422
vn -0.0000 -0.4944 -0.8692
vn -0.4987 -0.0000 -0.8668
vn 0.4987 0.0031 -0.8668
vn -0.0000 0.4944 -0.8692
vn -0.4987 0.0031 -0.8668
vn 0.4987 -0.0000 -0.8668
vn 0.3827 -0.9239 -0.0000
vn -0.1980 0.4780 0.8558
vn -0.4780 0.1980 0.8558
vn -0.4780 -0.1980 0.8558
vn -0.1980 -0.4780 0.8558
vn 0.1980 -0.4780 0.8558
vn 0.4780 -0.1980 0.8558
vn 0.4780 0.1980 0.8558
vn 0.1980 0.4780 0.8558
vn -0.1892 0.4568 -0.8692
vn -0.4568 0.1892 -0.8692
vn -0.4568 -0.1892 -0.8692
vn -0.1892 -0.4568 -0.8692
vn 0.1892 -0.4568 -0.8692
vn 0.4568 -0.1892 -0.8692
vn 0.4568 0.1892 -0.8692
vn 0.1892 0.4568 -0.8692
vn -0.3561 0.8597 -0.3662
vn 0.3818 0.9217 -0.0686
vn 0.3561 0.8597 -0.3662
vn -0.3818 0.9217 -0.0686
vn 0.8597 0.3561 -0.3662
vn 0.9217 0.3818 -0.0686
vn 0.8597 -0.3561 -0.3662
vn 0.9217 -0.3818 -0.0686
vn 0.3561 -0.8597 -0.3662
vn 0.3818 -0.9217 -0.0686
vn -0.3561 -0.8597 -0.3662
vn -0.3818 -0.9217 -0.0686
vn -0.8597 -0.3561 -0.3662
vn -0.9217 -0.3818 -0.0686
vn -0.8597 0.3561 -0.3662
vn -0.9217 0.3818 -0.0686
vn -0.9239 0.3827 -0.0000
vn 0.9239 0.3827 -0.0000
vn -0.3827 -0.9239 -0.0000
vn -0.3827 0.9239 -0.0000
vn 0.9239 -0.3827 -0.0000
vn -0.9239 -0.3827 -0.0000
vn 0.3827 0.9239 -0.0000
vn -0.1980 0.4780 -0.8558
vn -0.4780 0.1980 -0.8558
vn -0.4780 -0.1980 -0.8558
vn -0.1980 -0.4780 -0.8558
vn 0.1980 -0.4780 -0.8558
vn 0.4780 -0.1980 -0.8558
vn 0.4780 0.1980 -0.8558
vn 0.1980 0.4780 -0.8558
vn -0.1892 0.4568 0.8692
vn -0.4568 0.1892 0.8692
vn -0.4568 -0.1892 0.8692
vn -0.1892 -0.4568 0.8692
vn 0.1892 -0.4568 0.8692
vn 0.4568 -0.1892 0.8692
vn 0.4568 0.1892 0.8692
vn 0.1892 0.4568 0.8692
vn -0.3561 0.8597 0.3662
vn 0.3818 0.9217 0.0686
vn 0.3561 0.8597 0.3662
vn -0.3818 0.9217 0.0686
vn 0.8597 0.3561 0.3662
vn 0.9217 0.3818 0.0686
vn 0.8597 -0.3561 0.3662
vn 0.9217 -0.3818 0.0686
vn 0.3561 -0.8597 0.3662
vn 0.3818 -0.9217 0.0686
vn -0.3561 -0.8597 0.3662
vn -0.3818 -0.9217 0.0686
vn -0.8597 -0.3561 0.3662
vn -0.9217 -0.3818 0.0686
vn -0.8597 0.3561 0.3662
vn -0.9217 0.3818 0.0686
vt 0.919171 0.331690
vt 0.919171 0.298907
vt 0.919670 0.298907
vt 0.919670 0.331690
vt 0.290324 0.929233
vt 0.290324 0.896941
vt 0.290823 0.896941
vt 0.290823 0.929233
vt 0.919790 0.162376
vt 0.919790 0.129593
vt 0.920289 0.129593
vt 0.920289 0.162376
vt 0.322730 0.929233
vt 0.322730 0.896941
vt 0.323229 0.896941
vt 0.323229 0.929233
vt 0.160229 0.832303
vt 0.160229 0.900962
vt 0.157968 0.900962
vt 0.157968 0.832303
vt 0.665832 0.904780
vt 0.665832 0.936643
vt 0.663571 0.936643
vt 0.663571 0.904780
vt 0.795577 0.903111
vt 0.795577 0.834452
vt 0.797837 0.834452
vt 0.797837 0.903111
vt 0.047343 0.824149
vt 0.047343 0.892807
vt 0.045082 0.892807
vt 0.045082 0.824149
vt 0.735654 0.355587
vt 0.735654 0.276560
vt 0.737915 0.276560
vt 0.737915 0.355587
vt 0.015781 0.892808
vt 0.015781 0.824149
vt 0.018042 0.824149
vt 0.018042 0.892808
vt 0.400333 0.814249
vt 0.400333 0.882908
vt 0.398071 0.882908
vt 0.398071 0.814249
vt 0.916910 0.331690
vt 0.916910 0.298907
vt 0.431895 0.882908
vt 0.431895 0.814249
vt 0.434156 0.814249
vt 0.434156 0.882908
vt 0.735654 0.092004
vt 0.735654 0.171037
vt 0.733393 0.171037
vt 0.733393 0.092004
vt 0.917529 0.162376
vt 0.917529 0.129593
vt 0.193555 0.892886
vt 0.193555 0.824228
vt 0.195816 0.824228
vt 0.195816 0.892886
vt 0.288063 0.929233
vt 0.288063 0.896941
vt 0.735654 0.198077
vt 0.737915 0.198077
vt 0.320469 0.929233
vt 0.320469 0.896941
vt 0.586301 0.092007
vt 0.547327 0.092010
vt 0.550683 0.087097
vt 0.582975 0.087095
vt 0.547812 0.013526
vt 0.551107 0.018439
vt 0.586294 0.013523
vt 0.582970 0.018436
vt 0.625274 0.092004
vt 0.589625 0.087094
vt 0.621918 0.087091
vt 0.589620 0.018436
vt 0.624777 0.013520
vt 0.621483 0.018433
vt 0.625771 0.171037
vt 0.586307 0.171034
vt 0.589632 0.165578
vt 0.622415 0.165575
vt 0.589626 0.096920
vt 0.621980 0.096917
vt 0.546843 0.171037
vt 0.550199 0.165581
vt 0.582982 0.165579
vt 0.550622 0.096923
vt 0.582976 0.096920
vt 0.091560 0.909143
vt 0.091560 0.941006
vt 0.089299 0.941006
vt 0.089299 0.909143
vt 0.463457 0.814249
vt 0.463457 0.882908
vt 0.461196 0.882908
vt 0.461196 0.814249
vt 0.886621 0.891849
vt 0.886621 0.924203
vt 0.884360 0.924203
vt 0.884360 0.891849
vt 0.918183 0.891849
vt 0.918183 0.924203
vt 0.915922 0.924203
vt 0.915922 0.891849
vt 0.856105 0.229777
vt 0.856105 0.268260
vt 0.853844 0.268260
vt 0.853844 0.229777
vt 0.856105 0.191294
vt 0.853844 0.191294
vt 0.735654 0.013520
vt 0.733393 0.013520
vt 0.855295 0.052984
vt 0.855295 0.092448
vt 0.853034 0.092448
vt 0.853034 0.052984
vt 0.855295 0.013520
vt 0.853034 0.013520
vt 0.162490 0.832303
vt 0.162490 0.900962
vt 0.668093 0.904780
vt 0.668093 0.936643
vt 0.793315 0.903111
vt 0.793315 0.834452
vt 0.049604 0.824149
vt 0.049604 0.892807
vt 0.733393 0.355587
vt 0.733393 0.276560
vt 0.013520 0.892808
vt 0.013520 0.824149
vt 0.402594 0.814249
vt 0.402594 0.882908
vt 0.921432 0.298907
vt 0.921432 0.331690
vt 0.429633 0.882908
vt 0.429633 0.814249
vt 0.737915 0.092004
vt 0.737915 0.171037
vt 0.922051 0.129593
vt 0.922051 0.162376
vt 0.191294 0.892886
vt 0.191294 0.824228
vt 0.292585 0.896941
vt 0.292585 0.929233
vt 0.733393 0.198077
vt 0.324991 0.896941
vt 0.324991 0.929233
vt 0.586313 0.276564
vt 0.589639 0.271652
vt 0.621931 0.271655
vt 0.625287 0.276568
vt 0.621508 0.202996
vt 0.624803 0.198084
vt 0.589644 0.202994
vt 0.586320 0.198080
vt 0.547340 0.276561
vt 0.550696 0.271649
vt 0.582989 0.271651
vt 0.582994 0.202993
vt 0.551131 0.202990
vt 0.547837 0.198077
vt 0.546843 0.355595
vt 0.550199 0.350133
vt 0.582982 0.350135
vt 0.586307 0.355592
vt 0.582988 0.281477
vt 0.550634 0.281474
vt 0.589633 0.350136
vt 0.622416 0.350139
vt 0.625771 0.355595
vt 0.621992 0.281480
vt 0.589638 0.281478
vt 0.093821 0.909143
vt 0.093821 0.941006
vt 0.465718 0.814249
vt 0.465718 0.882908
vt 0.888882 0.891849
vt 0.888882 0.924203
vt 0.920444 0.891849
vt 0.920444 0.924203
vt 0.858366 0.229777
vt 0.858366 0.268260
vt 0.858366 0.191294
vt 0.737915 0.013520
vt 0.857556 0.052984
vt 0.857556 0.092448
vt 0.857556 0.013520
vt 0.095972 0.766341
vt 0.096317 0.711099
vt 0.114960 0.711099
vt 0.114960 0.766341
vt 0.294694 0.711182
vt 0.313337 0.711182
vt 0.313682 0.766424
vt 0.294694 0.766424
vt 0.193056 0.892886
vt 0.193056 0.824228
vt 0.015282 0.892808
vt 0.015282 0.824149
vt 0.431395 0.882908
vt 0.431395 0.814249
vt 0.795077 0.903111
vt 0.795077 0.834452
vt 0.400832 0.814249
vt 0.400832 0.882908
vt 0.160728 0.832303
vt 0.160728 0.900962
vt 0.047842 0.824149
vt 0.047842 0.892807
vt 0.463956 0.814249
vt 0.463956 0.882908
vt 0.666332 0.904780
vt 0.666332 0.936643
vt 0.887120 0.891849
vt 0.887120 0.924203
vt 0.092059 0.909143
vt 0.092059 0.941006
vt 0.918682 0.891849
vt 0.918682 0.924203
vt 0.729922 0.652925
vt 0.748565 0.652925
vt 0.748565 0.708167
vt 0.729577 0.708167
vt 0.670202 0.760645
vt 0.670202 0.705402
vt 0.688845 0.705402
vt 0.689191 0.760645
vt 0.375742 0.718375
vt 0.376087 0.663133
vt 0.395221 0.663133
vt 0.395221 0.718375
vt 0.435523 0.718375
vt 0.435523 0.663133
vt 0.454656 0.663133
vt 0.455002 0.718375
vt 0.495346 0.663133
vt 0.514479 0.663133
vt 0.514825 0.718375
vt 0.495346 0.718375
vt 0.598320 0.689663
vt 0.617453 0.689663
vt 0.617453 0.744905
vt 0.597974 0.744905
vt 0.728662 0.709086
vt 0.749474 0.709086
vt 0.755196 0.714875
vt 0.722904 0.714875
vt 0.749474 0.652005
vt 0.755196 0.646216
vt 0.729019 0.652005
vt 0.723333 0.646216
vt 0.293785 0.767344
vt 0.314597 0.767344
vt 0.320355 0.773132
vt 0.288063 0.773132
vt 0.314240 0.710262
vt 0.319926 0.704474
vt 0.293785 0.710262
vt 0.288063 0.704474
vt 0.494437 0.719295
vt 0.515739 0.719295
vt 0.521498 0.725083
vt 0.488715 0.725083
vt 0.515383 0.662214
vt 0.521069 0.656425
vt 0.494437 0.662214
vt 0.488715 0.656425
vt 0.597060 0.745824
vt 0.618362 0.745824
vt 0.624084 0.751613
vt 0.591301 0.751613
vt 0.618362 0.688743
vt 0.624084 0.682955
vt 0.597417 0.688743
vt 0.591731 0.682955
vt 0.669293 0.761564
vt 0.690105 0.761564
vt 0.695864 0.767353
vt 0.663571 0.767353
vt 0.669293 0.704483
vt 0.663571 0.698694
vt 0.689748 0.704483
vt 0.695434 0.698694
vt 0.095057 0.767260
vt 0.115869 0.767260
vt 0.121591 0.773049
vt 0.089299 0.773049
vt 0.095414 0.710179
vt 0.089728 0.704391
vt 0.115869 0.710179
vt 0.121591 0.704391
vt 0.374827 0.719295
vt 0.396130 0.719295
vt 0.401852 0.725083
vt 0.369069 0.725083
vt 0.375184 0.662214
vt 0.369498 0.656425
vt 0.396130 0.662214
vt 0.401852 0.656425
vt 0.434614 0.719295
vt 0.455916 0.719295
vt 0.461675 0.725083
vt 0.428892 0.725083
vt 0.434614 0.662214
vt 0.428892 0.656425
vt 0.455560 0.662214
vt 0.461246 0.656425
vt 0.495261 0.665767
vt 0.500278 0.665767
vt 0.503825 0.673310
vt 0.503825 0.683977
vt 0.500278 0.691520
vt 0.495261 0.691520
vt 0.491713 0.683977
vt 0.491713 0.673310
vt 0.491713 0.696808
vt 0.491713 0.703843
vt 0.499701 0.703843
vt 0.496755 0.701248
vt 0.496755 0.699403
vt 0.499701 0.696808
vt 0.497362 0.708818
vt 0.496141 0.702553
vt 0.494053 0.708818
vt 0.495273 0.702553
vt 0.494660 0.701248
vt 0.494660 0.699403
vt 0.494053 0.691833
vt 0.495273 0.698098
vt 0.497362 0.691833
vt 0.496141 0.698098
vt 0.503973 0.672219
vt 0.507007 0.665767
vt 0.508516 0.673514
vt 0.507616 0.675428
vt 0.503973 0.681342
vt 0.507616 0.678133
vt 0.507007 0.687794
vt 0.508516 0.680046
vt 0.511298 0.687794
vt 0.509789 0.680046
vt 0.514332 0.681342
vt 0.510688 0.678133
vt 0.514332 0.672218
vt 0.510688 0.675428
vt 0.511298 0.665767
vt 0.509789 0.673514
vt 0.517420 0.696082
vt 0.515032 0.695770
vt 0.515488 0.688107
vt 0.517809 0.689528
vt 0.504666 0.720486
vt 0.503973 0.705594
vt 0.505242 0.705405
vt 0.505532 0.720357
vt 0.512108 0.689332
vt 0.514430 0.688107
vt 0.514885 0.698730
vt 0.512497 0.698418
vt 0.507860 0.720357
vt 0.507570 0.705405
vt 0.508482 0.705691
vt 0.508482 0.720552
vt 0.514430 0.706393
vt 0.512108 0.704972
vt 0.506153 0.705691
vt 0.506153 0.720552
vt 0.501048 0.693058
vt 0.503370 0.691833
vt 0.503825 0.702456
vt 0.501438 0.702144
vt 0.510117 0.705472
vt 0.510810 0.720363
vt 0.509541 0.720552
vt 0.509251 0.705601
vt 0.503370 0.710119
vt 0.501048 0.708698
vt 0.508629 0.720266
vt 0.508629 0.705405
vt 0.517256 0.686569
vt 0.514935 0.687794
vt 0.514479 0.677171
vt 0.516867 0.677483
vt 0.513596 0.706773
vt 0.514289 0.721664
vt 0.513019 0.721853
vt 0.512730 0.706902
vt 0.514935 0.669508
vt 0.517256 0.670929
vt 0.512108 0.721567
vt 0.512108 0.706706
vt 0.517809 0.705168
vt 0.515488 0.706393
vt 0.506994 0.720486
vt 0.506301 0.705594
vt 0.509621 0.688107
vt 0.511960 0.693082
vt 0.511960 0.700117
vt 0.509621 0.705092
vt 0.506312 0.705092
vt 0.503973 0.700117
vt 0.503973 0.693082
vt 0.506312 0.688107
s 0
usemtl Textures1024px
f 104/1/1 103/2/1 119/3/1 120/4/1
f 96/5/1 95/6/1 111/7/1 112/8/1
f 100/9/1 99/10/1 115/11/1 116/12/1
f 92/13/1 91/14/1 107/15/1 108/16/1
f 102/17/2 99/18/2 39/19/2 42/20/2
f 93/21/3 94/22/3 34/23/3 33/24/3
f 104/25/4 105/26/4 45/27/4 44/28/4
f 98/29/2 95/30/2 35/31/2 38/32/2
f 48/33/5 5/34/5 27/35/5 29/36/5
f 100/37/6 101/38/6 41/39/6 40/40/6
f 94/41/7 91/42/7 31/43/7 34/44/7
f 103/2/1 104/1/1 44/45/1 43/46/1
f 96/47/6 97/48/6 37/49/6 36/50/6
f 4/51/8 47/52/8 25/53/8 26/54/8
f 99/10/1 100/9/1 40/55/1 39/56/1
f 92/57/4 93/58/4 33/59/4 32/60/4
f 95/6/1 96/5/1 36/61/1 35/62/1
f 5/34/9 2/63/9 28/64/9 27/35/9
f 91/14/1 92/13/1 32/65/1 31/66/1
f 30/67/10 27/68/10 31/69/10 32/70/10
f 27/68/10 28/71/10 34/72/10 31/69/10
f 28/71/10 22/73/10 33/74/10 34/72/10
f 22/73/10 30/67/10 32/70/10 33/74/10
f 26/75/10 30/67/10 35/76/10 36/77/10
f 30/67/10 22/73/10 38/78/10 35/76/10
f 22/73/10 23/79/10 37/80/10 38/78/10
f 23/79/10 26/75/10 36/77/10 37/80/10
f 25/81/10 24/82/10 39/83/10 40/84/10
f 24/82/10 30/67/10 42/85/10 39/83/10
f 30/67/10 26/75/10 41/86/10 42/85/10
f 26/75/10 25/81/10 40/84/10 41/86/10
f 24/82/10 29/87/10 43/88/10 44/89/10
f 29/87/10 27/68/10 46/90/10 43/88/10
f 27/68/10 30/67/10 45/91/10 46/90/10
f 30/67/10 24/82/10 44/89/10 45/91/10
f 97/92/3 98/93/3 38/94/3 37/95/3
f 106/96/7 103/97/7 43/98/7 46/99/7
f 101/100/3 102/101/3 42/102/3 41/103/3
f 105/104/3 106/105/3 46/106/3 45/107/3
f 3/108/1 1/109/1 23/110/1 22/111/1
f 2/112/1 3/108/1 22/111/1 28/113/1
f 1/114/11 4/51/11 26/54/11 23/115/11
f 49/116/3 48/117/3 29/118/3 24/119/3
f 47/120/12 49/116/12 24/119/12 25/121/12
f 102/17/2 70/122/2 67/123/2 99/18/2
f 93/21/3 61/124/3 62/125/3 94/22/3
f 104/25/4 72/126/4 73/127/4 105/26/4
f 98/29/2 66/128/2 63/129/2 95/30/2
f 48/33/5 57/130/5 55/131/5 5/34/5
f 100/37/6 68/132/6 69/133/6 101/38/6
f 94/41/7 62/134/7 59/135/7 91/42/7
f 103/2/1 71/136/1 72/137/1 104/1/1
f 96/47/6 64/138/6 65/139/6 97/48/6
f 4/51/8 54/140/8 53/141/8 47/52/8
f 99/10/1 67/142/1 68/143/1 100/9/1
f 92/57/4 60/144/4 61/145/4 93/58/4
f 95/6/1 63/146/1 64/147/1 96/5/1
f 5/34/9 55/131/9 56/148/9 2/63/9
f 91/14/1 59/149/1 60/150/1 92/13/1
f 58/151/13 60/152/13 59/153/13 55/154/13
f 55/154/13 59/153/13 62/155/13 56/156/13
f 56/156/13 62/155/13 61/157/13 50/158/13
f 50/158/13 61/157/13 60/152/13 58/151/13
f 54/159/13 64/160/13 63/161/13 58/151/13
f 58/151/13 63/161/13 66/162/13 50/158/13
f 50/158/13 66/162/13 65/163/13 51/164/13
f 51/164/13 65/163/13 64/160/13 54/159/13
f 53/165/13 68/166/13 67/167/13 52/168/13
f 52/168/13 67/167/13 70/169/13 58/151/13
f 58/151/13 70/169/13 69/170/13 54/159/13
f 54/159/13 69/170/13 68/166/13 53/165/13
f 52/168/13 72/171/13 71/172/13 57/173/13
f 57/173/13 71/172/13 74/174/13 55/154/13
f 55/154/13 74/174/13 73/175/13 58/151/13
f 58/151/13 73/175/13 72/171/13 52/168/13
f 97/92/3 65/176/3 66/177/3 98/93/3
f 106/96/7 74/178/7 71/179/7 103/97/7
f 101/100/3 69/180/3 70/181/3 102/101/3
f 105/104/3 73/182/3 74/183/3 106/105/3
f 3/108/1 50/184/1 51/185/1 1/109/1
f 2/112/1 56/186/1 50/184/1 3/108/1
f 1/114/11 51/187/11 54/140/11 4/51/11
f 49/116/3 52/188/3 57/189/3 48/117/3
f 47/120/12 53/190/12 52/188/12 49/116/12
f 80/191/13 81/192/13 82/193/13 79/194/13
f 12/195/10 13/196/10 10/197/10 11/198/10
f 93/58/4 92/57/4 108/199/4 109/200/4
f 101/38/6 100/37/6 116/201/6 117/202/6
f 97/48/6 96/47/6 112/203/6 113/204/6
f 105/26/4 104/25/4 120/205/4 121/206/4
f 91/42/7 94/41/7 110/207/7 107/208/7
f 99/18/2 102/17/2 118/209/2 115/210/2
f 95/30/2 98/29/2 114/211/2 111/212/2
f 103/97/7 106/96/7 122/213/7 119/214/7
f 94/22/3 93/21/3 109/215/3 110/216/3
f 102/101/3 101/100/3 117/217/3 118/218/3
f 98/93/3 97/92/3 113/219/3 114/220/3
f 106/105/3 105/104/3 121/221/3 122/222/3
f 8/223/10 9/224/10 6/225/10 7/226/10
f 76/227/13 77/228/13 78/229/13 75/230/13
f 84/231/13 85/232/13 86/233/13 83/234/13
f 88/235/13 89/236/13 90/237/13 87/238/13
f 16/239/10 17/240/10 14/241/10 15/242/10
f 20/243/10 21/244/10 18/245/10 19/246/10
f 123/247/10 124/248/10 92/249/10 91/250/10
f 124/248/10 125/251/10 93/252/10 92/249/10
f 126/253/10 123/247/10 91/250/10 94/254/10
f 125/251/10 126/253/10 94/254/10 93/252/10
f 127/255/10 128/256/10 96/257/10 95/258/10
f 128/256/10 129/259/10 97/260/10 96/257/10
f 130/261/10 127/255/10 95/258/10 98/262/10
f 129/259/10 130/261/10 98/262/10 97/260/10
f 131/263/10 132/264/10 100/265/10 99/266/10
f 132/264/10 133/267/10 101/268/10 100/265/10
f 134/269/10 131/263/10 99/266/10 102/270/10
f 133/267/10 134/269/10 102/270/10 101/268/10
f 135/271/10 136/272/10 104/273/10 103/274/10
f 136/272/10 137/275/10 105/276/10 104/273/10
f 138/277/10 135/271/10 103/274/10 106/278/10
f 137/275/10 138/277/10 106/278/10 105/276/10
f 140/279/13 139/280/13 107/281/13 108/282/13
f 141/283/13 140/279/13 108/282/13 109/284/13
f 139/280/13 142/285/13 110/286/13 107/281/13
f 142/285/13 141/283/13 109/284/13 110/286/13
f 144/287/13 143/288/13 111/289/13 112/290/13
f 145/291/13 144/287/13 112/290/13 113/292/13
f 143/288/13 146/293/13 114/294/13 111/289/13
f 146/293/13 145/291/13 113/292/13 114/294/13
f 148/295/13 147/296/13 115/297/13 116/298/13
f 149/299/13 148/295/13 116/298/13 117/300/13
f 147/296/13 150/301/13 118/302/13 115/297/13
f 150/301/13 149/299/13 117/300/13 118/302/13
f 152/303/13 151/304/13 119/305/13 120/306/13
f 153/307/13 152/303/13 120/306/13 121/308/13
f 151/304/13 154/309/13 122/310/13 119/305/13
f 154/309/13 153/307/13 121/308/13 122/310/13
f 7/226/14 6/225/14 124/248/14 123/247/14
f 6/225/15 9/224/15 125/251/15 124/248/15
f 8/223/16 7/226/16 123/247/16 126/253/16
f 9/224/17 8/223/17 126/253/17 125/251/17
f 11/198/14 10/197/14 128/256/14 127/255/14
f 10/197/18 13/196/18 129/259/18 128/256/18
f 12/195/19 11/198/19 127/255/19 130/261/19
f 13/196/17 12/195/17 130/261/17 129/259/17
f 15/242/14 14/241/14 132/264/14 131/263/14
f 14/241/18 17/240/18 133/267/18 132/264/18
f 16/239/19 15/242/19 131/263/19 134/269/19
f 17/240/17 16/239/17 134/269/17 133/267/17
f 19/246/14 18/245/14 136/272/14 135/271/14
f 18/245/15 21/244/15 137/275/15 136/272/15
f 20/243/16 19/246/16 135/271/16 138/277/16
f 21/244/17 20/243/17 138/277/17 137/275/17
f 76/227/20 75/230/20 139/280/20 140/279/20
f 77/228/21 76/227/21 140/279/21 141/283/21
f 75/230/22 78/229/22 142/285/22 139/280/22
f 78/229/23 77/228/23 141/283/23 142/285/23
f 80/191/20 79/194/20 143/288/20 144/287/20
f 81/192/24 80/191/24 144/287/24 145/291/24
f 79/194/25 82/193/25 146/293/25 143/288/25
f 82/193/23 81/192/23 145/291/23 146/293/23
f 84/231/20 83/234/20 147/296/20 148/295/20
f 85/232/24 84/231/24 148/295/24 149/299/24
f 83/234/25 86/233/25 150/301/25 147/296/25
f 86/233/23 85/232/23 149/299/23 150/301/23
f 88/235/20 87/238/20 151/304/20 152/303/20
f 89/236/21 88/235/21 152/303/21 153/307/21
f 87/238/22 90/237/22 154/309/22 151/304/22
f 90/237/23 89/236/23 153/307/23 154/309/23
f 158/311/10 156/312/10 170/313/10 168/314/10 166/315/10 164/316/10 162/317/10 160/318/10
f 161/319/26 163/320/26 199/320/26 198/319/26
f 169/321/27 178/322/27 171/323/27 155/324/27
f 167/325/28 177/326/28 178/322/28 169/321/28
f 165/327/29 176/328/29 177/326/29 167/325/29
f 163/320/30 175/329/30 176/328/30 165/327/30
f 161/319/31 174/330/31 175/329/31 163/320/31
f 159/331/32 173/332/32 174/330/32 161/319/32
f 157/333/33 172/334/33 173/332/33 159/331/33
f 155/324/34 171/323/34 172/334/34 157/333/34
f 194/335/35 179/336/35 180/337/35 193/338/35
f 192/339/36 194/335/36 193/338/36 191/340/36
f 190/341/37 192/339/37 191/340/37 189/342/37
f 188/343/38 190/341/38 189/342/38 187/344/38
f 186/345/39 188/343/39 187/344/39 185/346/39
f 184/347/40 186/345/40 185/346/40 183/348/40
f 182/349/41 184/347/41 183/348/41 181/350/41
f 179/336/42 182/349/42 181/350/42 180/337/42
f 194/351/43 170/352/43 156/353/43 179/354/43
f 171/355/44 180/356/44 181/357/44 172/358/44
f 179/359/45 156/360/45 158/361/45 182/362/45
f 178/363/46 193/364/46 180/365/46 171/366/46
f 182/362/47 158/361/47 160/367/47 184/368/47
f 172/358/48 181/357/48 183/369/48 173/370/48
f 184/371/49 160/372/49 162/373/49 186/374/49
f 173/375/50 183/376/50 185/377/50 174/378/50
f 186/374/51 162/373/51 164/379/51 188/380/51
f 174/378/52 185/377/52 187/381/52 175/382/52
f 188/383/53 164/384/53 166/385/53 190/386/53
f 175/387/54 187/388/54 189/389/54 176/390/54
f 190/386/55 166/385/55 168/391/55 192/392/55
f 176/390/56 189/389/56 191/393/56 177/394/56
f 192/395/57 168/396/57 170/352/57 194/351/57
f 177/397/58 191/398/58 193/364/58 178/363/58
f 195/399/13 196/400/13 197/401/13 198/402/13 199/403/13 200/404/13 201/405/13 202/406/13
f 167/325/59 169/321/59 202/321/59 201/325/59
f 157/333/60 159/331/60 197/331/60 196/333/60
f 163/320/61 165/327/61 200/327/61 199/320/61
f 169/321/62 155/324/62 195/324/62 202/321/62
f 159/331/63 161/319/63 198/319/63 197/331/63
f 165/327/64 167/325/64 201/325/64 200/327/64
f 155/324/65 157/333/65 196/333/65 195/324/65
f 206/311/13 208/318/13 210/317/13 212/316/13 214/315/13 216/314/13 218/313/13 204/312/13
f 209/319/26 246/319/26 247/320/26 211/320/26
f 217/321/66 203/324/66 219/323/66 226/322/66
f 215/325/67 217/321/67 226/322/67 225/326/67
f 213/327/68 215/325/68 225/326/68 224/328/68
f 211/320/69 213/327/69 224/328/69 223/329/69
f 209/319/70 211/320/70 223/329/70 222/330/70
f 207/331/71 209/319/71 222/330/71 221/332/71
f 205/333/72 207/331/72 221/332/72 220/334/72
f 203/324/73 205/333/73 220/334/73 219/323/73
f 242/335/74 241/338/74 228/337/74 227/336/74
f 240/339/75 239/340/75 241/338/75 242/335/75
f 238/341/76 237/342/76 239/340/76 240/339/76
f 236/343/77 235/344/77 237/342/77 238/341/77
f 234/345/78 233/346/78 235/344/78 236/343/78
f 232/347/79 231/348/79 233/346/79 234/345/79
f 230/349/80 229/350/80 231/348/80 232/347/80
f 227/336/81 228/337/81 229/350/81 230/349/81
f 242/351/82 227/354/82 204/353/82 218/352/82
f 219/355/83 220/358/83 229/357/83 228/356/83
f 227/359/84 230/362/84 206/361/84 204/360/84
f 226/363/85 219/366/85 228/365/85 241/364/85
f 230/362/86 232/368/86 208/367/86 206/361/86
f 220/358/87 221/370/87 231/369/87 229/357/87
f 232/371/88 234/374/88 210/373/88 208/372/88
f 221/375/89 222/378/89 233/377/89 231/376/89
f 234/374/90 236/380/90 212/379/90 210/373/90
f 222/378/91 223/382/91 235/381/91 233/377/91
f 236/383/92 238/386/92 214/385/92 212/384/92
f 223/387/93 224/390/93 237/389/93 235/388/93
f 238/386/94 240/392/94 216/391/94 214/385/94
f 224/390/95 225/394/95 239/393/95 237/389/95
f 240/395/96 242/351/96 218/352/96 216/396/96
f 225/397/97 226/363/97 241/364/97 239/398/97
f 243/399/10 250/406/10 249/405/10 248/404/10 247/403/10 246/402/10 245/401/10 244/400/10
f 215/325/59 249/325/59 250/321/59 217/321/59
f 205/333/60 244/333/60 245/331/60 207/331/60
f 211/320/61 247/320/61 248/327/61 213/327/61
f 217/321/62 250/321/62 243/324/62 203/324/62
f 207/331/63 245/331/63 246/319/63 209/319/63
f 213/327/64 248/327/64 249/325/64 215/325/64
f 203/324/65 243/324/65 244/333/65 205/333/65
