# Blender 5.1.2
# www.blender.org
mtllib Wall_Basic_IntInt.mtl
o Wall_Basic_IntInt
v -1.000000 0.000000 3.074984
v 1.000000 0.000000 3.074984
v -1.000000 2.700000 3.074984
v 1.000000 2.700000 3.074984
v -1.000000 0.000000 2.925016
v 1.000000 0.000000 2.925016
v -1.000000 2.700000 2.925016
v 1.000000 2.700000 2.925016
v -1.000000 0.071744 3.074984
v -1.000000 0.000000 3.074984
v 1.000000 0.000000 3.074984
v 1.000000 0.071744 3.074984
v -1.000000 -0.000000 3.089984
v 1.000000 -0.000000 3.089984
v -1.000000 0.054173 3.089984
v -1.000000 0.066598 3.085590
v 1.000000 0.054173 3.089984
v 1.000000 0.066598 3.085590
v 1.000000 0.071744 2.925016
v 1.000000 0.000000 2.925016
v -1.000000 0.000000 2.925017
v -1.000000 0.071744 2.925017
v 1.000000 -0.000000 2.910016
v -1.000000 -0.000000 2.910017
v 1.000000 0.054173 2.910016
v 1.000000 0.066598 2.914410
v -1.000000 0.054173 2.910017
v -1.000000 0.066598 2.914410
vn -0.0000 -0.0000 -1.0000
vn -1.0000 -0.0000 -0.0000
vn -0.0000 1.0000 -0.0000
vn 1.0000 -0.0000 -0.0000
vn -0.0000 -0.0000 1.0000
vn -0.0000 0.8475 -0.5308
vn -0.0000 -1.0000 -0.0000
vn -0.0000 0.1691 0.9856
vn -0.0000 0.6665 0.7455
vn -0.0000 0.8475 0.5308
vn -0.0000 0.1691 -0.9856
vn -0.0000 0.6665 -0.7455
vt 0.369112 0.216294
vt 0.369112 0.013526
vt 0.519846 0.013526
vt 0.519846 0.216294
vt 0.652811 0.217011
vt 0.652811 0.013520
vt 0.664114 0.013520
vt 0.664114 0.217011
vt 0.722904 0.619176
vt 0.722904 0.468442
vt 0.734206 0.468442
vt 0.734206 0.619176
vt 0.121591 0.473859
vt 0.121591 0.677351
vt 0.110288 0.677351
vt 0.110288 0.473859
vt 0.369069 0.013520
vt 0.519803 0.013520
vt 0.519803 0.216288
vt 0.369069 0.216288
vt 0.196682 0.735060
vt 0.191294 0.735060
vt 0.191294 0.584325
vt 0.196682 0.584325
vt 0.798155 0.013520
vt 0.798155 0.164254
vt 0.797025 0.164254
vt 0.797025 0.013520
vt 0.765315 0.619176
vt 0.765315 0.468442
vt 0.766276 0.468442
vt 0.766276 0.619176
vt 0.822304 0.619176
vt 0.822304 0.468442
vt 0.823103 0.468442
vt 0.823103 0.619176
vt 0.973861 0.252969
vt 0.973861 0.258377
vt 0.972730 0.258377
vt 0.972730 0.254294
vt 0.973062 0.253357
vt 0.761246 0.619176
vt 0.761246 0.468442
vt 0.973306 0.428718
vt 0.973306 0.423311
vt 0.974105 0.423699
vt 0.974436 0.424635
vt 0.974436 0.428718
vt 0.229110 0.735060
vt 0.223722 0.735060
vt 0.223722 0.584325
vt 0.229110 0.584325
vt 0.793316 0.807412
vt 0.793316 0.656678
vt 0.794446 0.656678
vt 0.794446 0.807412
vt 0.765916 0.013520
vt 0.765916 0.164254
vt 0.764955 0.164254
vt 0.764955 0.013520
vt 0.825195 0.164254
vt 0.825195 0.013520
vt 0.825994 0.013520
vt 0.825994 0.164254
vt 0.974739 0.846292
vt 0.974739 0.851699
vt 0.973608 0.851699
vt 0.973608 0.847616
vt 0.973939 0.846680
vt 0.769985 0.013520
vt 0.769985 0.164254
vt 0.947167 0.959384
vt 0.947167 0.953977
vt 0.947966 0.954365
vt 0.948298 0.955301
vt 0.948298 0.959384
s 0
usemtl Textures1024px
f 5/1/1 7/2/1 8/3/1 6/4/1
f 1/5/2 3/6/2 7/7/2 5/8/2
f 3/9/3 4/10/3 8/11/3 7/12/3
f 4/13/4 2/14/4 6/15/4 8/16/4
f 4/17/5 3/18/5 1/19/5 2/20/5
s 1
f 12/21/6 11/22/1 10/23/1 9/24/6
f 10/25/7 11/26/7 14/27/7 13/28/7
f 15/29/8 17/30/8 18/31/9 16/32/9
f 16/33/9 18/34/9 12/35/6 9/36/6
f 9/37/2 10/38/2 13/39/2 15/40/2 16/41/2
f 17/30/8 15/29/8 13/42/5 14/43/5
f 11/44/4 12/45/4 18/46/4 17/47/4 14/48/4
f 22/49/10 21/50/5 20/51/5 19/52/10
f 20/53/7 21/54/7 24/55/7 23/56/7
f 25/57/11 27/58/11 28/59/12 26/60/12
f 26/61/12 28/62/12 22/63/10 19/64/10
f 19/65/4 20/66/4 23/67/4 25/68/4 26/69/4
f 27/58/11 25/57/11 23/70/1 24/71/1
f 21/72/2 22/73/2 28/74/2 27/75/2 24/76/2
