# Blender 5.1.2
# www.blender.org
mtllib Wall_Corner01_IntExt.mtl
o Wall_Corner01_IntExt
v 2.000000 0.000000 0.074984
v 4.074984 0.000000 0.074984
v 2.000000 2.700000 0.074984
v 4.074984 2.700000 0.074984
v 2.000000 0.000000 -0.074984
v 3.925016 0.000000 -0.074984
v 2.000000 2.700000 -0.074984
v 3.925016 2.700000 -0.074984
v 4.074984 0.000000 0.074984
v 4.074984 0.000000 -2.000000
v 4.074984 2.700000 0.074984
v 4.074984 2.700000 -2.000000
v 3.925016 0.000000 -0.074984
v 3.925016 0.000000 -2.000000
v 3.925016 2.700000 -0.074984
v 3.925016 2.700000 -2.000000
v 2.000000 0.071744 0.074984
v 2.000000 0.000000 0.074984
v 4.074984 0.000000 0.074984
v 4.074984 0.071744 0.074984
v 2.000000 -0.000000 0.089984
v 4.074984 -0.000000 0.089984
v 2.000000 0.054173 0.089984
v 2.000000 0.066598 0.085590
v 4.074984 0.054173 0.089984
v 4.074984 0.066598 0.085590
v 4.074984 0.071744 0.074984
v 4.074984 0.000000 0.074984
v 4.074984 0.000000 -2.000000
v 4.074984 0.071744 -2.000000
v 4.089984 -0.000000 0.074984
v 4.089984 -0.000000 -2.000000
v 4.089984 0.054173 0.074984
v 4.085590 0.066598 0.074984
v 4.089984 0.054173 -2.000000
v 4.085590 0.066598 -2.000000
vn -0.0000 -0.0000 1.0000
vn -0.0000 -0.0000 -1.0000
vn -1.0000 -0.0000 -0.0000
vn -0.0000 1.0000 -0.0000
vn 1.0000 -0.0000 -0.0000
vn -0.0000 0.1691 0.9856
vn -0.0000 0.6665 0.7455
vn -0.0000 0.8997 0.4365
vn 0.9856 0.1691 -0.0000
vn 0.7455 0.6665 -0.0000
vn 0.4365 0.8997 -0.0000
vt 0.519587 0.212112
vt 0.369579 0.212112
vt 0.369579 0.017614
vt 0.519587 0.017614
vt 0.016997 0.440832
vt 0.016997 0.250031
vt 0.160757 0.250031
vt 0.160757 0.440832
vt 0.030988 0.155797
vt 0.030988 0.076227
vt 0.035408 0.076227
vt 0.035408 0.155797
vt 0.035205 0.082323
vt 0.035205 0.143079
vt 0.030814 0.138745
vt 0.030814 0.082380
vt 0.160757 0.250031
vt 0.160757 0.440832
vt 0.030128 0.140784
vt 0.030128 0.080028
vt 0.034519 0.080085
vt 0.034519 0.136450
vt 0.034620 0.075842
vt 0.034620 0.155412
vt 0.030201 0.155412
vt 0.030201 0.075842
vt 0.765326 0.618696
vt 0.765326 0.468930
vt 0.766319 0.468930
vt 0.766319 0.618696
vt 0.823064 0.469623
vt 0.823064 0.618002
vt 0.822343 0.617971
vt 0.822343 0.469592
vt 0.820358 0.117336
vt 0.820358 0.121404
vt 0.819507 0.121404
vt 0.819507 0.118332
vt 0.819756 0.117628
vt 0.761123 0.618696
vt 0.761123 0.468930
vt 0.818826 0.122500
vt 0.818826 0.118446
vt 0.819427 0.118737
vt 0.819676 0.119439
vt 0.819676 0.122500
vt 0.765328 0.469474
vt 0.765328 0.618206
vt 0.766334 0.618206
vt 0.766334 0.469474
vt 0.822343 0.618028
vt 0.822343 0.469649
vt 0.823064 0.469617
vt 0.823064 0.617996
vt 0.819676 0.135737
vt 0.819676 0.139790
vt 0.818825 0.139790
vt 0.818825 0.136729
vt 0.819075 0.136028
vt 0.761068 0.469474
vt 0.761068 0.618206
vt 0.819507 0.138709
vt 0.819507 0.134641
vt 0.820109 0.134933
vt 0.820358 0.135637
vt 0.820358 0.138709
s 0
usemtl Textures1024px
f 1/1/1 2/2/1 4/3/1 3/4/1
f 5/5/2 7/6/2 8/7/2 6/8/2
f 1/9/3 3/10/3 7/11/3 5/12/3
f 3/13/4 4/14/4 8/15/4 7/16/4
f 9/1/5 10/2/5 12/3/5 11/4/5
f 13/5/3 15/6/3 16/17/3 14/18/3
f 11/19/4 12/20/4 16/21/4 15/22/4
f 12/23/2 10/24/2 14/25/2 16/26/2
s 1
f 23/27/6 25/28/6 26/29/7 24/30/7
f 24/31/7 26/32/7 20/33/8 17/34/8
f 17/35/3 18/36/3 21/37/3 23/38/3 24/39/3
f 25/28/6 23/27/6 21/40/1 22/41/1
f 19/42/5 20/43/5 26/44/5 25/45/5 22/46/5
f 33/47/9 35/48/9 36/49/10 34/50/10
f 34/51/10 36/52/10 30/53/11 27/54/11
f 27/55/1 28/56/1 31/57/1 33/58/1 34/59/1
f 35/48/9 33/47/9 31/60/5 32/61/5
f 29/62/2 30/63/2 36/64/2 35/65/2 32/66/2
