# Blender 5.1.2
# www.blender.org
mtllib Wall_Corner01_IntInt.mtl
o Wall_Corner01_IntInt
v 9.000000 0.000000 3.074984
v 11.074984 0.000000 3.074984
v 9.000000 2.700000 3.074984
v 11.074984 2.700000 3.074984
v 9.000000 0.000000 2.925016
v 10.925016 0.000000 2.925016
v 9.000000 2.700000 2.925016
v 10.925016 2.700000 2.925016
v 11.074984 0.000000 3.074984
v 11.074984 0.000000 1.000000
v 11.074984 2.700000 3.074984
v 11.074984 2.700000 1.000000
v 10.925016 0.000000 2.925016
v 10.925016 0.000000 1.000000
v 10.925016 2.700000 2.925016
v 10.925016 2.700000 1.000000
v 9.000000 0.071744 3.074984
v 9.000000 0.000000 3.074984
v 11.074984 0.000000 3.074984
v 11.074984 0.071744 3.074984
v 9.000000 -0.000000 3.089984
v 11.074984 -0.000000 3.089984
v 9.000000 0.054173 3.089984
v 9.000000 0.066598 3.085590
v 11.074984 0.054173 3.089984
v 11.074984 0.066598 3.085590
v 11.074984 0.071744 3.074984
v 11.074984 0.000000 3.074984
v 11.074984 0.000000 1.000000
v 11.074984 0.071744 1.000000
v 11.089984 -0.000000 3.074984
v 11.089984 -0.000000 1.000000
v 11.089984 0.054173 3.074984
v 11.085590 0.066598 3.074984
v 11.089984 0.054173 1.000000
v 11.085590 0.066598 1.000000
v 11.000000 0.071744 2.925016
v 11.000000 0.000000 2.925016
v 9.000000 0.000000 2.925017
v 9.000000 0.071744 2.925017
v 11.000000 -0.000000 2.910016
v 9.000000 -0.000000 2.910017
v 11.000000 0.054173 2.910016
v 11.000000 0.066598 2.914410
v 9.000000 0.054173 2.910017
v 9.000000 0.066598 2.914410
v 10.925016 0.071744 1.000000
v 10.925016 0.000000 1.000000
v 10.925016 0.000000 3.074984
v 10.925016 0.071744 3.074984
v 10.910016 -0.000000 1.000000
v 10.910016 -0.000000 3.074984
v 10.910016 0.054173 1.000000
v 10.914410 0.066598 1.000000
v 10.910016 0.054173 3.074984
v 10.914410 0.066598 3.074984
v 13.000000 0.000000 2.925017
v 10.925016 0.000000 2.925016
v 13.000000 2.700000 2.925017
v 10.925016 2.700000 2.925016
v 13.000000 0.000000 3.074985
v 11.074984 0.000000 3.074984
v 13.000000 2.700000 3.074985
v 11.074984 2.700000 3.074984
v 10.925016 0.000000 2.925016
v 10.925015 0.000000 5.000000
v 10.925016 2.700000 2.925016
v 10.925015 2.700000 5.000000
v 11.074984 0.000000 3.074984
v 11.074984 0.000000 5.000000
v 11.074984 2.700000 3.074984
v 11.074984 2.700000 5.000000
v 13.000000 0.071744 2.925017
v 13.000000 0.000000 2.925017
v 10.925016 0.000000 2.925016
v 10.925016 0.071744 2.925016
v 13.000000 -0.000000 2.910017
v 10.925016 -0.000000 2.910016
v 13.000000 0.054173 2.910017
v 13.000000 0.066598 2.914410
v 10.925016 0.054173 2.910016
v 10.925016 0.066598 2.914410
v 10.925016 0.071744 2.925017
v 10.925016 0.000000 2.925017
v 10.925015 0.000000 5.000000
v 10.925015 0.071744 5.000000
v 10.910016 -0.000000 2.925017
v 10.910016 -0.000000 5.000000
v 10.910016 0.054173 2.925017
v 10.914410 0.066598 2.925017
v 10.910016 0.054173 5.000000
v 10.914409 0.066598 5.000000
v 11.000000 0.071744 3.074984
v 11.000000 0.000000 3.074984
v 13.000000 0.000000 3.074984
v 13.000000 0.071744 3.074984
v 11.000000 -0.000000 3.089984
v 13.000000 -0.000000 3.089984
v 11.000000 0.054173 3.089984
v 11.000000 0.066598 3.085591
v 13.000000 0.054173 3.089984
v 13.000000 0.066598 3.085591
v 11.074984 0.071744 5.000000
v 11.074984 0.000000 5.000000
v 11.074984 0.000000 2.925017
v 11.074984 0.071744 2.925017
v 11.089983 -0.000000 5.000000
v 11.089984 -0.000000 2.925017
v 11.089983 0.054173 5.000000
v 11.085589 0.066598 5.000000
v 11.089984 0.054173 2.925017
v 11.085590 0.066598 2.925017
vn -0.0000 -0.0000 1.0000
vn -0.0000 -0.0000 -1.0000
vn -1.0000 -0.0000 -0.0000
vn -0.0000 1.0000 -0.0000
vn 1.0000 -0.0000 -0.0000
vn -0.0000 0.1691 0.9856
vn -0.0000 0.6665 0.7455
vn -0.0000 0.8997 0.4365
vn 0.9856 0.1691 -0.0000
vn 0.7455 0.6665 -0.0000
vn 0.4365 0.8997 -0.0000
vn -0.0000 0.1691 -0.9856
vn -0.0000 0.6665 -0.7455
vn -0.0000 0.8997 -0.4365
vn -0.9856 0.1691 -0.0000
vn -0.7455 0.6665 -0.0000
vn -0.4365 0.8997 -0.0000
vt 0.518584 0.210907
vt 0.370464 0.210907
vt 0.370464 0.018430
vt 0.518584 0.018430
vt 0.376615 0.210037
vt 0.376615 0.019477
vt 0.512660 0.019477
vt 0.512660 0.210037
vt 0.208593 0.188775
vt 0.208593 0.035900
vt 0.217096 0.035900
vt 0.217096 0.188775
vt 0.030671 0.140626
vt 0.030671 0.082987
vt 0.034837 0.087153
vt 0.034837 0.140626
vt 0.518584 0.210907
vt 0.370464 0.210907
vt 0.370464 0.018430
vt 0.518584 0.018430
vt 0.376615 0.210037
vt 0.035089 0.082511
vt 0.035089 0.141393
vt 0.030833 0.141393
vt 0.030833 0.086767
vt 0.217096 0.188775
vt 0.208593 0.188775
vt 0.765083 0.485002
vt 0.765083 0.602646
vt 0.765799 0.602646
vt 0.765799 0.485002
vt 0.822429 0.602641
vt 0.822429 0.484997
vt 0.823030 0.484997
vt 0.823030 0.602641
vt 0.818728 0.133137
vt 0.818728 0.137199
vt 0.817877 0.137199
vt 0.817877 0.134132
vt 0.818126 0.133428
vt 0.762016 0.485002
vt 0.762016 0.602646
vt 0.818359 0.137874
vt 0.818359 0.133812
vt 0.818960 0.134104
vt 0.819209 0.134807
vt 0.819209 0.137874
vt 0.823030 0.484997
vt 0.823030 0.602641
vt 0.818728 0.133283
vt 0.818728 0.137345
vt 0.817877 0.137345
vt 0.817877 0.134278
vt 0.818126 0.133574
vt 0.818359 0.137779
vt 0.818359 0.133717
vt 0.818960 0.134009
vt 0.819209 0.134712
vt 0.819209 0.137779
vt 0.765083 0.598395
vt 0.765799 0.485002
vt 0.765799 0.598395
vt 0.822429 0.598390
vt 0.823030 0.598390
vt 0.818968 0.134152
vt 0.818968 0.138214
vt 0.818118 0.138214
vt 0.818118 0.135147
vt 0.818367 0.134443
vt 0.762016 0.598395
vt 0.818359 0.137685
vt 0.818359 0.133623
vt 0.818960 0.133914
vt 0.819209 0.134617
vt 0.819209 0.137685
vt 0.765083 0.485002
vt 0.765799 0.602646
vt 0.822429 0.602641
vt 0.823030 0.602641
vt 0.818968 0.133816
vt 0.818968 0.137878
vt 0.818118 0.137878
vt 0.818118 0.134811
vt 0.818367 0.134107
vt 0.818600 0.137831
vt 0.818600 0.133769
vt 0.819201 0.134060
vt 0.819450 0.134764
vt 0.819450 0.137831
vt 0.034766 0.084594
vt 0.034766 0.143477
vt 0.030510 0.139221
vt 0.030510 0.084594
vt 0.030773 0.143094
vt 0.030773 0.084212
vt 0.035029 0.084212
vt 0.035029 0.138839
vt 0.217096 0.035900
vt 0.217096 0.188775
vt 0.208593 0.188775
vt 0.208593 0.035900
vt 0.823030 0.602641
vt 0.822429 0.602641
vt 0.819450 0.133480
vt 0.819450 0.137543
vt 0.818600 0.137543
vt 0.818600 0.134475
vt 0.818849 0.133772
vt 0.818600 0.137977
vt 0.818600 0.133915
vt 0.819201 0.134206
vt 0.819450 0.134910
vt 0.819450 0.137977
vt 0.818728 0.133868
vt 0.818728 0.137930
vt 0.817877 0.137930
vt 0.817877 0.134862
vt 0.818126 0.134159
vt 0.818359 0.138123
vt 0.818359 0.134061
vt 0.818960 0.134352
vt 0.819209 0.135056
vt 0.819209 0.138123
vt 0.819209 0.134014
vt 0.819209 0.138076
vt 0.818359 0.138076
vt 0.818359 0.135009
vt 0.818608 0.134305
vt 0.818359 0.138029
vt 0.818359 0.133966
vt 0.818960 0.134258
vt 0.819210 0.134961
vt 0.819210 0.138029
vt 0.819080 0.133757
vt 0.819080 0.137819
vt 0.818229 0.137819
vt 0.818229 0.134752
vt 0.818478 0.134048
vt 0.762016 0.602646
vt 0.818305 0.137740
vt 0.818305 0.133678
vt 0.818906 0.133970
vt 0.819156 0.134673
vt 0.819156 0.137740
s 0
usemtl Textures1024px
f 1/1/1 2/2/1 4/3/1 3/4/1
f 5/5/2 7/6/2 8/7/2 6/8/2
f 1/9/3 3/10/3 7/11/3 5/12/3
f 3/13/4 4/14/4 8/15/4 7/16/4
f 9/17/5 10/18/5 12/19/5 11/20/5
f 13/21/3 15/6/3 16/7/3 14/8/3
f 11/22/4 12/23/4 16/24/4 15/25/4
f 12/11/2 10/26/2 14/27/2 16/10/2
s 1
f 23/28/6 25/29/6 26/30/7 24/31/7
f 24/32/7 26/33/7 20/34/8 17/35/8
f 17/36/3 18/37/3 21/38/3 23/39/3 24/40/3
f 25/29/6 23/28/6 21/41/1 22/42/1
f 19/43/5 20/44/5 26/45/5 25/46/5 22/47/5
f 33/28/9 35/29/9 36/30/10 34/31/10
f 34/48/10 36/49/10 30/32/11 27/33/11
f 27/50/1 28/51/1 31/52/1 33/53/1 34/54/1
f 35/29/9 33/28/9 31/41/5 32/42/5
f 29/55/2 30/56/2 36/57/2 35/58/2 32/59/2
f 43/60/12 45/28/12 46/61/13 44/62/13
f 44/63/13 46/33/13 40/34/14 37/64/14
f 37/65/5 38/66/5 41/67/5 43/68/5 44/69/5
f 45/28/12 43/60/12 41/70/2 42/41/2
f 39/71/3 40/72/3 46/73/3 45/74/3 42/75/3
f 53/76/15 55/29/15 56/77/16 54/61/16
f 54/78/16 56/33/16 50/34/17 47/79/17
f 47/80/2 48/81/2 51/82/2 53/83/2 54/84/2
f 55/29/15 53/76/15 51/41/3 52/42/3
f 49/85/1 50/86/1 56/87/1 55/88/1 52/89/1
s 0
f 57/17/2 58/18/2 60/19/2 59/20/2
f 61/21/1 63/6/1 64/7/1 62/8/1
f 57/27/5 59/10/5 63/11/5 61/26/5
f 59/90/4 60/91/4 64/92/4 63/93/4
f 65/17/3 66/18/3 68/19/3 67/20/3
f 69/5/5 71/6/5 72/7/5 70/8/5
f 67/94/4 68/95/4 72/96/4 71/97/4
f 68/98/1 66/99/1 70/100/1 72/101/1
s 1
f 79/29/12 81/28/12 82/61/13 80/30/13
f 80/34/13 82/102/13 76/103/14 73/33/14
f 73/104/5 74/105/5 77/106/5 79/107/5 80/108/5
f 81/28/12 79/29/12 77/42/2 78/41/2
f 75/109/3 76/110/3 82/111/3 81/112/3 78/113/3
f 89/29/15 91/28/15 92/31/16 90/30/16
f 90/32/16 92/33/16 86/34/17 83/35/17
f 83/114/2 84/115/2 87/116/2 89/117/2 90/118/2
f 91/28/15 89/29/15 87/42/3 88/41/3
f 85/119/1 86/120/1 92/121/1 91/122/1 88/123/1
f 99/28/6 101/60/6 102/62/7 100/31/7
f 100/63/7 102/33/7 96/48/8 93/64/8
f 93/124/3 94/125/3 97/126/3 99/127/3 100/128/3
f 101/60/6 99/28/6 97/41/1 98/70/1
f 95/129/5 96/130/5 102/131/5 101/132/5 98/133/5
f 109/29/9 111/28/9 112/31/10 110/30/10
f 110/34/10 112/35/10 106/32/11 103/33/11
f 103/134/1 104/135/1 107/136/1 109/137/1 110/138/1
f 111/28/9 109/29/9 107/139/5 108/41/5
f 105/140/2 106/141/2 112/142/2 111/143/2 108/144/2
