# Blender 5.1.2
# www.blender.org
mtllib Wall_Window.mtl
o Wall_Window
v -4.000000 0.000000 0.074984
v -2.000000 0.000000 0.074984
v -4.000000 2.700000 0.074984
v -2.000000 2.700000 0.074984
v -3.428391 1.981488 0.074984
v -3.462591 0.825159 0.176692
v -3.462591 0.896362 0.176692
v -2.571609 1.981488 0.074984
v -3.462591 0.825159 0.074984
v -3.439313 0.917120 0.074984
v -2.560687 0.917120 0.074984
v -2.537409 0.825159 0.074984
v -2.537409 0.825159 0.176692
v -2.537409 0.896362 0.176692
v -2.548758 2.002245 0.074984
v -3.451242 2.002245 0.074984
v -2.537409 0.896362 0.074984
v -3.462591 0.896362 0.074984
v -2.548758 2.002245 0.100837
v -3.451242 2.002245 0.100837
v -2.537409 0.896362 0.100837
v -3.462591 0.896362 0.100837
v -2.571609 1.981488 0.100837
v -3.428391 1.981488 0.100837
v -2.560687 0.917120 0.100837
v -3.439313 0.917120 0.100837
v -3.000000 1.981488 0.074984
v -3.000000 0.917120 0.074984
v -3.433852 1.449304 0.074984
v -2.566148 1.449304 0.074984
v -2.962986 1.482617 0.017951
v -2.603506 1.482617 0.017951
v -2.608284 1.948175 0.017951
v -2.962986 1.948175 0.017951
v -3.396494 1.482617 0.017951
v -3.037014 1.482617 0.017951
v -3.037014 1.948175 0.017951
v -3.391716 1.948175 0.017951
v -3.401955 0.950433 0.017951
v -3.037014 0.950433 0.017951
v -3.037014 1.415991 0.017951
v -3.397178 1.415991 0.017951
v -2.962986 0.950433 0.017951
v -2.598044 0.950433 0.017951
v -2.602822 1.415991 0.017951
v -2.962986 1.415991 0.017951
v -3.000000 1.981488 0.020536
v -3.428391 1.981488 0.020536
v -3.000000 0.917120 0.020536
v -3.439313 0.917120 0.020536
v -3.433852 1.449304 0.020536
v -2.566148 1.449304 0.020536
v -2.571609 1.981488 0.020536
v -2.560687 0.917120 0.020536
v -3.000000 1.449304 0.020536
v -2.603506 1.482617 0.020536
v -2.962986 1.482617 0.020536
v -2.962986 1.948175 0.020536
v -2.608284 1.948175 0.020536
v -3.037014 1.482617 0.020536
v -3.396494 1.482617 0.020536
v -3.391716 1.948175 0.020536
v -3.037014 1.948175 0.020536
v -3.037014 0.950433 0.020536
v -3.401955 0.950433 0.020536
v -3.397178 1.415991 0.020536
v -3.037014 1.415991 0.020536
v -2.598044 0.950433 0.020536
v -2.962986 0.950433 0.020536
v -2.962986 1.415991 0.020536
v -2.602822 1.415991 0.020536
v -4.000000 0.000000 -0.074984
v -2.000000 0.000000 -0.074984
v -4.000000 2.700000 -0.074984
v -2.000000 2.700000 -0.074984
v -3.428391 1.981488 -0.074984
v -3.462591 0.825159 -0.176692
v -3.462591 0.896362 -0.176692
v -2.571609 1.981488 -0.074984
v -3.462591 0.825159 -0.074984
v -3.439313 0.917120 -0.074984
v -2.560687 0.917120 -0.074984
v -2.537409 0.825159 -0.074984
v -2.537409 0.825159 -0.176692
v -2.537409 0.896362 -0.176692
v -2.548758 2.002245 -0.074984
v -3.451242 2.002245 -0.074984
v -2.537409 0.896362 -0.074984
v -3.462591 0.896362 -0.074984
v -2.548758 2.002245 -0.100837
v -3.451242 2.002245 -0.100837
v -2.537409 0.896362 -0.100837
v -3.462591 0.896362 -0.100837
v -2.571609 1.981488 -0.100837
v -3.428391 1.981488 -0.100837
v -2.560687 0.917120 -0.100837
v -3.439313 0.917120 -0.100837
v -3.000000 1.981488 -0.074984
v -3.000000 0.917120 -0.074984
v -3.433852 1.449304 -0.074984
v -2.566148 1.449304 -0.074984
v -2.962986 1.482617 -0.017951
v -2.603506 1.482617 -0.017951
v -2.608284 1.948175 -0.017951
v -2.962986 1.948175 -0.017951
v -3.396494 1.482617 -0.017951
v -3.037014 1.482617 -0.017951
v -3.037014 1.948175 -0.017951
v -3.391716 1.948175 -0.017951
v -3.401955 0.950433 -0.017951
v -3.037014 0.950433 -0.017951
v -3.037014 1.415991 -0.017951
v -3.397178 1.415991 -0.017951
v -2.962986 0.950433 -0.017951
v -2.598044 0.950433 -0.017951
v -2.602822 1.415991 -0.017951
v -2.962986 1.415991 -0.017951
v -3.000000 1.981488 -0.020536
v -3.428391 1.981488 -0.020536
v -3.000000 0.917120 -0.020536
v -3.439313 0.917120 -0.020536
v -3.433852 1.449304 -0.020536
v -2.566148 1.449304 -0.020536
v -2.571609 1.981488 -0.020536
v -2.560687 0.917120 -0.020536
v -3.000000 1.449304 -0.020536
v -2.603506 1.482617 -0.020536
v -2.962986 1.482617 -0.020536
v -2.962986 1.948175 -0.020536
v -2.608284 1.948175 -0.020536
v -3.037014 1.482617 -0.020536
v -3.396494 1.482617 -0.020536
v -3.391716 1.948175 -0.020536
v -3.037014 1.948175 -0.020536
v -3.037014 0.950433 -0.020536
v -3.401955 0.950433 -0.020536
v -3.397178 1.415991 -0.020536
v -3.037014 1.415991 -0.020536
v -2.598044 0.950433 -0.020536
v -2.962986 0.950433 -0.020536
v -2.962986 1.415991 -0.020536
v -2.602822 1.415991 -0.020536
v -4.000000 0.071744 0.074984
v -2.000000 0.071744 0.074984
v -4.000000 0.071744 0.074984
v -4.000000 0.000000 0.074984
v -2.000000 0.000000 0.074984
v -2.000000 0.071744 0.074984
v -4.000000 0.071744 0.074984
v -4.000000 0.000000 0.074984
v -2.000000 0.000000 0.074984
v -2.000000 0.071744 0.074984
v -4.000000 -0.000000 0.089984
v -2.000000 -0.000000 0.089984
v -4.000000 0.054173 0.089984
v -4.000000 0.066598 0.085590
v -2.000000 0.054173 0.089984
v -2.000000 0.066598 0.085590
v -3.667026 2.216727 0.109347
v -2.328614 2.216727 0.109347
v -3.667026 2.203703 0.114742
v -2.328614 2.203703 0.114742
v -3.667026 2.198308 0.127766
v -2.328614 2.198308 0.127766
v -3.667026 2.203703 0.140790
v -2.328614 2.203703 0.140790
v -3.667026 2.216727 0.146184
v -2.328614 2.216727 0.146184
v -3.667026 2.229751 0.140790
v -2.328614 2.229751 0.140790
v -3.667026 2.235146 0.127766
v -2.328614 2.235146 0.127766
v -3.667026 2.229751 0.114742
v -2.328614 2.229751 0.114742
v -2.322877 2.238029 0.074004
v -2.322877 2.249026 0.154367
v -2.307815 2.231790 0.074004
v -2.300039 2.239566 0.154367
v -2.301576 2.216727 0.074004
v -2.290579 2.216727 0.154367
v -2.307815 2.201665 0.074004
v -2.300039 2.193889 0.154367
v -2.322877 2.195426 0.074004
v -2.322877 2.184429 0.154367
v -2.337940 2.201665 0.074004
v -2.345716 2.193889 0.154367
v -2.344179 2.216727 0.074004
v -2.355176 2.216727 0.154367
v -2.337940 2.231790 0.074004
v -2.345716 2.239566 0.154367
v -3.672762 2.238029 0.074004
v -3.672762 2.249026 0.154367
v -3.657700 2.231790 0.074004
v -3.649924 2.239566 0.154367
v -3.651461 2.216727 0.074004
v -3.640464 2.216727 0.154367
v -3.657700 2.201665 0.074004
v -3.649924 2.193889 0.154367
v -3.672762 2.195426 0.074004
v -3.672762 2.184429 0.154367
v -3.687825 2.201665 0.074004
v -3.695601 2.193889 0.154367
v -3.694064 2.216727 0.074004
v -3.705061 2.216727 0.154367
v -3.687825 2.231790 0.074004
v -3.695601 2.239566 0.154367
vn -0.0000 1.0000 -0.0000
vn -0.0000 -0.0000 1.0000
vn -0.0000 -1.0000 -0.0000
vn -1.0000 -0.0000 -0.0000
vn 1.0000 -0.0000 -0.0000
vn 0.9999 -0.0103 -0.0000
vn 0.9999 0.0103 -0.0000
vn -0.9999 0.0103 -0.0000
vn -0.9999 -0.0103 -0.0000
vn -0.0000 -0.0000 -1.0000
vn -0.0000 0.8475 -0.5308
vn -0.0000 0.1691 0.9856
vn -0.0000 0.6665 0.7455
vn -0.0000 -0.3827 -0.9239
vn -0.0000 -0.9239 -0.3827
vn -0.0000 -0.9239 0.3827
vn -0.0000 -0.3827 0.9239
vn -0.0000 0.3827 0.9239
vn -0.0000 0.9239 0.3827
vn -0.0000 0.9239 -0.3827
vn -0.0000 0.3827 -0.9239
vn 0.3797 0.9166 -0.1254
vn 0.9166 0.3797 -0.1254
vn 0.9166 -0.3797 -0.1254
vn 0.3797 -0.9166 -0.1254
vn -0.3797 -0.9166 -0.1254
vn -0.9166 -0.3797 -0.1254
vn -0.9166 0.3797 -0.1254
vn -0.3797 0.9166 -0.1254
vt 0.250433 0.842290
vt 0.250433 0.772561
vt 0.258099 0.772561
vt 0.258099 0.842290
vt 0.325835 0.800172
vt 0.325835 0.869901
vt 0.320469 0.869901
vt 0.320469 0.800172
vt 0.850143 0.441402
vt 0.850143 0.371674
vt 0.857807 0.371674
vt 0.857807 0.441402
vt 0.691154 0.198397
vt 0.696520 0.198397
vt 0.696520 0.206061
vt 0.691154 0.206061
vt 0.478445 0.295913
vt 0.410427 0.295913
vt 0.369069 0.243328
vt 0.519803 0.243328
vt 0.658177 0.436891
vt 0.652811 0.436891
vt 0.652811 0.429227
vt 0.658177 0.429227
vt 0.409572 0.384622
vt 0.479300 0.384622
vt 0.479300 0.379256
vt 0.519803 0.441402
vt 0.369069 0.441402
vt 0.409572 0.379256
vt 0.618394 0.813739
vt 0.591301 0.813739
vt 0.591661 0.778653
vt 0.618394 0.778653
vt 0.913835 0.425756
vt 0.913835 0.393470
vt 0.913835 0.361183
vt 0.915783 0.361183
vt 0.915783 0.425756
vt 0.548538 0.912380
vt 0.548538 0.844362
vt 0.550486 0.844362
vt 0.550486 0.912380
vt 0.884360 0.864809
vt 0.884360 0.824700
vt 0.884360 0.784591
vt 0.886308 0.784590
vt 0.886308 0.864809
vt 0.663571 0.877740
vt 0.663571 0.794393
vt 0.665519 0.794393
vt 0.665519 0.877740
vt 0.258445 0.475507
vt 0.193872 0.475507
vt 0.192150 0.473942
vt 0.260167 0.473942
vt 0.193049 0.555721
vt 0.259268 0.555721
vt 0.261023 0.557285
vt 0.191294 0.557285
vt 0.694507 0.794393
vt 0.694507 0.877740
vt 0.692559 0.877740
vt 0.692559 0.794393
vt 0.886544 0.013520
vt 0.886544 0.053630
vt 0.886544 0.093739
vt 0.884596 0.093738
vt 0.884596 0.013520
vt 0.620289 0.910507
vt 0.620289 0.840779
vt 0.622237 0.840779
vt 0.622237 0.910507
vt 0.507161 0.915111
vt 0.507161 0.882001
vt 0.507161 0.848891
vt 0.509109 0.848891
vt 0.509109 0.915111
vt 0.815031 0.417713
vt 0.787938 0.417713
vt 0.787938 0.382627
vt 0.814671 0.382627
vt 0.480121 0.787209
vt 0.452616 0.787209
vt 0.452616 0.752123
vt 0.479761 0.752123
vt 0.425576 0.787209
vt 0.398071 0.787209
vt 0.398432 0.752123
vt 0.425576 0.752123
vt 0.219961 0.919926
vt 0.219961 0.955014
vt 0.219148 0.955014
vt 0.219148 0.919926
vt 0.970677 0.387916
vt 0.970677 0.361183
vt 0.971490 0.361183
vt 0.971490 0.387916
vt 0.157968 0.963089
vt 0.157968 0.928002
vt 0.158782 0.928002
vt 0.158782 0.963089
vt 0.949904 0.127288
vt 0.949904 0.162376
vt 0.949091 0.162376
vt 0.949091 0.127288
vt 0.765143 0.822133
vt 0.765143 0.782024
vt 0.765957 0.782024
vt 0.765957 0.822133
vt 0.425925 0.945036
vt 0.425925 0.909948
vt 0.426738 0.909948
vt 0.426738 0.945036
vt 0.943637 0.361183
vt 0.943637 0.396271
vt 0.942823 0.396271
vt 0.942823 0.361183
vt 0.591301 0.965052
vt 0.591301 0.937547
vt 0.592115 0.937547
vt 0.592115 0.965052
vt 0.120861 0.944231
vt 0.120861 0.909143
vt 0.121674 0.909143
vt 0.121674 0.944231
vt 0.908461 0.696787
vt 0.908461 0.736896
vt 0.907647 0.736896
vt 0.907647 0.696787
vt 0.619155 0.965052
vt 0.619155 0.937547
vt 0.619969 0.937547
vt 0.619969 0.965052
vt 0.045082 0.954935
vt 0.045082 0.919848
vt 0.045895 0.919848
vt 0.045895 0.954935
vt 0.849656 0.970126
vt 0.849656 0.943033
vt 0.850470 0.943033
vt 0.850470 0.970126
vt 0.765143 0.741915
vt 0.765957 0.741915
vt 0.914394 0.224404
vt 0.914394 0.191294
vt 0.915208 0.191294
vt 0.915208 0.224404
vt 0.970412 0.040613
vt 0.970412 0.013520
vt 0.971226 0.013520
vt 0.971226 0.040613
vt 0.624411 0.615807
vt 0.591713 0.615807
vt 0.594529 0.613297
vt 0.621622 0.613297
vt 0.592125 0.575700
vt 0.594889 0.578211
vt 0.624411 0.575700
vt 0.621622 0.578211
vt 0.657109 0.615807
vt 0.627201 0.613297
vt 0.654294 0.613297
vt 0.627201 0.578211
vt 0.656698 0.575700
vt 0.653934 0.578211
vt 0.657521 0.655915
vt 0.624411 0.655915
vt 0.627201 0.653404
vt 0.654705 0.653404
vt 0.627201 0.618318
vt 0.654345 0.618318
vt 0.591301 0.655915
vt 0.594117 0.653404
vt 0.621622 0.653404
vt 0.594477 0.618318
vt 0.621622 0.618318
vt 0.975338 0.918582
vt 0.975338 0.891849
vt 0.976151 0.891849
vt 0.976151 0.918582
vt 0.948298 0.891849
vt 0.948298 0.926937
vt 0.947484 0.926937
vt 0.947484 0.891849
vt 0.764008 0.969577
vt 0.764008 0.942433
vt 0.764822 0.942433
vt 0.764822 0.969577
vt 0.365640 0.968176
vt 0.365640 0.941032
vt 0.366454 0.941032
vt 0.366454 0.968176
vt 0.935501 0.688964
vt 0.935501 0.656678
vt 0.936315 0.656678
vt 0.936315 0.688964
vt 0.914394 0.257514
vt 0.915208 0.257514
vt 0.935501 0.721251
vt 0.936315 0.721251
vt 0.908461 0.656678
vt 0.907647 0.656678
vt 0.514826 0.821852
vt 0.507161 0.821852
vt 0.507161 0.752123
vt 0.514826 0.752123
vt 0.293429 0.869901
vt 0.288063 0.869901
vt 0.288063 0.800172
vt 0.293429 0.800172
vt 0.857320 0.854318
vt 0.849656 0.854318
vt 0.849656 0.784590
vt 0.857320 0.784590
vt 0.685217 0.436891
vt 0.685217 0.429227
vt 0.690584 0.429227
vt 0.690584 0.436891
vt 0.054878 0.066108
vt 0.013520 0.013520
vt 0.164254 0.013520
vt 0.122896 0.066108
vt 0.946568 0.846292
vt 0.946568 0.853956
vt 0.941202 0.853956
vt 0.941202 0.846292
vt 0.054023 0.154822
vt 0.013520 0.217011
vt 0.054023 0.149455
vt 0.013520 0.797109
vt 0.013520 0.762021
vt 0.040253 0.762021
vt 0.040613 0.797109
vt 0.123751 0.154822
vt 0.164254 0.217011
vt 0.123751 0.149455
vt 0.915533 0.078093
vt 0.913584 0.078093
vt 0.913584 0.013520
vt 0.915533 0.013520
vt 0.915533 0.045807
vt 0.724852 0.914833
vt 0.722904 0.914833
vt 0.722904 0.846815
vt 0.724852 0.846815
vt 0.886795 0.441402
vt 0.884847 0.441402
vt 0.884847 0.361183
vt 0.886795 0.361183
vt 0.886795 0.401292
vt 0.881094 0.551790
vt 0.879146 0.551789
vt 0.879146 0.468442
vt 0.881094 0.468442
vt 0.016098 0.475424
vt 0.014375 0.473859
vt 0.082393 0.473859
vt 0.080671 0.475424
vt 0.081494 0.555642
vt 0.083248 0.557207
vt 0.013520 0.557207
vt 0.015274 0.555642
vt 0.878659 0.656678
vt 0.880607 0.656678
vt 0.880607 0.740025
vt 0.878659 0.740025
vt 0.885406 0.191294
vt 0.887355 0.191295
vt 0.887355 0.271513
vt 0.885406 0.271513
vt 0.885406 0.231404
vt 0.593249 0.910507
vt 0.591301 0.910507
vt 0.591301 0.840779
vt 0.593249 0.840779
vt 0.765957 0.915393
vt 0.764008 0.915393
vt 0.764008 0.849173
vt 0.765957 0.849173
vt 0.765957 0.882283
vt 0.191294 0.797188
vt 0.191654 0.762100
vt 0.218387 0.762100
vt 0.218387 0.797188
vt 0.733393 0.417715
vt 0.733753 0.382627
vt 0.760898 0.382627
vt 0.760898 0.417715
vt 0.546843 0.417722
vt 0.546843 0.382635
vt 0.573988 0.382635
vt 0.574348 0.417722
vt 0.963355 0.656678
vt 0.964168 0.656678
vt 0.964168 0.691766
vt 0.963355 0.691766
vt 0.972308 0.605563
vt 0.971494 0.605563
vt 0.971494 0.578830
vt 0.972308 0.578830
vt 0.964168 0.753893
vt 0.963355 0.753893
vt 0.963355 0.718806
vt 0.964168 0.718806
vt 0.191294 0.919926
vt 0.192108 0.919926
vt 0.192108 0.955014
vt 0.191294 0.955014
vt 0.914162 0.864809
vt 0.913348 0.864809
vt 0.913348 0.824699
vt 0.914162 0.824700
vt 0.454592 0.945036
vt 0.453778 0.945036
vt 0.453778 0.909948
vt 0.454592 0.909948
vt 0.943641 0.578830
vt 0.944454 0.578830
vt 0.944454 0.613918
vt 0.943641 0.613917
vt 0.850957 0.623859
vt 0.850143 0.623859
vt 0.850143 0.596354
vt 0.850957 0.596354
vt 0.398885 0.945036
vt 0.398071 0.945036
vt 0.398071 0.909948
vt 0.398885 0.909948
vt 0.908135 0.508551
vt 0.908948 0.508551
vt 0.908948 0.548660
vt 0.908135 0.548661
vt 0.549351 0.966924
vt 0.548538 0.966924
vt 0.548538 0.939420
vt 0.549351 0.939420
vt 0.014333 0.954935
vt 0.013520 0.954935
vt 0.013520 0.919848
vt 0.014333 0.919848
vt 0.971225 0.094746
vt 0.970412 0.094746
vt 0.970412 0.067653
vt 0.971225 0.067653
vt 0.913348 0.784590
vt 0.914162 0.784590
vt 0.251247 0.902439
vt 0.250433 0.902439
vt 0.250433 0.869329
vt 0.251247 0.869329
vt 0.971232 0.218387
vt 0.970418 0.218387
vt 0.970418 0.191294
vt 0.971232 0.191294
vt 0.624411 0.508551
vt 0.627201 0.506040
vt 0.654294 0.506040
vt 0.657109 0.508551
vt 0.653934 0.470953
vt 0.656698 0.468442
vt 0.627201 0.470953
vt 0.624411 0.468442
vt 0.591713 0.508551
vt 0.594528 0.506040
vt 0.621621 0.506040
vt 0.621621 0.470953
vt 0.594889 0.470953
vt 0.592125 0.468442
vt 0.591301 0.548660
vt 0.594117 0.546150
vt 0.621621 0.546150
vt 0.624411 0.548660
vt 0.621621 0.511062
vt 0.594477 0.511062
vt 0.627201 0.546150
vt 0.654705 0.546150
vt 0.657521 0.548660
vt 0.654345 0.511062
vt 0.627201 0.511062
vt 0.976151 0.972355
vt 0.975338 0.972355
vt 0.975338 0.945622
vt 0.976151 0.945622
vt 0.948472 0.298907
vt 0.949286 0.298907
vt 0.949286 0.333995
vt 0.948472 0.333995
vt 0.507974 0.969296
vt 0.507161 0.969296
vt 0.507161 0.942151
vt 0.507974 0.942151
vt 0.723717 0.969017
vt 0.722904 0.969017
vt 0.722904 0.941873
vt 0.723717 0.941873
vt 0.936801 0.500728
vt 0.935988 0.500728
vt 0.935988 0.468442
vt 0.936801 0.468442
vt 0.251247 0.935549
vt 0.250433 0.935549
vt 0.936801 0.533015
vt 0.935988 0.533015
vt 0.908135 0.468442
vt 0.908948 0.468442
vt 0.148631 0.677351
vt 0.148631 0.671944
vt 0.148631 0.473859
vt 0.159931 0.473859
vt 0.159931 0.677351
vt 0.024823 0.584247
vt 0.024823 0.734981
vt 0.013520 0.734981
vt 0.013520 0.584247
vt 0.299363 0.473942
vt 0.299363 0.672027
vt 0.299363 0.677434
vt 0.288063 0.677434
vt 0.288063 0.473942
vt 0.222856 0.824228
vt 0.051863 0.584247
vt 0.057270 0.584247
vt 0.057270 0.734981
vt 0.051863 0.734981
vt 0.821486 0.807412
vt 0.821486 0.656678
vt 0.822616 0.656678
vt 0.822616 0.807412
vt 0.765895 0.191294
vt 0.765895 0.342029
vt 0.764955 0.342029
vt 0.764955 0.191294
vt 0.826804 0.191294
vt 0.826804 0.342029
vt 0.826006 0.342029
vt 0.826006 0.191294
vt 0.977456 0.298907
vt 0.977456 0.304314
vt 0.976326 0.304314
vt 0.976326 0.300231
vt 0.976657 0.299295
vt 0.769978 0.191294
vt 0.769978 0.342029
vt 0.120861 0.976678
vt 0.120861 0.971271
vt 0.121660 0.971659
vt 0.121991 0.972595
vt 0.121991 0.976678
vt 0.158950 0.805263
vt 0.158950 0.704391
vt 0.159931 0.704391
vt 0.159931 0.805263
vt 0.369069 0.852996
vt 0.369069 0.752123
vt 0.370058 0.752123
vt 0.370058 0.852996
vt 0.371032 0.752123
vt 0.371032 0.852996
vt 0.852106 0.468442
vt 0.852106 0.569314
vt 0.851129 0.569314
vt 0.851129 0.468442
vt 0.850143 0.569314
vt 0.850143 0.468442
vt 0.851619 0.656678
vt 0.851619 0.757550
vt 0.850639 0.757550
vt 0.850639 0.656678
vt 0.976326 0.333167
vt 0.976326 0.332105
vt 0.977077 0.331354
vt 0.978139 0.331354
vt 0.978890 0.332105
vt 0.978890 0.333167
vt 0.978139 0.333919
vt 0.977077 0.333919
vt 0.849656 0.757550
vt 0.849656 0.656678
vt 0.157968 0.805263
vt 0.157968 0.704391
vt 0.046091 0.983789
vt 0.045340 0.984540
vt 0.044277 0.984540
vt 0.043526 0.983789
vt 0.043527 0.982727
vt 0.044278 0.981975
vt 0.045340 0.981975
vt 0.046091 0.982727
vt 0.252155 0.968648
vt 0.252155 0.962589
vt 0.253876 0.962591
vt 0.253290 0.968649
vt 0.884946 0.957325
vt 0.884360 0.951257
vt 0.886081 0.951243
vt 0.886081 0.957315
vt 0.887803 0.951257
vt 0.887217 0.957325
vt 0.945680 0.423311
vt 0.946266 0.429379
vt 0.944544 0.429393
vt 0.944544 0.423321
vt 0.942823 0.429379
vt 0.943409 0.423311
vt 0.916508 0.957325
vt 0.915922 0.951257
vt 0.917643 0.951243
vt 0.917643 0.957315
vt 0.666752 0.963684
vt 0.668069 0.965001
vt 0.668069 0.966864
vt 0.666752 0.968181
vt 0.664889 0.968181
vt 0.663571 0.966864
vt 0.663571 0.965001
vt 0.664889 0.963684
vt 0.919365 0.951257
vt 0.918779 0.957325
vt 0.251019 0.968649
vt 0.250433 0.962591
vt 0.013520 0.982844
vt 0.014389 0.981975
vt 0.015618 0.981975
vt 0.016486 0.982844
vt 0.016486 0.984073
vt 0.015618 0.984942
vt 0.014389 0.984942
vt 0.013520 0.984073
vt 0.965563 0.536203
vt 0.965563 0.530144
vt 0.967284 0.530145
vt 0.966698 0.536204
vt 0.288649 0.962355
vt 0.288063 0.956287
vt 0.289784 0.956273
vt 0.289784 0.962345
vt 0.291505 0.956287
vt 0.290919 0.962355
vt 0.945104 0.252969
vt 0.945690 0.259037
vt 0.943969 0.259052
vt 0.943969 0.252979
vt 0.942248 0.259037
vt 0.942834 0.252969
vt 0.321055 0.962355
vt 0.320469 0.956287
vt 0.322190 0.956273
vt 0.322190 0.962345
vt 0.089299 0.971227
vt 0.089299 0.969363
vt 0.090616 0.968046
vt 0.092479 0.968046
vt 0.093796 0.969363
vt 0.093796 0.971227
vt 0.092479 0.972544
vt 0.090616 0.972544
vt 0.323912 0.956287
vt 0.323326 0.962355
vt 0.964428 0.536204
vt 0.963842 0.530145
vt 0.979911 0.160596
vt 0.979911 0.161825
vt 0.979042 0.162694
vt 0.977813 0.162694
vt 0.976944 0.161825
vt 0.976944 0.160596
vt 0.977813 0.159728
vt 0.979042 0.159728
s 0
usemtl Textures1024px
f 17/1/1 18/2/1 7/3/1 14/4/1
f 6/5/2 13/6/2 14/7/2 7/8/2
f 9/9/3 12/10/3 13/11/3 6/12/3
f 18/13/4 9/14/4 6/15/4 7/16/4
f 16/17/2 15/18/2 4/19/2 3/20/2
f 12/21/5 17/22/5 14/23/5 13/24/5
f 12/25/2 9/26/2 18/27/2 16/17/2 3/20/2 143/28/2 144/29/2 4/19/2 15/18/2 17/30/2
f 5/35/3 27/36/3 8/37/3 23/38/3 24/39/3
f 15/40/1 16/41/1 20/42/1 19/43/1
f 10/44/6 29/45/6 5/46/6 24/47/6 26/48/6
f 17/49/7 15/50/7 19/51/7 21/52/7
f 24/53/2 23/54/2 19/55/2 20/56/2
f 25/57/2 26/58/2 22/59/2 21/60/2
f 26/58/2 24/53/2 20/56/2 22/59/2
f 23/54/2 25/57/2 21/60/2 19/55/2
f 16/61/8 18/62/8 22/63/8 20/64/8
f 8/65/9 30/66/9 11/67/9 25/68/9 23/69/9
f 18/70/3 17/71/3 21/72/3 22/73/3
f 11/74/1 28/75/1 10/76/1 26/77/1 25/78/1
f 41/91/4 40/92/4 64/93/4 67/94/4
f 34/95/3 33/96/3 59/97/3 58/98/3
f 43/99/5 46/100/5 70/101/5 69/102/5
f 37/103/4 36/104/4 60/105/4 63/106/4
f 11/107/9 30/108/9 52/109/9 54/110/9
f 39/111/6 42/112/6 66/113/6 65/114/6
f 33/115/9 32/116/9 56/117/9 59/118/9
f 44/119/1 43/120/1 69/121/1 68/122/1
f 35/123/6 38/124/6 62/125/6 61/126/6
f 29/127/6 10/128/6 50/129/6 51/130/6
f 40/131/1 39/132/1 65/133/1 64/134/1
f 31/135/5 34/136/5 58/137/5 57/138/5
f 36/139/1 35/140/1 61/141/1 60/142/1
f 30/108/9 8/143/9 53/144/9 52/109/9
f 28/145/1 11/146/1 54/147/1 49/148/1
f 32/149/1 31/150/1 57/151/1 56/152/1
f 55/153/2 52/154/2 56/155/2 57/156/2
f 52/154/2 53/157/2 59/158/2 56/155/2
f 53/157/2 47/159/2 58/160/2 59/158/2
f 47/159/2 55/153/2 57/156/2 58/160/2
f 51/161/2 55/153/2 60/162/2 61/163/2
f 55/153/2 47/159/2 63/164/2 60/162/2
f 47/159/2 48/165/2 62/166/2 63/164/2
f 48/165/2 51/161/2 61/163/2 62/166/2
f 50/167/2 49/168/2 64/169/2 65/170/2
f 49/168/2 55/153/2 67/171/2 64/169/2
f 55/153/2 51/161/2 66/172/2 67/171/2
f 51/161/2 50/167/2 65/170/2 66/172/2
f 49/168/2 54/173/2 68/174/2 69/175/2
f 54/173/2 52/154/2 71/176/2 68/174/2
f 52/154/2 55/153/2 70/177/2 71/176/2
f 55/153/2 49/168/2 69/175/2 70/177/2
f 38/178/3 37/179/3 63/180/3 62/181/3
f 45/182/9 44/183/9 68/184/9 71/185/9
f 42/186/3 41/187/3 67/188/3 66/189/3
f 46/190/3 45/191/3 71/192/3 70/193/3
f 27/194/3 5/195/3 48/196/3 47/197/3
f 10/198/1 28/145/1 49/148/1 50/199/1
f 8/200/3 27/194/3 47/197/3 53/201/3
f 5/202/6 29/127/6 51/130/6 48/203/6
f 88/204/1 85/205/1 78/206/1 89/207/1
f 77/208/10 78/209/10 85/210/10 84/211/10
f 80/212/3 77/213/3 84/214/3 83/215/3
f 89/216/4 78/217/4 77/218/4 80/219/4
f 87/220/10 74/221/10 75/222/10 86/223/10
f 83/224/5 84/225/5 85/226/5 88/227/5
f 80/228/10 72/229/10 74/221/10 87/220/10 89/230/10
f 83/235/10 73/236/10 72/229/10 80/228/10
f 86/223/10 75/222/10 73/236/10 83/235/10 88/237/10
f 76/238/3 95/239/3 94/240/3 79/241/3 98/242/3
f 86/243/1 90/244/1 91/245/1 87/246/1
f 81/247/6 97/248/6 95/249/6 76/250/6 100/251/6
f 88/252/7 92/253/7 90/254/7 86/255/7
f 95/256/10 91/257/10 90/258/10 94/259/10
f 96/260/10 92/261/10 93/262/10 97/263/10
f 97/263/10 93/262/10 91/257/10 95/256/10
f 94/259/10 90/258/10 92/261/10 96/260/10
f 87/264/8 91/265/8 93/266/8 89/267/8
f 79/268/9 94/269/9 96/270/9 82/271/9 101/272/9
f 89/273/3 93/274/3 92/275/3 88/276/3
f 82/277/1 96/278/1 97/279/1 81/280/1 99/281/1
f 112/294/4 138/295/4 135/296/4 111/297/4
f 105/298/3 129/299/3 130/300/3 104/301/3
f 114/302/5 140/303/5 141/304/5 117/305/5
f 108/306/4 134/307/4 131/308/4 107/309/4
f 82/310/9 125/311/9 123/312/9 101/313/9
f 110/314/6 136/315/6 137/316/6 113/317/6
f 104/318/9 130/319/9 127/320/9 103/321/9
f 115/322/1 139/323/1 140/324/1 114/325/1
f 106/326/6 132/327/6 133/328/6 109/329/6
f 100/330/6 122/331/6 121/332/6 81/333/6
f 111/334/1 135/335/1 136/336/1 110/337/1
f 102/338/5 128/339/5 129/340/5 105/341/5
f 107/342/1 131/343/1 132/344/1 106/345/1
f 101/313/9 123/312/9 124/346/9 79/347/9
f 99/348/1 120/349/1 125/350/1 82/351/1
f 103/352/1 127/353/1 128/354/1 102/355/1
f 126/356/10 128/357/10 127/358/10 123/359/10
f 123/359/10 127/358/10 130/360/10 124/361/10
f 124/361/10 130/360/10 129/362/10 118/363/10
f 118/363/10 129/362/10 128/357/10 126/356/10
f 122/364/10 132/365/10 131/366/10 126/356/10
f 126/356/10 131/366/10 134/367/10 118/363/10
f 118/363/10 134/367/10 133/368/10 119/369/10
f 119/369/10 133/368/10 132/365/10 122/364/10
f 121/370/10 136/371/10 135/372/10 120/373/10
f 120/373/10 135/372/10 138/374/10 126/356/10
f 126/356/10 138/374/10 137/375/10 122/364/10
f 122/364/10 137/375/10 136/371/10 121/370/10
f 120/373/10 140/376/10 139/377/10 125/378/10
f 125/378/10 139/377/10 142/379/10 123/359/10
f 123/359/10 142/379/10 141/380/10 126/356/10
f 126/356/10 141/380/10 140/376/10 120/373/10
f 109/381/3 133/382/3 134/383/3 108/384/3
f 116/385/9 142/386/9 139/387/9 115/388/9
f 113/389/3 137/390/3 138/391/3 112/392/3
f 117/393/3 141/394/3 142/395/3 116/396/3
f 98/397/3 118/398/3 119/399/3 76/400/3
f 81/401/1 121/402/1 120/349/1 99/348/1
f 79/403/3 124/404/3 118/398/3 98/397/3
f 76/405/6 119/406/6 122/331/6 100/330/6
f 1/407/4 143/408/4 3/409/4 74/410/4 72/411/4
f 3/412/1 4/413/1 75/414/1 74/415/1
f 4/416/5 144/417/5 2/418/5 73/419/5 75/420/5
f 144/421/1 143/421/1 145/421/1 148/421/1
f 143/421/1 1/421/1 146/421/1 145/421/1
f 2/421/1 144/421/1 148/421/1 147/421/1
f 1/421/1 2/421/1 147/421/1 146/421/1
s 1
f 152/422/11 151/423/10 150/424/10 149/425/11
f 150/426/3 151/427/3 154/428/3 153/429/3
f 155/430/12 157/431/12 158/432/13 156/433/13
f 156/434/13 158/435/13 152/436/11 149/437/11
f 149/438/4 150/439/4 153/440/4 155/441/4 156/442/4
f 157/431/12 155/430/12 153/443/2 154/444/2
f 151/445/5 152/446/5 158/447/5 157/448/5 154/449/5
s 0
f 159/450/14 160/451/14 162/452/14 161/453/14
f 161/454/15 162/455/15 164/456/15 163/457/15
f 163/457/16 164/456/16 166/458/16 165/459/16
f 165/460/17 166/461/17 168/462/17 167/463/17
f 167/463/18 168/462/18 170/464/18 169/465/18
f 169/466/19 170/467/19 172/468/19 171/469/19
f 162/470/5 160/471/5 174/472/5 172/473/5 170/474/5 168/475/5 166/476/5 164/477/5
f 171/469/20 172/468/20 174/478/20 173/479/20
f 173/480/21 174/481/21 160/451/21 159/450/21
f 159/482/4 161/483/4 163/484/4 165/485/4 167/486/4 169/487/4 171/488/4 173/489/4
f 175/490/22 176/491/22 178/492/22 177/493/22
f 177/494/23 178/495/23 180/496/23 179/497/23
f 179/497/24 180/496/24 182/498/24 181/499/24
f 181/500/25 182/501/25 184/502/25 183/503/25
f 183/503/26 184/502/26 186/504/26 185/505/26
f 185/506/27 186/507/27 188/508/27 187/509/27
f 178/510/2 176/511/2 190/512/2 188/513/2 186/514/2 184/515/2 182/516/2 180/517/2
f 187/509/28 188/508/28 190/518/28 189/519/28
f 189/520/29 190/521/29 176/491/29 175/490/29
f 175/522/10 177/523/10 179/524/10 181/525/10 183/526/10 185/527/10 187/528/10 189/529/10
f 191/530/22 192/531/22 194/532/22 193/533/22
f 193/534/23 194/535/23 196/536/23 195/537/23
f 195/537/24 196/536/24 198/538/24 197/539/24
f 197/540/25 198/541/25 200/542/25 199/543/25
f 199/543/26 200/542/26 202/544/26 201/545/26
f 201/546/27 202/547/27 204/548/27 203/549/27
f 194/550/2 192/551/2 206/552/2 204/553/2 202/554/2 200/555/2 198/556/2 196/557/2
f 203/549/28 204/548/28 206/558/28 205/559/28
f 205/560/29 206/561/29 192/531/29 191/530/29
f 191/562/10 193/563/10 195/564/10 197/565/10 199/566/10 201/567/10 203/568/10 205/569/10
usemtl Glass128x
f 31/31/2 32/32/2 33/33/2 34/34/2
f 35/79/2 36/80/2 37/81/2 38/82/2
f 39/83/2 40/84/2 41/85/2 42/86/2
f 43/87/2 44/88/2 45/89/2 46/90/2
f 102/231/10 105/232/10 104/233/10 103/234/10
f 106/282/10 109/283/10 108/284/10 107/285/10
f 110/286/10 113/287/10 112/288/10 111/289/10
f 114/290/10 117/291/10 116/292/10 115/293/10
