# Blender 5.1.2
# www.blender.org
mtllib Wall_Corner04_IntExt.mtl
o Wall_Corner04_IntExt
v 10.925015 0.000000 -2.000000
v 10.925016 0.000000 0.074984
v 10.925015 2.700000 -2.000000
v 10.925016 2.700000 0.074984
v 11.074984 0.000000 -2.000000
v 11.074984 0.000000 -0.074984
v 11.074984 2.700000 -2.000000
v 11.074984 2.700000 -0.074984
v 10.925016 0.000000 0.074984
v 13.000000 0.000000 0.074983
v 10.925016 2.700000 0.074984
v 13.000000 2.700000 0.074983
v 11.074984 0.000000 -0.074984
v 13.000000 0.000000 -0.074984
v 11.074984 2.700000 -0.074984
v 13.000000 2.700000 -0.074984
v 10.925016 0.071744 0.074984
v 10.925016 0.000000 0.074984
v 13.000000 0.000000 0.074984
v 13.000000 0.071744 0.074984
v 10.925016 -0.000000 0.089984
v 13.000000 -0.000000 0.089984
v 10.925016 0.054173 0.089984
v 10.925016 0.066598 0.085590
v 13.000000 0.054173 0.089984
v 13.000000 0.066598 0.085590
v 10.925015 0.071744 -2.000000
v 10.925015 0.000000 -2.000000
v 10.925015 0.000000 0.074984
v 10.925015 0.071744 0.074984
v 10.910016 -0.000000 -2.000000
v 10.910016 -0.000000 0.074984
v 10.910016 0.054173 -2.000000
v 10.914410 0.066598 -2.000000
v 10.910016 0.054173 0.074984
v 10.914410 0.066598 0.074984
vn -1.0000 -0.0000 -0.0000
vn 1.0000 -0.0000 -0.0000
vn -0.0000 -0.0000 -1.0000
vn -0.0000 1.0000 -0.0000
vn -0.0000 -0.0000 1.0000
vn -0.0000 0.1691 0.9856
vn -0.0000 0.6665 0.7455
vn -0.0000 0.8997 0.4365
vn -0.9856 0.1691 -0.0000
vn -0.7455 0.6665 -0.0000
vn -0.4365 0.8997 -0.0000
vt 0.512608 0.202888
vt 0.376715 0.202888
vt 0.376715 0.026690
vt 0.512608 0.026690
vt 0.023425 0.439165
vt 0.023425 0.255411
vt 0.154436 0.255411
vt 0.154436 0.439165
vt 0.031197 0.163070
vt 0.031197 0.081728
vt 0.035715 0.081728
vt 0.035715 0.163070
vt 0.036204 0.079587
vt 0.036204 0.167182
vt 0.029873 0.160933
vt 0.029873 0.079669
vt 0.023425 0.439165
vt 0.154436 0.255411
vt 0.154436 0.439165
vt 0.030067 0.167947
vt 0.030067 0.080351
vt 0.036398 0.080434
vt 0.036398 0.161698
vt 0.035715 0.081728
vt 0.035715 0.163070
vt 0.031197 0.163070
vt 0.031197 0.081728
vt 0.764915 0.602761
vt 0.764915 0.485117
vt 0.765638 0.485117
vt 0.765638 0.602761
vt 0.822321 0.602513
vt 0.822321 0.485628
vt 0.822952 0.485603
vt 0.822952 0.602488
vt 0.821421 0.084096
vt 0.821421 0.088149
vt 0.820571 0.088149
vt 0.820571 0.085089
vt 0.820820 0.084387
vt 0.761855 0.602761
vt 0.761855 0.485117
vt 0.820616 0.124933
vt 0.820616 0.120866
vt 0.821217 0.121157
vt 0.821467 0.121862
vt 0.821467 0.124933
vt 0.764915 0.602761
vt 0.765638 0.602761
vt 0.822952 0.602488
vt 0.822321 0.602463
vt 0.822321 0.485578
vt 0.821467 0.138170
vt 0.821467 0.142238
vt 0.820616 0.142238
vt 0.820616 0.139167
vt 0.820865 0.138462
vt 0.761855 0.602761
vt 0.820571 0.105440
vt 0.820571 0.101386
vt 0.821172 0.101677
vt 0.821421 0.102379
vt 0.821421 0.105440
s 0
usemtl Textures1024px
f 1/1/1 2/2/1 4/3/1 3/4/1
f 5/5/2 7/6/2 8/7/2 6/8/2
f 1/9/3 3/10/3 7/11/3 5/12/3
f 3/13/4 4/14/4 8/15/4 7/16/4
f 9/1/5 10/2/5 12/3/5 11/4/5
f 13/17/3 15/6/3 16/18/3 14/19/3
f 11/20/4 12/21/4 16/22/4 15/23/4
f 12/24/2 10/25/2 14/26/2 16/27/2
s 1
f 23/28/6 25/29/6 26/30/7 24/31/7
f 24/32/7 26/33/7 20/34/8 17/35/8
f 17/36/1 18/37/1 21/38/1 23/39/1 24/40/1
f 25/29/6 23/28/6 21/41/5 22/42/5
f 19/43/2 20/44/2 26/45/2 25/46/2 22/47/2
f 33/48/9 35/29/9 36/30/10 34/49/10
f 34/34/10 36/50/10 30/51/11 27/52/11
f 27/53/3 28/54/3 31/55/3 33/56/3 34/57/3
f 35/29/9 33/48/9 31/58/1 32/42/1
f 29/59/5 30/60/5 36/61/5 35/62/5 32/63/5
